<?xml version='1.0' encoding='utf-8'?>
<svg xmlns="http://www.w3.org/2000/svg" version="1.1" width="242" height="130" viewBox="0 0 242 130" style="background: transparent;">
  <defs>
    <style>
        .handwriting {
            fill: none;
            stroke: #ddefe9;
            stroke-width: 2.00;
            stroke-linecap: round;
            stroke-linejoin: round;
            stroke-opacity: 0.95;
        }
        .hole {
            fill: #ddefe9;
            stroke: none;
            opacity: 0.95;
        }
    </style>
  </defs>
  <g class="handwriting">
    <path d="M 102.00 58.00 C 102.50 57.88 102.00 58.00 103.00 57.75 C 104.00 57.50 103.50 57.08 105.00 57.25 C 106.50 57.42 105.67 57.08 107.50 58.25 C 109.33 59.42 109.08 58.92 110.50 60.75 C 111.92 62.58 111.50 61.58 111.75 63.75 C 112.00 65.92 112.08 65.00 111.25 67.25 C 110.42 69.50 111.08 68.42 109.25 70.50 C 107.42 72.58 107.92 72.00 105.75 73.50 C 103.58 75.00 104.58 74.50 102.75 75.00 C 100.92 75.50 101.83 75.50 100.25 75.00 C 98.67 74.50 99.42 75.00 98.00 73.50 C 96.58 72.00 96.92 72.50 96.00 70.50 C 95.08 68.50 95.33 69.50 95.25 67.50 C 95.17 65.50 95.08 66.42 95.75 64.50 C 96.42 62.58 95.92 63.50 97.25 61.75 C 98.58 60.00 98.50 60.50 99.75 59.25 C 101.00 58.00 100.38 58.62 101.00 58.00" class="hole" fill="#ddefe9" fill-rule="evenodd" />
    <path d="M 145.00 41.00 C 146.12 40.88 145.00 41.00 147.25 40.75 C 149.50 40.50 149.17 40.33 151.75 40.25 C 154.33 40.17 153.25 40.08 155.00 40.50 C 156.75 40.92 155.58 40.58 157.00 41.50 C 158.42 42.42 157.67 41.83 159.25 43.25 C 160.83 44.67 160.33 44.00 161.75 45.75 C 163.17 47.50 162.58 46.58 163.50 48.50 C 164.42 50.42 164.25 48.67 164.50 51.50 C 164.75 54.33 164.83 52.50 164.25 57.00 C 163.67 61.50 164.75 59.67 162.75 65.00 C 160.75 70.33 162.25 67.67 158.25 73.00 C 154.25 78.33 153.17 76.92 150.75 81.00 C 148.33 85.08 148.25 83.67 151.00 85.25 C 153.75 86.83 154.42 85.75 159.00 85.75 C 163.58 85.75 161.67 85.92 164.75 85.25 C 167.83 84.58 166.08 84.17 168.25 83.75 C 170.42 83.33 169.42 83.25 171.25 84.00 C 173.08 84.75 172.42 84.58 173.75 86.00 C 175.08 87.42 174.58 86.67 175.25 88.25 C 175.92 89.83 176.00 89.17 175.75 90.75 C 175.50 92.33 175.92 91.58 174.50 93.00 C 173.08 94.42 173.33 94.17 171.50 95.00 C 169.67 95.83 170.50 95.67 169.00 95.50 C 167.50 95.33 169.75 95.00 167.00 94.50 C 164.25 94.00 166.33 94.17 160.75 94.00 C 155.17 93.83 156.58 93.67 150.25 94.00 C 143.92 94.33 146.75 94.00 141.75 95.00 C 136.75 96.00 138.92 96.25 135.25 97.00 C 131.58 97.75 133.08 97.67 130.75 97.25 C 128.42 96.83 129.50 97.08 128.25 95.75 C 127.00 94.42 127.42 95.25 127.00 93.25 C 126.58 91.25 126.00 91.92 127.00 89.75 C 128.00 87.58 127.00 88.58 130.00 86.75 C 133.00 84.92 132.17 86.42 136.00 84.25 C 139.83 82.08 138.00 83.42 141.50 80.25 C 145.00 77.08 143.33 78.67 146.50 74.75 C 149.67 70.83 148.17 72.92 151.00 68.50 C 153.83 64.08 153.08 65.50 155.00 61.50 C 156.92 57.50 156.33 59.17 156.75 56.50 C 157.17 53.83 156.92 55.33 156.25 53.50 C 155.58 51.67 156.08 52.50 154.75 51.00 C 153.42 49.50 154.17 49.83 152.25 49.00 C 150.33 48.17 151.42 48.33 149.00 48.50 C 146.58 48.67 147.42 48.58 145.00 49.50 C 142.58 50.42 143.67 49.83 141.75 51.25 C 139.83 52.67 140.83 52.50 139.25 53.75 C 137.67 55.00 138.42 54.58 137.00 55.00 C 135.58 55.42 136.33 55.50 135.00 55.00 C 133.67 54.50 134.33 55.00 133.00 53.50 C 131.67 52.00 131.17 52.67 131.00 50.50 C 130.83 48.33 130.33 49.50 132.50 47.00 C 134.67 44.50 135.00 45.00 137.50 43.00 C 140.00 41.00 138.75 42.00 140.00 41.00" class="hole" fill="#ddefe9" fill-rule="evenodd" />
    <path d="M 196.00 53.00 C 196.00 53.88 196.00 53.00 196.00 54.75 C 196.00 56.50 196.33 56.50 196.00 58.25 C 195.67 60.00 196.00 59.42 195.00 60.00 C 194.00 60.58 193.92 60.33 193.00 60.00 C 192.08 59.67 192.33 60.00 192.25 59.00 C 192.17 58.00 192.50 58.00 192.75 57.00 C 193.00 56.00 192.88 56.50 193.00 56.00" class="hole" fill="#ddefe9" fill-rule="evenodd" />
    <path d="M 208.00 35.00 C 208.62 35.25 208.00 35.00 209.25 35.50 C 210.50 36.00 210.33 35.58 211.75 36.50 C 213.17 37.42 212.58 36.83 213.50 38.25 C 214.42 39.67 214.25 39.17 214.50 40.75 C 214.75 42.33 214.83 41.58 214.25 43.00 C 213.67 44.42 213.83 42.58 212.75 45.00 C 211.67 47.42 212.25 45.67 211.00 50.25 C 209.75 54.83 209.75 53.83 209.00 58.75 C 208.25 63.67 208.33 61.58 208.75 65.00 C 209.17 68.42 209.92 66.67 210.25 69.00 C 210.58 71.33 210.75 70.33 209.75 72.00 C 208.75 73.67 208.58 72.58 207.25 74.00 C 205.92 75.42 206.42 74.67 205.75 76.25 C 205.08 77.83 205.50 75.75 205.25 78.75 C 205.00 81.75 205.08 79.58 205.00 85.25 C 204.92 90.92 205.67 90.17 205.00 95.75 C 204.33 101.33 205.00 99.25 203.00 102.00 C 201.00 104.75 201.33 103.50 199.00 104.00 C 196.67 104.50 197.67 104.67 196.00 103.50 C 194.33 102.33 194.58 104.08 194.00 100.50 C 193.42 96.92 193.33 99.50 194.25 92.75 C 195.17 86.00 196.92 86.42 196.75 80.25 C 196.58 74.08 197.58 76.08 193.75 74.25 C 189.92 72.42 190.00 74.83 185.25 74.75 C 180.50 74.67 182.42 74.92 179.50 74.00 C 176.58 73.08 178.00 73.67 176.50 72.00 C 175.00 70.33 175.50 71.33 175.00 69.00 C 174.50 66.67 174.08 68.92 175.00 65.00 C 175.92 61.08 175.00 63.67 177.75 57.25 C 180.50 50.83 180.00 51.50 183.25 45.75 C 186.50 40.00 185.08 41.92 187.50 40.00 C 189.92 38.08 188.67 39.58 190.50 40.00 C 192.33 40.42 191.50 40.00 193.00 41.25 C 194.50 42.50 195.00 40.67 195.00 43.75 C 195.00 46.83 195.67 44.58 193.00 50.50 C 190.33 56.42 188.67 56.17 187.00 61.50 C 185.33 66.83 185.00 65.17 188.00 66.50 C 191.00 67.83 191.58 68.25 196.00 65.50 C 200.42 62.75 198.67 65.17 201.25 58.25 C 203.83 51.33 202.50 51.50 203.75 44.75 C 205.00 38.00 204.38 41.38 205.00 38.00" class="hole" fill="#ddefe9" fill-rule="evenodd" />
    <path d="M 105.00 41.00 C 105.50 40.88 105.00 41.00 106.00 40.75 C 107.00 40.50 106.75 40.25 108.00 40.25 C 109.25 40.25 108.67 40.08 109.75 40.75 C 110.83 41.42 110.50 41.08 111.25 42.25 C 112.00 43.42 111.75 42.75 112.00 44.25 C 112.25 45.75 111.67 45.42 112.00 46.75 C 112.33 48.08 112.00 47.58 113.00 48.25 C 114.00 48.92 113.42 47.92 115.00 48.75 C 116.58 49.58 115.67 48.92 117.75 50.75 C 119.83 52.58 119.33 51.50 121.25 54.25 C 123.17 57.00 122.42 55.42 123.50 59.00 C 124.58 62.58 124.33 61.33 124.50 65.00 C 124.67 68.67 124.83 67.00 124.00 70.00 C 123.17 73.00 123.67 71.33 122.00 74.00 C 120.33 76.67 121.33 75.33 119.00 78.00 C 116.67 80.67 117.83 79.67 115.00 82.00 C 112.17 84.33 113.67 83.33 110.50 85.00 C 107.33 86.67 108.92 86.08 105.50 87.00 C 102.08 87.92 103.83 87.67 100.25 87.75 C 96.67 87.83 97.92 87.92 94.75 87.25 C 91.58 86.58 92.92 87.08 90.75 85.75 C 88.58 84.42 89.92 85.25 88.25 83.25 C 86.58 81.25 87.42 82.42 85.75 79.75 C 84.08 77.08 84.50 78.17 83.25 75.25 C 82.00 72.33 82.42 73.75 82.00 71.00 C 81.58 68.25 81.67 69.92 82.00 67.00 C 82.33 64.08 82.00 65.67 83.00 62.25 C 84.00 58.83 82.50 60.58 85.00 56.75 C 87.50 52.92 85.67 54.92 90.50 50.75 C 95.33 46.58 95.00 47.50 99.50 44.25 C 104.00 41.00 101.75 42.62 104.00 41.00" class="hole" fill="#ddefe9" fill-rule="evenodd" />
    <path d="M 29.00 39.00 C 30.62 38.88 29.00 39.00 32.25 38.75 C 35.50 38.50 34.92 38.33 38.75 38.25 C 42.58 38.17 40.92 38.08 43.75 38.50 C 46.58 38.92 44.83 38.67 47.25 39.50 C 49.67 40.33 48.42 39.83 51.00 41.00 C 53.58 42.17 52.42 41.17 55.00 43.00 C 57.58 44.83 56.33 43.67 58.75 46.50 C 61.17 49.33 60.50 48.42 62.25 51.50 C 64.00 54.58 63.42 53.17 64.00 55.75 C 64.58 58.33 64.33 56.83 64.00 59.25 C 63.67 61.67 64.00 60.42 63.00 63.00 C 62.00 65.58 63.50 63.50 61.00 67.00 C 58.50 70.50 60.33 68.33 55.50 73.50 C 50.67 78.67 50.00 78.25 46.50 82.50 C 43.00 86.75 43.50 85.50 45.00 86.25 C 46.50 87.00 46.67 85.33 51.00 84.75 C 55.33 84.17 53.00 84.25 58.00 84.50 C 63.00 84.75 61.42 85.17 66.00 85.50 C 70.58 85.83 68.67 85.83 71.75 85.50 C 74.83 85.17 72.92 84.75 75.25 84.50 C 77.58 84.25 76.42 84.17 78.75 84.75 C 81.08 85.33 80.42 85.00 82.25 86.25 C 84.08 87.50 83.42 86.75 84.25 88.50 C 85.08 90.25 84.83 89.67 84.75 91.50 C 84.67 93.33 84.92 92.50 84.00 94.00 C 83.08 95.50 83.67 95.25 82.00 96.00 C 80.33 96.75 81.33 96.67 79.00 96.25 C 76.67 95.83 79.08 95.58 75.00 94.75 C 70.92 93.92 73.67 94.25 66.75 93.75 C 59.83 93.25 60.83 93.25 54.25 93.25 C 47.67 93.25 50.08 93.08 47.00 93.75 C 43.92 94.42 47.08 94.33 45.00 95.25 C 42.92 96.17 44.33 95.75 40.75 96.50 C 37.17 97.25 38.00 96.67 34.25 97.50 C 30.50 98.33 32.08 97.83 29.50 99.00 C 26.92 100.17 28.58 100.25 26.50 101.00 C 24.42 101.75 25.50 101.67 23.25 101.25 C 21.00 100.83 21.58 101.08 19.75 99.75 C 17.92 98.42 18.58 99.25 17.75 97.25 C 16.92 95.25 17.17 95.83 17.25 93.75 C 17.33 91.67 17.08 92.58 18.00 91.00 C 18.92 89.42 18.67 89.92 20.00 89.00 C 21.33 88.08 20.67 88.33 22.00 88.25 C 23.33 88.17 22.00 89.17 24.00 88.75 C 26.00 88.33 24.67 88.92 28.00 87.00 C 31.33 85.08 29.50 86.75 34.00 83.00 C 38.50 79.25 36.00 81.67 41.50 75.75 C 47.00 69.83 46.00 71.00 50.50 65.25 C 55.00 59.50 53.50 61.75 55.00 58.50 C 56.50 55.25 55.33 57.33 55.00 55.50 C 54.67 53.67 55.00 54.50 54.00 53.00 C 53.00 51.50 54.08 52.42 52.00 51.00 C 49.92 49.58 51.33 50.33 47.75 48.75 C 44.17 47.17 45.33 47.25 41.25 46.25 C 37.17 45.25 39.08 45.42 35.50 45.75 C 31.92 46.08 33.25 45.92 30.50 47.25 C 27.75 48.58 28.83 47.75 27.25 49.75 C 25.67 51.75 26.83 51.17 25.75 53.25 C 24.67 55.33 25.25 54.42 24.00 56.00 C 22.75 57.58 23.17 57.08 22.00 58.00 C 20.83 58.92 21.33 58.67 20.50 58.75 C 19.67 58.83 20.33 58.83 19.50 58.25 C 18.67 57.67 19.17 58.08 18.00 57.00 C 16.83 55.92 17.00 56.33 16.00 55.00 C 15.00 53.67 15.33 54.33 15.00 53.00 C 14.67 51.67 14.08 52.92 15.00 51.00 C 15.92 49.08 15.00 50.33 17.75 47.25 C 20.50 44.17 20.50 44.50 23.25 41.75 C 26.00 39.00 24.62 40.38 26.00 39.00" class="hole" fill="#ddefe9" fill-rule="evenodd" />
  </g>
</svg>