<?xml version='1.0' encoding='utf-8'?>
<svg xmlns="http://www.w3.org/2000/svg" version="1.1" width="228" height="97" viewBox="0 0 228 97" style="background: transparent;">
  <defs>
    <style>
        .handwriting {
            fill: none;
            stroke: #ffffff;
            stroke-width: 2.00;
            stroke-linecap: round;
            stroke-linejoin: round;
            stroke-opacity: 0.95;
        }
        .hole {
            fill: #ffffff;
            stroke: none;
            opacity: 0.95;
        }
    </style>
  </defs>
  <g class="handwriting">
    <path d="M 94.00 36.00 C 94.75 35.88 94.00 36.00 95.50 35.75 C 97.00 35.50 96.67 34.83 98.50 35.25 C 100.33 35.67 99.50 35.08 101.00 37.00 C 102.50 38.92 102.25 38.67 103.00 41.00 C 103.75 43.33 103.67 42.33 103.25 44.00 C 102.83 45.67 103.33 44.67 101.75 46.00 C 100.17 47.33 101.25 46.67 98.50 48.00 C 95.75 49.33 96.42 49.33 93.50 50.00 C 90.58 50.67 91.83 50.67 89.75 50.00 C 87.67 49.33 88.33 49.50 87.25 48.00 C 86.17 46.50 86.42 47.33 86.50 45.50 C 86.58 43.67 86.58 44.42 87.50 42.50 C 88.42 40.58 87.83 41.50 89.25 39.75 C 90.67 38.00 90.50 38.50 91.75 37.25 C 93.00 36.00 92.38 36.62 93.00 36.00" class="hole" fill="#ffffff" fill-rule="evenodd" />
    <path d="M 92.00 22.00 C 93.12 21.88 92.00 22.00 94.25 21.75 C 96.50 21.50 96.00 21.25 98.75 21.25 C 101.50 21.25 100.25 21.08 102.50 21.75 C 104.75 22.42 103.33 21.67 105.50 23.25 C 107.67 24.83 106.50 23.75 109.00 26.50 C 111.50 29.25 110.75 28.33 113.00 31.50 C 115.25 34.67 114.33 33.17 115.75 36.00 C 117.17 38.83 116.67 37.42 117.25 40.00 C 117.83 42.58 117.75 41.33 117.50 43.75 C 117.25 46.17 117.42 45.08 116.50 47.25 C 115.58 49.42 116.17 48.42 114.75 50.25 C 113.33 52.08 114.92 50.67 112.25 52.75 C 109.58 54.83 111.42 53.58 106.75 56.50 C 102.08 59.42 103.17 59.00 98.25 61.50 C 93.33 64.00 95.42 63.17 92.00 64.00 C 88.58 64.83 90.58 64.25 88.00 64.00 C 85.42 63.75 86.67 64.00 84.25 63.25 C 81.83 62.50 83.00 63.25 80.75 61.75 C 78.50 60.25 79.58 61.25 77.50 58.75 C 75.42 56.25 75.67 58.08 74.50 54.25 C 73.33 50.42 73.50 52.75 74.00 47.25 C 74.50 41.75 74.00 43.42 76.00 37.75 C 78.00 32.08 76.67 34.58 80.00 30.25 C 83.33 25.92 83.00 27.50 86.00 24.75 C 89.00 22.00 87.50 23.38 89.00 22.00" class="hole" fill="#ffffff" fill-rule="evenodd" />
    <path d="M 135.00 19.00 C 136.75 19.00 135.00 19.00 138.50 19.00 C 142.00 19.00 141.42 18.25 145.50 19.00 C 149.58 19.75 147.83 19.00 150.75 21.25 C 153.67 23.50 152.83 22.08 154.25 25.75 C 155.67 29.42 155.42 27.25 155.00 32.25 C 154.58 37.25 155.33 35.25 153.00 40.75 C 150.67 46.25 152.33 43.58 148.00 48.75 C 143.67 53.92 141.67 52.67 140.00 56.25 C 138.33 59.83 137.33 58.75 143.00 59.50 C 148.67 60.25 149.67 58.58 157.00 58.50 C 164.33 58.42 161.67 58.17 165.00 59.25 C 168.33 60.33 166.00 60.08 167.00 61.75 C 168.00 63.42 167.67 62.58 168.00 64.25 C 168.33 65.92 168.33 65.25 168.00 66.75 C 167.67 68.25 168.00 67.58 167.00 68.75 C 166.00 69.92 166.67 69.75 165.00 70.25 C 163.33 70.75 164.33 70.75 162.00 70.25 C 159.67 69.75 162.92 69.25 158.00 68.75 C 153.08 68.25 156.67 68.25 147.25 68.75 C 137.83 69.25 138.83 69.67 129.75 70.25 C 120.67 70.83 123.92 70.75 120.00 70.50 C 116.08 70.25 119.08 70.42 118.00 69.50 C 116.92 68.58 117.33 69.17 116.75 67.75 C 116.17 66.33 115.00 67.50 116.25 65.25 C 117.50 63.00 116.08 64.42 120.50 61.00 C 124.92 57.58 124.33 58.67 129.50 55.00 C 134.67 51.33 132.50 53.00 136.00 50.00 C 139.50 47.00 137.67 48.67 140.00 46.00 C 142.33 43.33 141.33 44.67 143.00 42.00 C 144.67 39.33 144.00 40.67 145.00 38.00 C 146.00 35.33 145.67 36.67 146.00 34.00 C 146.33 31.33 146.17 32.08 146.00 30.00 C 145.83 27.92 146.00 28.67 145.50 27.75 C 145.00 26.83 145.42 27.50 144.50 27.25 C 143.58 27.00 144.17 27.08 142.75 27.00 C 141.33 26.92 142.00 26.50 140.25 27.00 C 138.50 27.50 139.42 27.00 137.50 28.50 C 135.58 30.00 136.50 30.25 134.50 31.50 C 132.50 32.75 133.50 32.50 131.50 32.25 C 129.50 32.00 130.00 32.08 128.50 30.75 C 127.00 29.42 127.50 30.25 127.00 28.25 C 126.50 26.25 126.50 26.83 127.00 24.75 C 127.50 22.67 127.00 23.58 128.50 22.00 C 130.00 20.42 130.00 21.00 131.50 20.00 C 133.00 19.00 132.25 19.50 133.00 19.00" class="hole" fill="#ffffff" fill-rule="evenodd" />
    <path d="M 182.00 15.00 C 182.75 15.50 182.00 15.00 183.50 16.00 C 185.00 17.00 183.50 17.25 186.50 18.00 C 189.50 18.75 187.50 18.67 192.50 18.25 C 197.50 17.83 196.58 17.08 201.50 16.75 C 206.42 16.42 204.50 16.25 207.25 17.25 C 210.00 18.25 209.08 17.92 209.75 19.75 C 210.42 21.58 210.58 20.58 209.25 22.75 C 207.92 24.92 209.08 24.58 205.75 26.25 C 202.42 27.92 204.58 27.42 199.25 27.75 C 193.92 28.08 195.25 26.75 189.75 27.25 C 184.25 27.75 186.58 27.08 182.75 29.25 C 178.92 31.42 180.50 31.33 178.25 33.75 C 176.00 36.17 176.75 35.25 176.00 36.50 C 175.25 37.75 175.25 37.08 176.00 37.50 C 176.75 37.92 176.00 37.83 178.25 37.75 C 180.50 37.67 179.58 37.08 182.75 37.25 C 185.92 37.42 184.25 37.08 187.75 38.25 C 191.25 39.42 190.25 38.67 193.25 40.75 C 196.25 42.83 195.08 41.58 196.75 44.50 C 198.42 47.42 197.92 46.33 198.25 49.50 C 198.58 52.67 198.75 51.17 197.75 54.00 C 196.75 56.83 197.17 55.58 195.25 58.00 C 193.33 60.42 194.42 59.33 192.00 61.25 C 189.58 63.17 191.00 62.50 188.00 63.75 C 185.00 65.00 186.67 64.58 183.00 65.00 C 179.33 65.42 180.33 65.33 177.00 65.00 C 173.67 64.67 175.00 65.00 173.00 64.00 C 171.00 63.00 172.00 63.33 171.00 62.00 C 170.00 60.67 170.33 61.33 170.00 60.00 C 169.67 58.67 169.42 59.50 170.00 58.00 C 170.58 56.50 170.00 57.33 171.75 55.50 C 173.50 53.67 173.17 54.00 175.25 52.50 C 177.33 51.00 176.42 51.50 178.00 51.00 C 179.58 50.50 178.83 50.58 180.00 51.00 C 181.17 51.42 180.67 51.00 181.50 52.25 C 182.33 53.50 181.50 53.83 182.50 54.75 C 183.50 55.67 182.83 55.58 184.50 55.00 C 186.17 54.42 186.08 54.42 187.50 53.00 C 188.92 51.58 188.50 52.33 188.75 50.75 C 189.00 49.17 189.92 49.50 188.25 48.25 C 186.58 47.00 188.08 47.42 183.75 47.00 C 179.42 46.58 179.83 47.33 175.25 47.00 C 170.67 46.67 172.42 47.00 170.00 46.00 C 167.58 45.00 169.00 45.67 168.00 44.00 C 167.00 42.33 167.33 43.33 167.00 41.00 C 166.67 38.67 166.25 40.17 167.00 37.00 C 167.75 33.83 167.00 35.67 169.25 31.50 C 171.50 27.33 171.50 28.00 173.75 24.50 C 176.00 21.00 174.88 22.75 176.00 21.00" class="hole" fill="#ffffff" fill-rule="evenodd" />
    <path d="M 37.00 15.00 C 37.88 14.88 37.00 15.00 38.75 14.75 C 40.50 14.50 39.83 14.25 42.25 14.25 C 44.67 14.25 43.42 14.08 46.00 14.75 C 48.58 15.42 47.58 15.00 50.00 16.25 C 52.42 17.50 51.33 16.75 53.25 18.50 C 55.17 20.25 54.50 19.33 55.75 21.50 C 57.00 23.67 56.58 22.50 57.00 25.00 C 57.42 27.50 57.58 25.75 57.00 29.00 C 56.42 32.25 57.00 30.33 55.25 34.75 C 53.50 39.17 54.67 37.42 51.75 42.25 C 48.83 47.08 50.58 44.75 46.50 49.25 C 42.42 53.75 41.00 52.83 39.50 55.75 C 38.00 58.67 37.17 57.92 42.00 58.00 C 46.83 58.08 47.67 56.42 54.00 56.00 C 60.33 55.58 58.00 55.33 61.00 56.75 C 64.00 58.17 62.33 58.00 63.00 60.25 C 63.67 62.50 63.67 61.42 63.00 63.50 C 62.33 65.58 62.92 65.17 61.00 66.50 C 59.08 67.83 60.33 67.50 57.25 67.50 C 54.17 67.50 57.08 66.50 51.75 66.50 C 46.42 66.50 49.92 66.17 41.25 67.50 C 32.58 68.83 34.00 69.17 25.75 70.50 C 17.50 71.83 20.58 71.50 16.50 71.50 C 12.42 71.50 14.92 71.67 13.50 70.50 C 12.08 69.33 12.50 70.17 12.25 68.00 C 12.00 65.83 11.67 66.17 12.75 64.00 C 13.83 61.83 12.92 62.67 15.50 61.50 C 18.08 60.33 17.33 61.50 20.50 60.50 C 23.67 59.50 22.17 60.17 25.00 58.50 C 27.83 56.83 26.33 57.67 29.00 55.50 C 31.67 53.33 30.33 54.50 33.00 52.00 C 35.67 49.50 34.25 51.42 37.00 48.00 C 39.75 44.58 38.33 46.67 41.25 41.75 C 44.17 36.83 43.67 38.00 45.75 33.25 C 47.83 28.50 47.25 30.42 47.50 27.50 C 47.75 24.58 47.67 26.08 46.50 24.50 C 45.33 22.92 46.17 23.50 44.00 22.75 C 41.83 22.00 42.92 22.08 40.00 22.25 C 37.08 22.42 38.67 22.08 35.25 23.25 C 31.83 24.42 32.75 24.08 29.75 25.75 C 26.75 27.42 27.92 26.58 26.25 28.25 C 24.58 29.92 26.08 29.42 24.75 30.75 C 23.42 32.08 24.25 31.58 22.25 32.25 C 20.25 32.92 20.67 33.08 18.75 32.75 C 16.83 32.42 17.58 32.92 16.50 31.25 C 15.42 29.58 15.50 30.00 15.50 27.75 C 15.50 25.50 15.17 26.58 16.50 24.50 C 17.83 22.42 17.00 23.42 19.50 21.50 C 22.00 19.58 20.50 20.50 24.00 18.75 C 27.50 17.00 27.00 17.50 30.00 16.25 C 33.00 15.00 31.50 15.62 33.00 15.00" class="hole" fill="#ffffff" fill-rule="evenodd" />
  </g>
</svg>