<?xml version='1.0' encoding='utf-8'?>
<svg xmlns="http://www.w3.org/2000/svg" version="1.1" width="400" height="175" viewBox="0 0 400 175" style="background: transparent;">
  <defs>
    <style>
        .handwriting {
            fill: none;
            stroke: #e5f3ee;
            stroke-width: 2.00;
            stroke-linecap: round;
            stroke-linejoin: round;
            stroke-opacity: 0.95;
        }
        .hole {
            fill: #e5f3ee;
            stroke: none;
            opacity: 0.95;
        }
    </style>
  </defs>
  <g class="handwriting">
    <path d="M 87.00 99.00 C 87.75 98.88 87.00 99.00 88.50 98.75 C 90.00 98.50 89.83 98.33 91.50 98.25 C 93.17 98.17 92.50 98.08 93.50 98.50 C 94.50 98.92 94.50 98.50 94.50 99.50 C 94.50 100.50 94.83 99.83 93.50 101.50 C 92.17 103.17 92.67 103.00 90.50 104.50 C 88.33 106.00 89.50 105.50 87.00 106.00 C 84.50 106.50 85.17 106.17 83.00 106.00 C 80.83 105.83 81.67 106.00 80.50 105.50 C 79.33 105.00 79.50 105.42 79.50 104.50 C 79.50 103.58 79.17 104.17 80.50 102.75 C 81.83 101.33 82.00 101.50 83.50 100.25 C 85.00 99.00 84.25 99.62 85.00 99.00" class="hole" fill="#e5f3ee" fill-rule="evenodd" />
    <path d="M 323.00 85.00 C 323.62 85.38 323.00 85.00 324.25 85.75 C 325.50 86.50 325.67 86.33 326.75 87.25 C 327.83 88.17 327.58 87.75 327.50 88.50 C 327.42 89.25 327.42 89.00 326.50 89.50 C 325.58 90.00 326.17 89.83 324.75 90.00 C 323.33 90.17 323.58 90.17 322.25 90.00 C 320.92 89.83 321.42 90.00 320.75 89.50 C 320.08 89.00 320.50 89.00 320.25 88.50 C 320.00 88.00 320.12 88.25 320.00 88.00" class="hole" fill="#e5f3ee" fill-rule="evenodd" />
    <path d="M 326.00 68.00 C 326.50 68.00 326.00 68.00 327.00 68.00 C 328.00 68.00 327.75 67.58 329.00 68.00 C 330.25 68.42 329.67 68.00 330.75 69.25 C 331.83 70.50 331.67 69.58 332.25 71.75 C 332.83 73.92 332.75 72.58 332.50 75.75 C 332.25 78.92 332.25 78.33 331.50 81.25 C 330.75 84.17 331.17 83.08 330.25 84.50 C 329.33 85.92 329.75 85.17 328.75 85.50 C 327.75 85.83 328.25 85.83 327.25 85.50 C 326.25 85.17 326.50 85.67 325.75 84.50 C 325.00 83.33 325.25 84.17 325.00 82.00 C 324.75 79.83 325.83 79.00 325.00 78.00 C 324.17 77.00 325.00 76.67 322.50 79.00 C 320.00 81.33 320.33 81.25 317.50 85.00 C 314.67 88.75 315.83 87.00 314.00 90.25 C 312.17 93.50 311.50 92.83 312.00 94.75 C 312.50 96.67 311.33 96.25 315.50 96.00 C 319.67 95.75 319.42 94.92 324.50 94.00 C 329.58 93.08 327.50 93.33 330.75 93.25 C 334.00 93.17 332.17 94.00 334.25 93.75 C 336.33 93.50 335.42 93.92 337.00 92.50 C 338.58 91.08 336.75 91.42 339.00 89.50 C 341.25 87.58 339.67 88.50 343.75 86.75 C 347.83 85.00 346.67 85.42 351.25 84.25 C 355.83 83.08 353.75 83.42 357.50 83.25 C 361.25 83.08 359.58 82.92 362.50 83.75 C 365.42 84.58 364.17 83.92 366.25 85.75 C 368.33 87.58 367.92 86.75 368.75 89.25 C 369.58 91.75 369.58 90.42 368.75 93.25 C 367.92 96.08 368.25 94.92 366.25 97.75 C 364.25 100.58 365.42 99.25 362.75 101.75 C 360.08 104.25 361.58 103.17 358.25 105.25 C 354.92 107.33 356.75 106.42 352.75 108.00 C 348.75 109.58 349.75 109.08 346.25 110.00 C 342.75 110.92 344.08 110.67 342.25 110.75 C 340.42 110.83 341.58 110.25 340.75 110.25 C 339.92 110.25 340.25 110.08 339.75 110.75 C 339.25 111.42 338.58 110.92 339.25 112.25 C 339.92 113.58 339.08 112.75 341.75 114.75 C 344.42 116.75 343.50 116.50 347.25 118.25 C 351.00 120.00 349.08 119.42 353.00 120.00 C 356.92 120.58 355.17 120.33 359.00 120.00 C 362.83 119.67 361.00 120.00 364.50 119.00 C 368.00 118.00 366.67 118.00 369.50 117.00 C 372.33 116.00 371.17 116.33 373.00 116.00 C 374.83 115.67 373.83 115.67 375.00 116.00 C 376.17 116.33 375.67 116.00 376.50 117.00 C 377.33 118.00 377.67 117.58 377.50 119.00 C 377.33 120.42 377.83 119.67 376.00 121.25 C 374.17 122.83 375.75 122.25 372.00 123.75 C 368.25 125.25 370.67 124.58 364.75 125.75 C 358.83 126.92 360.33 126.83 354.25 127.25 C 348.17 127.67 350.75 127.75 346.50 127.00 C 342.25 126.25 344.67 126.67 341.50 125.00 C 338.33 123.33 339.83 124.33 337.00 122.00 C 334.17 119.67 335.17 120.50 333.00 118.00 C 330.83 115.50 331.67 116.67 330.50 114.50 C 329.33 112.33 329.92 113.83 329.50 111.50 C 329.08 109.17 329.17 110.50 329.25 107.50 C 329.33 104.50 331.33 104.58 329.75 102.50 C 328.17 100.42 329.92 100.83 324.50 101.25 C 319.08 101.67 319.25 102.17 313.50 103.75 C 307.75 105.33 309.83 104.58 307.25 106.00 C 304.67 107.42 306.67 105.83 305.75 108.00 C 304.83 110.17 305.25 108.67 304.50 112.50 C 303.75 116.33 303.92 115.25 303.50 119.50 C 303.08 123.75 303.17 121.83 303.25 125.25 C 303.33 128.67 303.08 127.08 303.75 129.75 C 304.42 132.42 303.92 131.25 305.25 133.25 C 306.58 135.25 306.58 133.92 307.75 135.75 C 308.92 137.58 308.58 136.58 308.75 138.75 C 308.92 140.92 308.75 140.33 308.25 142.25 C 307.75 144.17 308.08 143.42 307.25 144.50 C 306.42 145.58 307.00 145.25 305.75 145.50 C 304.50 145.75 305.25 145.83 303.50 145.25 C 301.75 144.67 302.25 145.25 300.50 143.75 C 298.75 142.25 299.50 143.25 298.25 140.75 C 297.00 138.25 297.58 139.83 296.75 136.25 C 295.92 132.67 296.25 134.75 295.75 130.00 C 295.25 125.25 295.25 126.83 295.25 122.00 C 295.25 117.17 295.08 119.33 295.75 115.50 C 296.42 111.67 296.83 113.25 297.25 110.50 C 297.67 107.75 297.75 108.83 297.00 107.25 C 296.25 105.67 296.00 106.75 295.00 105.75 C 294.00 104.75 294.33 105.25 294.00 104.25 C 293.67 103.25 293.83 103.75 294.00 102.75 C 294.17 101.75 294.00 102.25 294.50 101.25 C 295.00 100.25 294.42 100.67 295.50 99.75 C 296.58 98.83 295.83 99.25 297.75 98.50 C 299.67 97.75 298.67 99.58 301.25 97.50 C 303.83 95.42 302.42 97.17 305.50 92.25 C 308.58 87.33 307.00 88.33 310.50 82.75 C 314.00 77.17 312.17 79.58 316.00 75.50 C 319.83 71.42 319.00 73.00 322.00 70.50 C 325.00 68.00 323.50 69.25 325.00 68.00" class="hole" fill="#e5f3ee" fill-rule="evenodd" />
    <path d="M 275.00 82.00 C 275.75 82.25 275.00 82.00 276.50 82.50 C 278.00 83.00 278.25 82.33 279.50 83.50 C 280.75 84.67 280.50 83.83 280.25 86.00 C 280.00 88.17 279.50 87.25 278.75 90.00 C 278.00 92.75 278.25 91.33 278.00 94.25 C 277.75 97.17 277.50 96.33 278.00 98.75 C 278.50 101.17 278.00 100.25 279.50 101.50 C 281.00 102.75 281.00 101.58 282.50 102.50 C 284.00 103.42 283.50 102.83 284.00 104.25 C 284.50 105.67 284.25 105.25 284.00 106.75 C 283.75 108.25 284.00 107.58 283.25 108.75 C 282.50 109.92 282.83 109.50 281.75 110.25 C 280.67 111.00 281.25 110.75 280.00 111.00 C 278.75 111.25 279.50 111.42 278.00 111.00 C 276.50 110.58 277.33 111.00 275.50 109.75 C 273.67 108.50 274.17 109.08 272.50 107.25 C 270.83 105.42 271.50 106.42 270.50 104.25 C 269.50 102.08 269.83 103.58 269.50 100.75 C 269.17 97.92 269.17 99.58 269.50 95.75 C 269.83 91.92 270.00 92.50 270.50 89.25 C 271.00 86.00 270.75 87.62 271.00 86.00" class="hole" fill="#e5f3ee" fill-rule="evenodd" />
    <path d="M 266.00 73.00 C 267.00 73.62 266.00 73.00 268.00 74.25 C 270.00 75.50 270.67 74.67 272.00 76.75 C 273.33 78.83 273.33 77.58 272.00 80.50 C 270.67 83.42 270.00 84.08 268.00 85.50 C 266.00 86.92 266.67 87.17 266.00 84.75 C 265.33 82.33 266.00 81.50 266.00 78.25 C 266.00 75.00 266.00 76.62 266.00 75.00" class="hole" fill="#e5f3ee" fill-rule="evenodd" />
    <path d="M 280.00 55.00 C 280.88 54.88 280.00 55.00 281.75 54.75 C 283.50 54.50 282.92 53.83 285.25 54.25 C 287.58 54.67 286.42 54.08 288.75 56.00 C 291.08 57.92 290.67 57.25 292.25 60.00 C 293.83 62.75 293.42 61.33 293.50 64.25 C 293.58 67.17 293.67 66.17 292.50 68.75 C 291.33 71.33 292.17 70.25 290.00 72.00 C 287.83 73.75 288.42 73.25 286.00 74.00 C 283.58 74.75 284.67 74.67 282.75 74.25 C 280.83 73.83 281.50 73.75 280.25 72.75 C 279.00 71.75 279.42 72.25 279.00 71.25 C 278.58 70.25 278.42 70.92 279.00 69.75 C 279.58 68.58 279.00 69.25 280.75 67.75 C 282.50 66.25 282.58 66.67 284.25 65.25 C 285.92 63.83 285.42 64.42 285.75 63.50 C 286.08 62.58 285.83 63.00 285.25 62.50 C 284.67 62.00 285.08 62.17 284.00 62.00 C 282.92 61.83 283.33 61.67 282.00 62.00 C 280.67 62.33 281.33 62.00 280.00 63.00 C 278.67 64.00 278.83 63.58 278.00 65.00 C 277.17 66.42 277.33 65.67 277.50 67.25 C 277.67 68.83 278.17 68.17 278.50 69.75 C 278.83 71.33 278.83 70.58 278.50 72.00 C 278.17 73.42 278.50 73.25 277.50 74.00 C 276.50 74.75 277.17 74.67 275.50 74.25 C 273.83 73.83 274.00 74.42 272.50 72.75 C 271.00 71.08 271.50 72.25 271.00 69.25 C 270.50 66.25 270.33 67.00 271.00 63.75 C 271.67 60.50 271.00 61.92 273.00 59.50 C 275.00 57.08 275.00 58.00 277.00 56.50 C 279.00 55.00 278.00 55.75 279.00 55.00" class="hole" fill="#e5f3ee" fill-rule="evenodd" />
    <path d="M 261.00 26.00 C 261.50 26.00 261.00 26.00 262.00 26.00 C 263.00 26.00 262.75 25.75 264.00 26.00 C 265.25 26.25 264.67 26.00 265.75 26.75 C 266.83 27.50 267.33 21.17 267.25 28.25 C 267.17 35.33 267.75 28.75 265.50 48.00 C 263.25 67.25 263.00 66.67 260.50 86.00 C 258.00 105.33 258.83 98.67 258.00 106.00 C 257.17 113.33 257.67 106.67 258.00 108.00 C 258.33 109.33 258.00 108.67 259.00 110.00 C 260.00 111.33 260.08 110.75 261.00 112.00 C 261.92 113.25 261.67 112.67 261.75 113.75 C 261.83 114.83 262.00 114.08 261.25 115.25 C 260.50 116.42 261.08 115.75 259.50 117.25 C 257.92 118.75 258.50 118.75 256.50 119.75 C 254.50 120.75 255.50 120.58 253.50 120.25 C 251.50 119.92 251.17 127.00 250.50 118.75 C 249.83 110.50 249.50 118.25 251.50 95.50 C 253.50 72.75 254.00 73.00 256.50 50.50 C 259.00 28.00 257.75 39.25 259.00 28.00" class="hole" fill="#e5f3ee" fill-rule="evenodd" />
    <path d="M 165.00 87.00 C 165.88 86.88 165.00 87.00 166.75 86.75 C 168.50 86.50 167.75 85.92 170.25 86.25 C 172.75 86.58 171.42 86.08 174.25 87.75 C 177.08 89.42 176.42 88.25 178.75 91.25 C 181.08 94.25 180.25 92.42 181.25 96.75 C 182.25 101.08 181.08 100.33 181.75 104.25 C 182.42 108.17 181.92 106.75 183.25 108.50 C 184.58 110.25 184.58 108.67 185.75 109.50 C 186.92 110.33 186.58 109.83 186.75 111.00 C 186.92 112.17 187.08 111.50 186.25 113.00 C 185.42 114.50 186.08 113.67 184.25 115.50 C 182.42 117.33 183.58 116.67 180.75 118.50 C 177.92 120.33 179.58 119.50 175.75 121.00 C 171.92 122.50 173.17 122.08 169.25 123.00 C 165.33 123.92 167.08 123.67 164.00 123.75 C 160.92 123.83 162.58 124.17 160.00 123.25 C 157.42 122.33 158.67 123.08 156.25 121.00 C 153.83 118.92 154.25 119.83 152.75 117.00 C 151.25 114.17 151.58 115.67 151.75 112.50 C 151.92 109.33 152.00 110.33 153.25 107.50 C 154.50 104.67 153.75 105.83 155.50 104.00 C 157.25 102.17 157.25 103.58 158.50 102.00 C 159.75 100.42 159.50 101.33 159.25 99.25 C 159.00 97.17 157.92 98.08 157.75 95.75 C 157.58 93.42 157.25 94.58 158.75 92.25 C 160.25 89.92 160.50 90.50 162.25 88.75 C 164.00 87.00 163.12 87.88 164.00 87.00" class="hole" fill="#e5f3ee" fill-rule="evenodd" />
    <path d="M 42.00 40.00 C 42.62 40.00 42.00 40.00 43.25 40.00 C 44.50 40.00 44.33 39.75 45.75 40.00 C 47.17 40.25 46.58 40.00 47.50 40.75 C 48.42 41.50 47.92 39.50 48.50 42.25 C 49.08 45.00 48.83 42.75 49.25 49.00 C 49.67 55.25 49.00 53.42 49.75 61.00 C 50.50 68.58 49.92 65.00 51.50 71.75 C 53.08 78.50 53.00 75.67 54.50 81.25 C 56.00 86.83 55.50 84.42 56.00 88.50 C 56.50 92.58 55.92 90.83 56.00 93.50 C 56.08 96.17 56.00 95.17 56.25 96.50 C 56.50 97.83 56.17 97.17 56.75 97.50 C 57.33 97.83 56.92 97.83 58.00 97.50 C 59.08 97.17 58.67 96.83 60.00 96.50 C 61.33 96.17 60.67 96.17 62.00 96.50 C 63.33 96.83 63.25 96.50 64.00 97.50 C 64.75 98.50 64.67 97.83 64.25 99.50 C 63.83 101.17 63.83 101.00 62.75 102.50 C 61.67 104.00 62.25 103.50 61.00 104.00 C 59.75 104.50 59.83 103.17 59.00 104.00 C 58.17 104.83 58.33 104.00 58.50 106.50 C 58.67 109.00 59.58 108.75 59.50 111.50 C 59.42 114.25 59.83 113.17 58.25 114.75 C 56.67 116.33 56.75 115.67 54.75 116.25 C 52.75 116.83 53.58 116.75 52.25 116.50 C 50.92 116.25 51.75 116.75 50.75 115.50 C 49.75 114.25 50.25 115.17 49.25 112.75 C 48.25 110.33 49.25 110.50 47.75 108.25 C 46.25 106.00 47.25 106.75 44.75 106.00 C 42.25 105.25 43.00 104.25 40.25 106.00 C 37.50 107.75 38.75 106.00 36.50 111.25 C 34.25 116.50 35.33 116.33 33.50 121.75 C 31.67 127.17 32.50 125.25 31.00 127.50 C 29.50 129.75 30.42 128.33 29.00 128.50 C 27.58 128.67 28.33 128.83 26.75 128.00 C 25.17 127.17 24.92 128.42 24.25 126.00 C 23.58 123.58 23.42 125.33 24.75 120.75 C 26.08 116.17 26.67 117.08 28.25 112.25 C 29.83 107.42 29.42 109.42 29.50 106.25 C 29.58 103.08 28.50 104.83 28.50 102.75 C 28.50 100.67 28.17 101.58 29.50 100.00 C 30.83 98.42 30.67 100.42 32.50 98.00 C 34.33 95.58 33.50 97.33 35.00 92.75 C 36.50 88.17 35.75 90.25 37.00 84.25 C 38.25 78.25 37.67 81.42 38.75 74.75 C 39.83 68.08 39.58 70.92 40.25 64.25 C 40.92 57.58 40.75 60.75 40.75 54.75 C 40.75 48.75 40.50 50.50 40.25 46.25 C 40.00 42.00 40.12 44.12 40.00 42.00" class="hole" fill="#e5f3ee" fill-rule="evenodd" />
    <path d="M 203.00 24.00 C 203.25 23.88 203.00 24.00 203.50 23.75 C 204.00 23.50 203.58 23.17 204.50 23.25 C 205.42 23.33 204.83 23.08 206.25 24.00 C 207.67 24.92 207.83 23.50 208.75 26.00 C 209.67 28.50 209.58 26.67 209.00 31.50 C 208.42 36.33 208.00 31.92 207.00 40.50 C 206.00 49.08 206.33 43.50 206.00 57.25 C 205.67 71.00 206.25 68.42 206.00 81.75 C 205.75 95.08 206.00 89.92 205.25 97.25 C 204.50 104.58 204.25 99.92 203.75 103.75 C 203.25 107.58 203.25 105.92 203.75 108.75 C 204.25 111.58 204.75 110.17 205.25 112.25 C 205.75 114.33 205.75 113.42 205.25 115.00 C 204.75 116.58 204.92 116.00 203.75 117.00 C 202.58 118.00 203.25 117.67 201.75 118.00 C 200.25 118.33 200.92 117.67 199.25 118.00 C 197.58 118.33 198.42 118.00 196.75 119.00 C 195.08 120.00 195.83 120.17 194.25 121.00 C 192.67 121.83 193.42 121.67 192.00 121.50 C 190.58 121.33 191.00 121.58 190.00 120.50 C 189.00 119.42 189.33 120.17 189.00 118.25 C 188.67 116.33 188.58 116.75 189.00 114.75 C 189.42 112.75 189.00 113.58 190.25 112.25 C 191.50 110.92 191.33 112.17 192.75 110.75 C 194.17 109.33 193.58 110.25 194.50 108.00 C 195.42 105.75 194.83 111.17 195.50 104.00 C 196.17 96.83 195.83 102.67 196.50 86.50 C 197.17 70.33 196.67 72.33 197.50 55.50 C 198.33 38.67 197.83 45.17 199.00 36.00 C 200.17 26.83 200.00 32.00 201.00 28.00 C 202.00 24.00 201.50 26.00 202.00 24.00" class="hole" fill="#e5f3ee" fill-rule="evenodd" />
    <path d="M 114.00 17.00 C 114.75 17.38 114.00 17.00 115.50 17.75 C 117.00 18.50 117.00 17.83 118.50 19.25 C 120.00 20.67 119.50 19.75 120.00 22.00 C 120.50 24.25 120.50 22.58 120.00 26.00 C 119.50 29.42 120.00 27.33 118.50 32.25 C 117.00 37.17 117.25 33.00 115.50 40.75 C 113.75 48.50 114.50 43.58 113.25 55.50 C 112.00 67.42 111.58 66.17 111.75 76.50 C 111.92 86.83 111.25 83.50 113.75 86.50 C 116.25 89.50 115.58 86.58 119.25 85.50 C 122.92 84.42 121.08 85.17 124.75 83.25 C 128.42 81.33 127.17 81.08 130.25 79.75 C 133.33 78.42 132.08 78.58 134.00 79.25 C 135.92 79.92 135.42 80.00 136.00 81.75 C 136.58 83.50 136.67 82.58 135.75 84.50 C 134.83 86.42 134.75 85.25 133.25 87.50 C 131.75 89.75 132.42 88.50 131.25 91.25 C 130.08 94.00 130.50 92.92 129.75 95.75 C 129.00 98.58 129.25 97.25 129.00 99.75 C 128.75 102.25 128.67 101.33 129.00 103.25 C 129.33 105.17 129.00 104.42 130.00 105.50 C 131.00 106.58 130.33 106.83 132.00 106.50 C 133.67 106.17 132.67 106.83 135.00 104.50 C 137.33 102.17 137.08 102.83 139.00 99.50 C 140.92 96.17 140.33 97.83 140.75 94.50 C 141.17 91.17 140.08 92.25 140.25 89.50 C 140.42 86.75 140.08 87.83 141.25 86.25 C 142.42 84.67 142.08 85.00 143.75 84.75 C 145.42 84.50 144.58 84.25 146.25 85.50 C 147.92 86.75 147.58 86.17 148.75 88.50 C 149.92 90.83 149.58 89.50 149.75 92.50 C 149.92 95.50 149.83 94.50 149.25 97.50 C 148.67 100.50 149.08 99.17 148.00 101.50 C 146.92 103.83 148.00 102.17 146.00 104.50 C 144.00 106.83 145.33 105.50 142.00 108.50 C 138.67 111.50 139.58 111.08 136.00 113.50 C 132.42 115.92 134.00 115.17 131.25 115.75 C 128.50 116.33 129.92 115.92 127.75 115.25 C 125.58 114.58 126.58 115.08 124.75 113.75 C 122.92 112.42 123.58 113.58 122.25 111.25 C 120.92 108.92 121.42 110.42 120.75 106.75 C 120.08 103.08 120.33 103.92 120.25 100.25 C 120.17 96.58 120.08 98.08 120.50 95.75 C 120.92 93.42 121.17 94.50 121.50 93.25 C 121.83 92.00 121.83 92.42 121.50 92.00 C 121.17 91.58 121.75 91.75 120.50 92.00 C 119.25 92.25 120.17 92.00 117.75 92.75 C 115.33 93.50 115.50 92.00 113.25 94.25 C 111.00 96.50 111.75 94.75 111.00 99.50 C 110.25 104.25 111.50 103.67 111.00 108.50 C 110.50 113.33 111.00 111.50 109.50 114.00 C 108.00 116.50 108.25 115.25 106.50 116.00 C 104.75 116.75 105.50 116.67 104.25 116.25 C 103.00 115.83 103.42 116.00 102.75 114.75 C 102.08 113.50 102.25 114.25 102.25 112.50 C 102.25 110.75 103.25 110.33 102.75 109.50 C 102.25 108.67 102.92 108.50 100.75 110.00 C 98.58 111.50 99.25 111.83 96.25 114.00 C 93.25 116.17 94.75 115.33 91.75 116.50 C 88.75 117.67 90.42 117.08 87.25 117.50 C 84.08 117.92 85.75 117.83 82.25 117.75 C 78.75 117.67 80.17 118.08 76.75 117.25 C 73.33 116.42 74.92 117.08 72.00 115.25 C 69.08 113.42 70.08 114.17 68.00 111.75 C 65.92 109.33 66.67 110.58 65.75 108.00 C 64.83 105.42 65.33 106.42 65.25 104.00 C 65.17 101.58 65.08 102.67 65.50 100.75 C 65.92 98.83 65.25 100.17 66.50 98.25 C 67.75 96.33 66.83 97.42 69.25 95.00 C 71.67 92.58 70.25 93.42 73.75 91.00 C 77.25 88.58 75.25 89.67 79.75 87.75 C 84.25 85.83 82.42 86.25 87.25 85.25 C 92.08 84.25 89.75 84.42 94.25 84.75 C 98.75 85.08 97.50 88.08 100.75 86.25 C 104.00 84.42 102.92 86.75 104.00 79.25 C 105.08 71.75 103.42 74.50 104.00 63.75 C 104.58 53.00 104.00 58.58 105.75 47.00 C 107.50 35.42 107.50 38.00 109.25 29.00 C 111.00 20.00 110.12 24.50 111.00 20.00" class="hole" fill="#e5f3ee" fill-rule="evenodd" />
  </g>
</svg>