<?xml version='1.0' encoding='utf-8'?>
<svg xmlns="http://www.w3.org/2000/svg" version="1.1" width="212" height="123" viewBox="0 0 212 123" style="background: transparent;">
  <defs>
    <style>
        .handwriting {
            fill: none;
            stroke: #dbeee7;
            stroke-width: 2.00;
            stroke-linecap: round;
            stroke-linejoin: round;
            stroke-opacity: 0.95;
        }
        .hole {
            fill: #dbeee7;
            stroke: none;
            opacity: 0.95;
        }
    </style>
  </defs>
  <g class="handwriting">
    <path d="M 146.00 39.00 C 146.38 38.88 146.00 39.00 146.75 38.75 C 147.50 38.50 147.33 38.00 148.25 38.25 C 149.17 38.50 148.75 38.08 149.50 39.50 C 150.25 40.92 149.50 41.42 150.50 42.50 C 151.50 43.58 150.83 43.50 152.50 42.75 C 154.17 42.00 153.42 41.50 155.50 40.25 C 157.58 39.00 156.50 39.42 158.75 39.00 C 161.00 38.58 160.00 38.50 162.25 39.00 C 164.50 39.50 163.42 39.00 165.50 40.50 C 167.58 42.00 167.00 40.08 168.50 43.50 C 170.00 46.92 169.50 44.50 170.00 50.75 C 170.50 57.00 169.42 56.75 170.00 62.25 C 170.58 67.75 170.00 66.08 171.75 67.25 C 173.50 68.42 173.33 66.17 175.25 65.75 C 177.17 65.33 176.42 65.25 177.50 66.00 C 178.58 66.75 178.33 66.50 178.50 68.00 C 178.67 69.50 178.83 68.67 178.00 70.50 C 177.17 72.33 177.50 71.83 176.00 73.50 C 174.50 75.17 175.33 74.50 173.50 75.50 C 171.67 76.50 172.42 76.00 170.50 76.50 C 168.58 77.00 169.50 76.83 167.75 77.00 C 166.00 77.17 166.75 77.42 165.25 77.00 C 163.75 76.58 164.42 77.00 163.25 75.75 C 162.08 74.50 162.33 76.33 161.75 73.25 C 161.17 70.17 161.25 72.42 161.50 66.50 C 161.75 60.58 162.17 61.25 162.50 55.50 C 162.83 49.75 162.83 51.83 162.50 49.25 C 162.17 46.67 162.67 48.17 161.50 47.75 C 160.33 47.33 161.17 47.25 159.00 48.00 C 156.83 48.75 157.42 48.08 155.00 50.00 C 152.58 51.92 153.67 50.67 151.75 53.75 C 149.83 56.83 151.00 56.25 149.25 59.25 C 147.50 62.25 148.42 61.08 146.50 62.75 C 144.58 64.42 145.33 63.83 143.50 64.25 C 141.67 64.67 142.50 64.75 141.00 64.00 C 139.50 63.25 139.67 64.58 139.00 62.00 C 138.33 59.42 138.33 61.33 139.00 56.25 C 139.67 51.17 139.75 51.75 141.00 46.75 C 142.25 41.75 141.67 43.58 142.75 41.25 C 143.83 38.92 143.50 40.50 144.25 39.75 C 145.00 39.00 144.62 39.38 145.00 39.00" class="hole" fill="#dbeee7" fill-rule="evenodd" />
    <path d="M 86.00 42.00 C 86.25 42.50 86.00 42.00 86.50 43.00 C 87.00 44.00 87.25 43.83 87.50 45.00 C 87.75 46.17 87.83 45.67 87.25 46.50 C 86.67 47.33 86.58 47.33 85.75 47.50 C 84.92 47.67 85.25 47.83 84.75 47.00 C 84.25 46.17 84.50 46.00 84.25 45.00 C 84.00 44.00 84.12 44.50 84.00 44.00" class="hole" fill="#dbeee7" fill-rule="evenodd" />
    <path d="M 121.00 40.00 C 121.88 40.25 121.00 40.00 122.75 40.50 C 124.50 41.00 124.83 39.17 126.25 41.50 C 127.67 43.83 127.42 41.83 127.00 47.50 C 126.58 53.17 125.67 52.92 125.00 58.50 C 124.33 64.08 124.33 62.17 125.00 64.25 C 125.67 66.33 125.83 64.08 127.00 64.75 C 128.17 65.42 127.67 64.92 128.50 66.25 C 129.33 67.58 129.67 67.08 129.50 68.75 C 129.33 70.42 129.83 69.58 128.00 71.25 C 126.17 72.92 126.42 73.08 124.00 73.75 C 121.58 74.42 122.67 74.58 120.75 73.25 C 118.83 71.92 119.33 73.67 118.25 69.75 C 117.17 65.83 117.42 68.58 117.50 61.50 C 117.58 54.42 118.00 55.00 118.50 48.50 C 119.00 42.00 118.75 45.25 119.00 42.00" class="hole" fill="#dbeee7" fill-rule="evenodd" />
    <path d="M 77.00 35.00 C 77.75 35.62 77.00 35.00 78.50 36.25 C 80.00 37.50 80.50 36.58 81.50 38.75 C 82.50 40.92 82.50 39.58 81.50 42.75 C 80.50 45.92 80.08 43.17 78.50 48.25 C 76.92 53.33 77.50 50.08 76.75 58.00 C 76.00 65.92 76.83 63.83 76.25 72.00 C 75.67 80.17 76.08 76.67 75.00 82.50 C 73.92 88.33 74.33 85.58 73.00 89.50 C 71.67 93.42 72.33 91.83 71.00 94.25 C 69.67 96.67 70.75 94.92 69.00 96.75 C 67.25 98.58 68.33 97.58 65.75 99.75 C 63.17 101.92 64.17 101.42 61.25 103.25 C 58.33 105.08 59.75 104.42 57.00 105.25 C 54.25 106.08 55.58 105.75 53.00 105.75 C 50.42 105.75 51.67 105.92 49.25 105.25 C 46.83 104.58 47.92 104.92 45.75 103.75 C 43.58 102.58 44.58 103.25 42.75 101.75 C 40.92 100.25 41.67 101.00 40.25 99.25 C 38.83 97.50 39.42 98.42 38.50 96.50 C 37.58 94.58 37.75 95.58 37.50 93.50 C 37.25 91.42 37.17 92.50 37.75 90.25 C 38.33 88.00 38.00 88.75 39.25 86.75 C 40.50 84.75 39.75 85.58 41.50 84.25 C 43.25 82.92 42.83 83.33 44.50 82.75 C 46.17 82.17 45.50 82.25 46.50 82.50 C 47.50 82.75 47.33 82.42 47.50 83.50 C 47.67 84.58 47.83 83.83 47.00 85.75 C 46.17 87.67 45.83 87.08 45.00 89.25 C 44.17 91.42 44.33 90.42 44.50 92.25 C 44.67 94.08 44.50 93.25 45.50 94.75 C 46.50 96.25 45.83 95.58 47.50 96.75 C 49.17 97.92 48.58 97.58 50.50 98.25 C 52.42 98.92 51.50 98.75 53.25 98.75 C 55.00 98.75 54.08 98.92 55.75 98.25 C 57.42 97.58 56.58 98.08 58.25 96.75 C 59.92 95.42 59.08 96.25 60.75 94.25 C 62.42 92.25 61.58 93.42 63.25 90.75 C 64.92 88.08 64.25 91.00 65.75 86.25 C 67.25 81.50 66.58 84.75 67.75 76.50 C 68.92 68.25 69.42 68.75 69.25 61.50 C 69.08 54.25 69.75 56.50 67.25 54.75 C 64.75 53.00 64.92 55.83 61.75 56.25 C 58.58 56.67 59.92 56.75 57.75 56.00 C 55.58 55.25 56.58 55.42 55.25 54.00 C 53.92 52.58 54.42 53.33 53.75 51.75 C 53.08 50.17 52.92 51.25 53.25 49.25 C 53.58 47.25 53.08 48.42 54.75 45.75 C 56.42 43.08 56.00 43.75 58.25 41.25 C 60.50 38.75 59.42 39.75 61.50 38.25 C 63.58 36.75 62.67 37.50 64.50 36.75 C 66.33 36.00 65.50 36.25 67.00 36.00 C 68.50 35.75 67.75 35.58 69.00 36.00 C 70.25 36.42 69.67 36.00 70.75 37.25 C 71.83 38.50 71.42 38.75 72.25 39.75 C 73.08 40.75 72.75 40.58 73.25 40.25 C 73.75 39.92 73.50 39.50 73.75 38.75 C 74.00 38.00 73.88 38.38 74.00 38.00" class="hole" fill="#dbeee7" fill-rule="evenodd" />
    <path d="M 97.00 30.00 C 98.50 30.00 97.00 30.00 100.00 30.00 C 103.00 30.00 102.33 29.08 106.00 30.00 C 109.67 30.92 108.00 30.00 111.00 32.75 C 114.00 35.50 113.25 34.17 115.00 38.25 C 116.75 42.33 116.33 40.08 116.25 45.00 C 116.17 49.92 115.42 48.50 114.75 53.00 C 114.08 57.50 114.25 55.67 114.25 58.50 C 114.25 61.33 115.25 59.50 114.75 61.50 C 114.25 63.50 114.92 62.50 112.75 64.50 C 110.58 66.50 111.83 66.08 108.25 67.50 C 104.67 68.92 106.75 68.50 102.00 68.75 C 97.25 69.00 98.42 68.92 94.00 68.25 C 89.58 67.58 91.33 68.08 88.75 66.75 C 86.17 65.42 87.50 66.17 86.25 64.25 C 85.00 62.33 85.42 63.42 85.00 61.00 C 84.58 58.58 84.42 59.67 85.00 57.00 C 85.58 54.33 85.00 55.67 86.75 53.00 C 88.50 50.33 88.00 51.17 90.25 49.00 C 92.50 46.83 91.42 47.67 93.50 46.50 C 95.58 45.33 94.00 45.92 96.50 45.50 C 99.00 45.08 97.50 45.17 101.00 45.25 C 104.50 45.33 104.42 46.17 107.00 45.75 C 109.58 45.33 109.00 45.92 108.75 44.00 C 108.50 42.08 108.08 42.00 106.25 40.00 C 104.42 38.00 105.42 38.67 103.25 38.00 C 101.08 37.33 101.83 37.58 99.75 38.00 C 97.67 38.42 98.58 38.00 97.00 39.25 C 95.42 40.50 96.33 40.75 95.00 41.75 C 93.67 42.75 94.33 42.58 93.00 42.25 C 91.67 41.92 92.08 42.00 91.00 40.75 C 89.92 39.50 90.33 40.25 89.75 38.50 C 89.17 36.75 89.00 37.33 89.25 35.50 C 89.50 33.67 89.08 34.50 90.50 33.00 C 91.92 31.50 92.00 32.00 93.50 31.00 C 95.00 30.00 94.25 30.50 95.00 30.00" class="hole" fill="#dbeee7" fill-rule="evenodd" />
    <path d="M 31.00 26.00 C 32.12 25.88 31.00 26.00 33.25 25.75 C 35.50 25.50 34.75 24.83 37.75 25.25 C 40.75 25.67 39.25 25.08 42.25 27.00 C 45.25 28.92 44.33 28.58 46.75 31.00 C 49.17 33.42 48.25 32.33 49.50 34.25 C 50.75 36.17 50.00 34.08 50.50 36.75 C 51.00 39.42 50.83 37.58 51.00 42.25 C 51.17 46.92 50.58 46.25 51.00 50.75 C 51.42 55.25 51.00 53.58 52.25 55.75 C 53.50 57.92 54.00 56.00 54.75 57.25 C 55.50 58.50 55.58 57.75 54.50 59.50 C 53.42 61.25 54.33 60.50 51.50 62.50 C 48.67 64.50 50.50 63.50 46.00 65.50 C 41.50 67.50 42.83 67.00 38.00 68.50 C 33.17 70.00 35.33 69.50 31.50 70.00 C 27.67 70.50 29.67 70.67 26.50 70.00 C 23.33 69.33 24.83 70.00 22.00 68.00 C 19.17 66.00 19.83 66.75 18.00 64.00 C 16.17 61.25 16.67 62.67 16.50 59.75 C 16.33 56.83 16.42 58.00 17.50 55.25 C 18.58 52.50 17.83 53.75 19.75 51.50 C 21.67 49.25 20.75 50.33 23.25 48.50 C 25.75 46.67 24.42 47.50 27.25 46.00 C 30.08 44.50 28.67 45.00 31.75 44.00 C 34.83 43.00 33.25 43.33 36.50 43.00 C 39.75 42.67 39.25 43.58 41.50 43.00 C 43.75 42.42 43.17 43.00 43.25 41.25 C 43.33 39.50 42.83 39.75 41.75 37.75 C 40.67 35.75 41.25 36.58 40.00 35.25 C 38.75 33.92 39.50 34.42 38.00 33.75 C 36.50 33.08 37.33 33.25 35.50 33.25 C 33.67 33.25 34.42 32.92 32.50 33.75 C 30.58 34.58 31.50 33.92 29.75 35.75 C 28.00 37.58 28.92 37.75 27.25 39.25 C 25.58 40.75 26.42 40.42 24.75 40.25 C 23.08 40.08 23.58 39.92 22.25 38.75 C 20.92 37.58 21.42 38.25 20.75 36.75 C 20.08 35.25 19.83 36.08 20.25 34.25 C 20.67 32.42 20.08 33.42 22.00 31.25 C 23.92 29.08 24.00 29.50 26.00 27.75 C 28.00 26.00 27.00 26.88 28.00 26.00" class="hole" fill="#dbeee7" fill-rule="evenodd" />
    <path d="M 124.00 14.00 C 125.88 14.00 124.00 14.00 127.75 14.00 C 131.50 14.00 131.08 13.58 135.25 14.00 C 139.42 14.42 137.75 14.00 140.25 15.25 C 142.75 16.50 141.50 16.08 142.75 17.75 C 144.00 19.42 143.58 18.58 144.00 20.25 C 144.42 21.92 144.50 21.08 144.00 22.75 C 143.50 24.42 144.00 23.58 142.50 25.25 C 141.00 26.92 141.83 26.50 139.50 27.75 C 137.17 29.00 138.50 28.58 135.50 29.00 C 132.50 29.42 133.50 29.42 130.50 29.00 C 127.50 28.58 128.83 29.00 126.50 27.75 C 124.17 26.50 124.92 25.58 123.50 25.25 C 122.08 24.92 122.50 24.42 122.25 26.75 C 122.00 29.08 122.67 29.25 122.75 32.25 C 122.83 35.25 122.92 34.08 122.50 35.75 C 122.08 37.42 122.33 36.58 121.50 37.25 C 120.67 37.92 121.17 37.75 120.00 37.75 C 118.83 37.75 119.25 38.42 118.00 37.25 C 116.75 36.08 117.33 37.08 116.25 34.25 C 115.17 31.42 115.33 32.08 114.75 28.75 C 114.17 25.42 114.25 26.92 114.50 24.25 C 114.75 21.58 114.42 22.92 115.50 20.75 C 116.58 18.58 115.83 19.58 117.75 17.75 C 119.67 15.92 119.50 16.50 121.25 15.25 C 123.00 14.00 122.12 14.62 123.00 14.00" class="hole" fill="#dbeee7" fill-rule="evenodd" />
  </g>
</svg>