<?xml version='1.0' encoding='utf-8'?>
<svg xmlns="http://www.w3.org/2000/svg" version="1.1" width="394" height="199" viewBox="0 0 394 199" style="background: transparent;">
  <defs>
    <style>
        .handwriting {
            fill: none;
            stroke: #eff7f4;
            stroke-width: 2.00;
            stroke-linecap: round;
            stroke-linejoin: round;
            stroke-opacity: 0.95;
        }
        .hole {
            fill: #eff7f4;
            stroke: none;
            opacity: 0.95;
        }
    </style>
  </defs>
  <g class="handwriting">
    <path d="M 224.00 96.00 C 225.38 96.00 224.00 96.00 226.75 96.00 C 229.50 96.00 229.00 95.67 232.25 96.00 C 235.50 96.33 234.08 96.00 236.50 97.00 C 238.92 98.00 237.67 97.50 239.50 99.00 C 241.33 100.50 240.50 99.67 242.00 101.50 C 243.50 103.33 242.92 101.92 244.00 104.50 C 245.08 107.08 244.67 105.50 245.25 109.25 C 245.83 113.00 245.83 112.00 245.75 115.75 C 245.67 119.50 245.92 117.92 245.00 120.50 C 244.08 123.08 244.33 122.00 243.00 123.50 C 241.67 125.00 242.33 124.50 241.00 125.00 C 239.67 125.50 240.25 125.33 239.00 125.00 C 237.75 124.67 238.33 125.00 237.25 124.00 C 236.17 123.00 237.33 122.92 235.75 122.00 C 234.17 121.08 235.25 121.33 232.50 121.25 C 229.75 121.17 230.33 121.17 227.50 121.75 C 224.67 122.33 225.83 121.92 224.00 123.00 C 222.17 124.08 222.92 123.75 222.00 125.00 C 221.08 126.25 221.33 125.67 221.25 126.75 C 221.17 127.83 220.58 127.33 221.75 128.25 C 222.92 129.17 221.92 128.75 224.75 129.50 C 227.58 130.25 226.67 130.33 230.25 130.50 C 233.83 130.67 232.08 130.83 235.50 130.00 C 238.92 129.17 237.58 129.42 240.50 128.00 C 243.42 126.58 242.17 127.33 244.25 125.75 C 246.33 124.17 245.17 124.33 246.75 123.25 C 248.33 122.17 247.58 122.42 249.00 122.50 C 250.42 122.58 250.25 122.50 251.00 123.50 C 251.75 124.50 251.67 123.83 251.25 125.50 C 250.83 127.17 251.83 126.25 249.75 128.50 C 247.67 130.75 249.25 129.50 245.00 132.25 C 240.75 135.00 241.83 134.50 237.00 136.75 C 232.17 139.00 234.33 138.25 230.50 139.00 C 226.67 139.75 228.83 139.75 225.50 139.00 C 222.17 138.25 223.83 139.00 220.50 136.75 C 217.17 134.50 218.00 135.17 215.50 132.25 C 213.00 129.33 213.83 130.75 213.00 128.00 C 212.17 125.25 212.50 126.50 213.00 124.00 C 213.50 121.50 213.00 122.67 214.50 120.50 C 216.00 118.33 215.08 119.33 217.50 117.50 C 219.92 115.67 218.50 116.50 221.75 115.00 C 225.00 113.50 223.75 113.92 227.25 113.00 C 230.75 112.08 229.08 112.33 232.25 112.25 C 235.42 112.17 234.83 113.25 236.75 112.75 C 238.67 112.25 238.25 112.92 238.00 110.75 C 237.75 108.58 238.17 108.50 236.00 106.25 C 233.83 104.00 235.33 104.75 231.50 104.00 C 227.67 103.25 228.42 103.50 224.50 104.00 C 220.58 104.50 222.17 104.00 219.75 105.50 C 217.33 107.00 219.08 107.17 217.25 108.50 C 215.42 109.83 216.42 109.50 214.25 109.50 C 212.08 109.50 212.67 109.42 210.75 108.50 C 208.83 107.58 209.58 108.17 208.50 106.75 C 207.42 105.33 206.83 106.08 207.50 104.25 C 208.17 102.42 207.17 103.42 210.50 101.25 C 213.83 99.08 214.00 99.50 217.50 97.75 C 221.00 96.00 219.25 96.88 221.00 96.00" class="hole" fill="#eff7f4" fill-rule="evenodd" />
    <path d="M 285.00 95.00 C 285.62 94.88 285.00 95.00 286.25 94.75 C 287.50 94.50 287.25 94.33 288.75 94.25 C 290.25 94.17 289.58 94.08 290.75 94.50 C 291.92 94.92 291.92 93.67 292.25 95.50 C 292.58 97.33 292.75 95.83 291.75 100.00 C 290.75 104.17 290.50 102.08 289.25 108.00 C 288.00 113.92 288.42 110.67 288.00 117.75 C 287.58 124.83 288.25 123.25 288.00 129.25 C 287.75 135.25 288.00 133.08 287.25 135.75 C 286.50 138.42 287.08 136.67 285.75 137.25 C 284.42 137.83 285.25 137.75 283.25 137.50 C 281.25 137.25 281.42 139.00 279.75 136.50 C 278.08 134.00 278.58 136.17 278.25 130.00 C 277.92 123.83 278.00 125.33 278.75 118.00 C 279.50 110.67 278.92 114.00 280.50 108.00 C 282.08 102.00 282.00 104.00 283.50 100.00 C 285.00 96.00 284.25 98.00 285.00 96.00" class="hole" fill="#eff7f4" fill-rule="evenodd" />
    <path d="M 290.00 64.00 C 291.62 64.00 290.00 64.00 293.25 64.00 C 296.50 64.00 295.92 63.75 299.75 64.00 C 303.58 64.25 301.92 64.00 304.75 64.75 C 307.58 65.50 306.25 65.17 308.25 66.25 C 310.25 67.33 309.42 66.75 310.75 68.00 C 312.08 69.25 311.67 68.33 312.25 70.00 C 312.83 71.67 312.75 70.67 312.50 73.00 C 312.25 75.33 312.33 74.67 311.50 77.00 C 310.67 79.33 311.17 78.33 310.00 80.00 C 308.83 81.67 309.75 80.75 308.00 82.00 C 306.25 83.25 307.33 82.67 304.75 83.75 C 302.17 84.83 303.17 84.58 300.25 85.25 C 297.33 85.92 298.75 85.75 296.00 85.75 C 293.25 85.75 294.17 85.75 292.00 85.25 C 289.83 84.75 290.67 85.08 289.50 84.25 C 288.33 83.42 288.83 83.92 288.50 82.75 C 288.17 81.58 288.17 82.25 288.50 80.75 C 288.83 79.25 288.00 79.50 289.50 78.25 C 291.00 77.00 289.83 77.42 293.00 77.00 C 296.17 76.58 295.75 77.25 299.00 77.00 C 302.25 76.75 301.00 77.00 302.75 76.25 C 304.50 75.50 303.75 75.67 304.25 74.75 C 304.75 73.83 304.75 74.25 304.25 73.50 C 303.75 72.75 304.42 72.92 302.75 72.50 C 301.08 72.08 302.25 72.17 299.25 72.25 C 296.25 72.33 296.83 72.17 293.75 72.75 C 290.67 73.33 291.92 72.92 290.00 74.00 C 288.08 75.08 289.00 74.33 288.00 76.00 C 287.00 77.67 287.33 76.67 287.00 79.00 C 286.67 81.33 287.42 80.83 287.00 83.00 C 286.58 85.17 287.00 84.33 285.75 85.50 C 284.50 86.67 284.67 86.17 283.25 86.50 C 281.83 86.83 282.42 86.83 281.50 86.50 C 280.58 86.17 281.00 86.83 280.50 85.50 C 280.00 84.17 280.17 85.17 280.00 82.50 C 279.83 79.83 279.83 80.25 280.00 77.50 C 280.17 74.75 280.00 75.83 280.50 74.25 C 281.00 72.67 281.00 73.50 281.50 72.75 C 282.00 72.00 281.75 72.38 282.00 72.00" class="hole" fill="#eff7f4" fill-rule="evenodd" />
    <path d="M 261.00 43.00 C 261.75 43.50 261.00 43.00 262.50 44.00 C 264.00 45.00 264.17 41.92 265.50 46.00 C 266.83 50.08 266.50 46.67 266.50 56.25 C 266.50 65.83 265.92 61.83 265.50 74.75 C 265.08 87.67 265.17 80.92 265.25 95.00 C 265.33 109.08 265.08 105.75 265.75 117.00 C 266.42 128.25 265.92 124.33 267.25 128.75 C 268.58 133.17 268.83 128.75 269.75 130.25 C 270.67 131.75 270.58 130.75 270.00 133.25 C 269.42 135.75 269.67 135.33 268.00 137.75 C 266.33 140.17 267.33 139.25 265.00 140.50 C 262.67 141.75 263.17 141.25 261.00 141.50 C 258.83 141.75 259.67 141.83 258.50 141.25 C 257.33 140.67 257.92 148.25 257.50 139.75 C 257.08 131.25 257.17 139.25 257.25 115.75 C 257.33 92.25 257.50 92.50 257.75 69.25 C 258.00 46.00 257.88 57.62 258.00 46.00" class="hole" fill="#eff7f4" fill-rule="evenodd" />
    <path d="M 156.00 96.00 C 157.88 95.88 156.00 96.00 159.75 95.75 C 163.50 95.50 162.67 95.08 167.25 95.25 C 171.83 95.42 169.75 95.08 173.50 96.25 C 177.25 97.42 175.67 97.17 178.50 98.75 C 181.33 100.33 180.17 99.58 182.00 101.00 C 183.83 102.42 182.83 101.33 184.00 103.00 C 185.17 104.67 184.67 103.67 185.50 106.00 C 186.33 108.33 186.75 106.92 186.50 110.00 C 186.25 113.08 186.83 111.33 184.75 115.25 C 182.67 119.17 183.67 117.50 180.25 121.75 C 176.83 126.00 178.75 123.92 174.50 128.00 C 170.25 132.08 173.17 129.83 167.50 134.00 C 161.83 138.17 165.17 136.00 157.50 140.50 C 149.83 145.00 151.25 145.08 144.50 147.50 C 137.75 149.92 140.17 149.83 137.25 147.75 C 134.33 145.67 136.58 147.67 135.75 141.25 C 134.92 134.83 135.25 139.08 134.75 128.50 C 134.25 117.92 133.50 118.92 134.25 109.50 C 135.00 100.08 134.08 103.17 137.00 100.25 C 139.92 97.33 139.25 100.92 143.00 100.75 C 146.75 100.58 145.00 100.92 148.25 99.75 C 151.50 98.58 150.50 98.50 152.75 97.25 C 155.00 96.00 153.88 96.62 155.00 96.00" class="hole" fill="#eff7f4" fill-rule="evenodd" />
    <path d="M 120.00 49.00 C 120.88 49.75 120.00 49.00 121.75 50.50 C 123.50 52.00 123.00 44.17 125.25 53.50 C 127.50 62.83 126.42 54.50 128.50 78.50 C 130.58 102.50 130.42 101.67 131.50 125.50 C 132.58 149.33 132.50 141.17 131.75 150.00 C 131.00 158.83 130.92 151.42 129.25 152.00 C 127.58 152.58 128.42 152.67 126.75 151.75 C 125.08 150.83 125.58 155.50 124.25 149.25 C 122.92 143.00 123.42 148.42 122.75 133.00 C 122.08 117.58 122.92 121.00 122.25 103.00 C 121.58 85.00 122.08 93.00 120.75 79.00 C 119.42 65.00 119.50 70.00 118.25 61.00 C 117.00 52.00 117.62 56.50 117.00 52.00" class="hole" fill="#eff7f4" fill-rule="evenodd" />
    <path d="M 117.00 27.00 C 120.75 26.88 117.00 27.00 124.50 26.75 C 132.00 26.50 131.00 26.08 139.50 26.25 C 148.00 26.42 144.50 26.08 150.00 27.25 C 155.50 28.42 152.25 27.67 156.00 29.75 C 159.75 31.83 158.00 30.58 161.25 33.50 C 164.50 36.42 163.33 34.92 165.75 38.50 C 168.17 42.08 167.25 40.17 168.50 44.25 C 169.75 48.33 169.17 46.67 169.50 50.75 C 169.83 54.83 169.83 52.92 169.50 56.50 C 169.17 60.08 169.92 57.33 168.50 61.50 C 167.08 65.67 168.17 63.17 165.25 69.00 C 162.33 74.83 161.33 74.08 159.75 79.00 C 158.17 83.92 157.92 82.33 160.50 83.75 C 163.08 85.17 162.75 83.00 167.50 83.25 C 172.25 83.50 169.83 83.08 174.75 84.50 C 179.67 85.92 177.75 85.33 182.25 87.50 C 186.75 89.67 184.75 88.50 188.25 91.00 C 191.75 93.50 190.17 92.25 192.75 95.00 C 195.33 97.75 194.25 96.33 196.00 99.25 C 197.75 102.17 197.00 100.92 198.00 103.75 C 199.00 106.58 198.67 105.25 199.00 107.75 C 199.33 110.25 199.50 108.58 199.00 111.25 C 198.50 113.92 199.00 112.42 197.50 115.75 C 196.00 119.08 197.50 116.92 194.50 121.25 C 191.50 125.58 193.50 123.08 188.50 128.75 C 183.50 134.42 188.33 131.17 179.50 138.25 C 170.67 145.33 176.50 141.42 162.00 150.00 C 147.50 158.58 149.58 157.00 136.00 164.00 C 122.42 171.00 127.33 168.67 121.25 171.00 C 115.17 173.33 119.67 171.25 117.75 171.00 C 115.83 170.75 116.58 171.00 115.50 170.25 C 114.42 169.50 114.58 170.08 114.50 168.75 C 114.42 167.42 114.17 168.25 115.25 166.25 C 116.33 164.25 114.67 165.08 117.75 162.75 C 120.83 160.42 118.58 161.58 124.50 159.25 C 130.42 156.92 127.92 158.67 135.50 155.75 C 143.08 152.83 139.17 154.58 147.25 150.50 C 155.33 146.42 152.25 148.08 159.75 143.50 C 167.25 138.92 163.92 141.17 169.75 136.75 C 175.58 132.33 172.67 134.75 177.25 130.25 C 181.83 125.75 179.75 128.08 183.50 123.25 C 187.25 118.42 186.17 120.25 188.50 115.75 C 190.83 111.25 190.17 113.25 190.50 109.75 C 190.83 106.25 191.25 108.42 189.50 105.25 C 187.75 102.08 189.17 103.75 185.25 100.25 C 181.33 96.75 183.25 97.50 177.75 94.75 C 172.25 92.00 175.25 92.92 168.75 92.00 C 162.25 91.08 164.33 91.42 158.25 92.00 C 152.17 92.58 154.75 92.00 150.50 93.75 C 146.25 95.50 148.50 95.75 145.50 97.25 C 142.50 98.75 143.83 98.42 141.50 98.25 C 139.17 98.08 140.00 97.83 138.50 96.75 C 137.00 95.67 137.50 96.25 137.00 95.00 C 136.50 93.75 135.92 94.83 137.00 93.00 C 138.08 91.17 137.00 92.33 140.25 89.50 C 143.50 86.67 142.58 88.75 146.75 84.50 C 150.92 80.25 148.92 82.83 152.75 76.75 C 156.58 70.67 155.42 72.75 158.25 66.25 C 161.08 59.75 160.08 62.75 161.25 57.25 C 162.42 51.75 161.83 54.08 161.75 49.75 C 161.67 45.42 161.92 47.25 161.00 44.25 C 160.08 41.25 160.58 42.83 159.00 40.75 C 157.42 38.67 158.33 39.58 156.25 38.00 C 154.17 36.42 155.67 37.25 152.75 36.00 C 149.83 34.75 151.58 35.33 147.50 34.25 C 143.42 33.17 146.33 33.33 140.50 32.75 C 134.67 32.17 138.17 32.25 130.00 32.50 C 121.83 32.75 124.67 32.58 116.00 33.50 C 107.33 34.42 111.33 33.83 104.00 35.25 C 96.67 36.67 100.42 36.00 94.00 37.75 C 87.58 39.50 90.67 38.58 84.75 40.50 C 78.83 42.42 81.83 41.17 76.25 43.50 C 70.67 45.83 73.42 44.50 68.00 47.50 C 62.58 50.50 64.92 48.92 60.00 52.50 C 55.08 56.08 57.33 54.17 53.25 58.25 C 49.17 62.33 50.50 60.92 47.75 64.75 C 45.00 68.58 45.92 66.92 45.00 69.75 C 44.08 72.58 45.17 71.33 45.00 73.25 C 44.83 75.17 45.00 74.42 44.50 75.50 C 44.00 76.58 44.33 76.00 43.50 76.50 C 42.67 77.00 43.17 76.83 42.00 77.00 C 40.83 77.17 41.25 77.25 40.00 77.00 C 38.75 76.75 39.33 77.00 38.25 76.25 C 37.17 75.50 37.17 76.50 36.75 74.75 C 36.33 73.00 36.25 74.25 37.00 71.00 C 37.75 67.75 36.67 69.42 39.00 65.00 C 41.33 60.58 39.67 63.00 44.00 57.75 C 48.33 52.50 46.50 54.25 52.00 49.25 C 57.50 44.25 54.67 46.42 60.50 42.75 C 66.33 39.08 61.92 41.25 69.50 38.25 C 77.08 35.25 72.50 36.75 83.25 33.75 C 94.00 30.75 92.50 31.50 101.75 29.25 C 111.00 27.00 106.38 28.12 111.00 27.00" class="hole" fill="#eff7f4" fill-rule="evenodd" />
  </g>
</svg>