<?xml version='1.0' encoding='utf-8'?>
<svg xmlns="http://www.w3.org/2000/svg" version="1.1" width="328" height="194" viewBox="0 0 328 194" style="background: transparent;">
  <defs>
    <style>
        .handwriting {
            fill: none;
            stroke: #f2f9f6;
            stroke-width: 2.00;
            stroke-linecap: round;
            stroke-linejoin: round;
            stroke-opacity: 0.95;
        }
        .hole {
            fill: #f2f9f6;
            stroke: none;
            opacity: 0.95;
        }
    </style>
  </defs>
  <g class="handwriting">
    <path d="M 270.00 107.00 C 271.00 107.12 270.00 107.00 272.00 107.25 C 274.00 107.50 273.83 107.08 276.00 107.75 C 278.17 108.42 277.33 107.92 278.50 109.25 C 279.67 110.58 279.75 110.33 279.50 111.75 C 279.25 113.17 279.83 112.58 277.75 113.50 C 275.67 114.42 275.83 114.42 273.25 114.50 C 270.67 114.58 271.75 114.83 270.00 113.75 C 268.25 112.67 269.00 112.50 268.00 111.25 C 267.00 110.00 267.50 110.62 267.00 110.00" class="hole" fill="#f2f9f6" fill-rule="evenodd" />
    <path d="M 86.00 98.00 C 86.50 98.25 86.00 98.00 87.00 98.50 C 88.00 99.00 88.25 98.00 89.00 99.50 C 89.75 101.00 89.67 99.83 89.25 103.00 C 88.83 106.17 88.50 105.08 87.75 109.00 C 87.00 112.92 87.25 111.00 87.00 114.75 C 86.75 118.50 86.75 116.67 87.00 120.25 C 87.25 123.83 87.00 122.08 87.75 125.50 C 88.50 128.92 88.83 127.67 89.25 130.50 C 89.67 133.33 89.75 132.17 89.00 134.00 C 88.25 135.83 88.42 135.25 87.00 136.00 C 85.58 136.75 86.33 136.67 84.75 136.25 C 83.17 135.83 83.67 136.00 82.25 134.75 C 80.83 133.50 81.42 134.25 80.50 132.50 C 79.58 130.75 80.00 132.25 79.50 129.50 C 79.00 126.75 79.17 128.50 79.00 124.25 C 78.83 120.00 78.58 121.75 79.00 116.75 C 79.42 111.75 79.00 114.25 80.25 109.25 C 81.50 104.25 81.50 105.50 82.75 101.75 C 84.00 98.00 83.38 99.88 84.00 98.00" class="hole" fill="#f2f9f6" fill-rule="evenodd" />
    <path d="M 223.00 102.00 C 223.50 102.25 223.00 102.00 224.00 102.50 C 225.00 103.00 225.00 102.58 226.00 103.50 C 227.00 104.42 226.67 103.83 227.00 105.25 C 227.33 106.67 227.50 105.75 227.00 107.75 C 226.50 109.75 227.00 108.58 225.50 111.25 C 224.00 113.92 224.00 113.25 222.50 115.75 C 221.00 118.25 221.50 117.25 221.00 118.75 C 220.50 120.25 220.58 119.25 221.00 120.25 C 221.42 121.25 221.00 120.75 222.25 121.75 C 223.50 122.75 223.67 122.00 224.75 123.25 C 225.83 124.50 225.58 123.75 225.50 125.50 C 225.42 127.25 225.33 126.67 224.50 128.50 C 223.67 130.33 224.17 129.50 223.00 131.00 C 221.83 132.50 222.50 132.25 221.00 133.00 C 219.50 133.75 220.33 133.67 218.50 133.25 C 216.67 132.83 217.08 133.50 215.50 131.75 C 213.92 130.00 214.50 131.25 213.75 128.00 C 213.00 124.75 213.33 125.50 213.25 122.00 C 213.17 118.50 213.08 120.00 213.50 117.50 C 213.92 115.00 214.33 116.00 214.50 114.50 C 214.67 113.00 214.83 113.50 214.00 113.00 C 213.17 112.50 214.00 112.25 212.00 113.00 C 210.00 113.75 211.33 113.00 208.00 115.25 C 204.67 117.50 205.42 116.92 202.00 119.75 C 198.58 122.58 200.00 121.25 197.75 123.75 C 195.50 126.25 196.50 124.92 195.25 127.25 C 194.00 129.58 194.42 128.42 194.00 130.75 C 193.58 133.08 194.58 132.08 194.00 134.25 C 193.42 136.42 194.00 135.42 192.25 137.25 C 190.50 139.08 190.75 138.75 188.75 139.75 C 186.75 140.75 187.58 140.58 186.25 140.25 C 184.92 139.92 185.58 140.00 184.75 138.75 C 183.92 137.50 184.25 138.25 183.75 136.50 C 183.25 134.75 183.58 137.08 183.25 133.50 C 182.92 129.92 183.08 132.50 182.75 125.75 C 182.42 119.00 182.17 119.83 182.25 113.25 C 182.33 106.67 182.08 109.08 183.00 106.00 C 183.92 102.92 183.67 104.75 185.00 104.00 C 186.33 103.25 185.67 103.33 187.00 103.75 C 188.33 104.17 187.83 103.33 189.00 105.25 C 190.17 107.17 189.67 105.75 190.50 109.50 C 191.33 113.25 190.08 114.00 191.50 116.50 C 192.92 119.00 191.83 118.83 194.75 117.00 C 197.67 115.17 196.92 114.17 200.25 111.00 C 203.58 107.83 202.08 109.00 204.75 107.50 C 207.42 106.00 205.92 106.83 208.25 106.50 C 210.58 106.17 209.42 106.17 211.75 106.50 C 214.08 106.83 213.25 107.25 215.25 107.50 C 217.25 107.75 216.42 107.83 217.75 107.25 C 219.08 106.67 218.50 106.50 219.25 105.75 C 220.00 105.00 219.62 105.38 220.00 105.00" class="hole" fill="#f2f9f6" fill-rule="evenodd" />
    <path d="M 235.00 68.00 C 236.12 68.12 235.00 68.00 237.25 68.25 C 239.50 68.50 239.08 68.00 241.75 68.75 C 244.42 69.50 243.25 68.92 245.25 70.50 C 247.25 72.08 246.58 71.58 247.75 73.50 C 248.92 75.42 248.58 74.50 248.75 76.25 C 248.92 78.00 249.33 76.58 248.25 78.75 C 247.17 80.92 248.08 79.58 245.50 82.75 C 242.92 85.92 243.92 85.08 240.50 88.25 C 237.08 91.42 238.83 90.08 235.25 92.25 C 231.67 94.42 233.08 93.75 229.75 94.75 C 226.42 95.75 227.92 95.58 225.25 95.25 C 222.58 94.92 223.50 95.00 221.75 93.75 C 220.00 92.50 220.58 93.25 220.00 91.50 C 219.42 89.75 219.83 90.17 220.00 88.50 C 220.17 86.83 220.00 87.50 220.50 86.50 C 221.00 85.50 220.50 85.83 221.50 85.50 C 222.50 85.17 221.83 85.17 223.50 85.50 C 225.17 85.83 224.50 86.25 226.50 86.50 C 228.50 86.75 227.50 86.83 229.50 86.25 C 231.50 85.67 230.58 85.83 232.50 84.75 C 234.42 83.67 233.50 84.25 235.25 83.00 C 237.00 81.75 236.42 82.33 237.75 81.00 C 239.08 79.67 238.58 80.33 239.25 79.00 C 239.92 77.67 240.92 77.75 239.75 77.00 C 238.58 76.25 239.92 76.33 235.75 76.75 C 231.58 77.17 231.92 77.08 227.25 78.25 C 222.58 79.42 224.42 78.75 221.75 80.25 C 219.08 81.75 220.50 80.75 219.25 82.75 C 218.00 84.75 218.42 83.58 218.00 86.25 C 217.58 88.92 218.17 88.33 218.00 90.75 C 217.83 93.17 218.00 92.25 217.50 93.50 C 217.00 94.75 217.42 94.17 216.50 94.50 C 215.58 94.83 216.17 94.83 214.75 94.50 C 213.33 94.17 213.58 94.67 212.25 93.50 C 210.92 92.33 211.42 93.17 210.75 91.00 C 210.08 88.83 209.92 89.92 210.25 87.00 C 210.58 84.08 210.08 85.67 211.75 82.25 C 213.42 78.83 212.25 80.00 215.25 76.75 C 218.25 73.50 216.42 74.92 220.75 72.50 C 225.08 70.08 224.50 71.00 228.25 69.50 C 232.00 68.00 230.12 68.75 232.00 68.00" class="hole" fill="#f2f9f6" fill-rule="evenodd" />
    <path d="M 145.00 105.00 C 145.75 104.88 145.00 105.00 146.50 104.75 C 148.00 104.50 147.25 104.25 149.50 104.25 C 151.75 104.25 150.50 104.08 153.25 104.75 C 156.00 105.42 154.92 104.58 157.75 106.25 C 160.58 107.92 159.25 106.75 161.75 109.75 C 164.25 112.75 163.58 111.58 165.25 115.25 C 166.92 118.92 166.42 117.08 166.75 120.75 C 167.08 124.42 166.83 123.08 166.25 126.25 C 165.67 129.42 166.08 128.08 165.00 130.25 C 163.92 132.42 164.42 131.42 163.00 132.75 C 161.58 134.08 162.33 133.58 160.75 134.25 C 159.17 134.92 159.67 135.17 158.25 134.75 C 156.83 134.33 157.42 134.92 156.50 133.00 C 155.58 131.08 156.50 130.58 155.50 129.00 C 154.50 127.42 155.17 127.67 153.50 128.25 C 151.83 128.83 152.00 129.25 150.50 130.75 C 149.00 132.25 149.50 131.58 149.00 132.75 C 148.50 133.92 148.67 133.33 149.00 134.25 C 149.33 135.17 149.00 134.75 150.00 135.50 C 151.00 136.25 150.33 136.08 152.00 136.50 C 153.67 136.92 152.67 136.83 155.00 136.75 C 157.33 136.67 156.17 137.08 159.00 136.25 C 161.83 135.42 160.33 136.08 163.50 134.25 C 166.67 132.42 165.75 132.33 168.50 130.75 C 171.25 129.17 170.17 129.58 171.75 129.50 C 173.33 129.42 172.75 129.50 173.25 130.50 C 173.75 131.50 173.75 130.83 173.25 132.50 C 172.75 134.17 173.67 133.42 171.75 135.50 C 169.83 137.58 171.25 136.50 167.50 138.75 C 163.75 141.00 165.08 140.67 160.50 142.25 C 155.92 143.83 158.17 143.42 153.75 143.50 C 149.33 143.58 150.83 143.58 147.25 142.50 C 143.67 141.42 145.08 142.17 143.00 140.25 C 140.92 138.33 141.83 139.17 141.00 136.75 C 140.17 134.33 140.33 135.58 140.50 133.00 C 140.67 130.42 140.50 131.42 141.50 129.00 C 142.50 126.58 141.83 127.67 143.50 125.75 C 145.17 123.83 144.08 124.67 146.50 123.25 C 148.92 121.83 147.50 122.42 150.75 121.50 C 154.00 120.58 153.75 121.50 156.25 120.50 C 158.75 119.50 158.08 120.17 158.25 118.50 C 158.42 116.83 158.33 117.17 156.75 115.50 C 155.17 113.83 156.25 114.50 153.50 113.50 C 150.75 112.50 151.67 112.42 148.50 112.50 C 145.33 112.58 146.83 112.17 144.00 113.75 C 141.17 115.33 142.50 115.67 140.00 117.25 C 137.50 118.83 138.67 118.42 136.50 118.50 C 134.33 118.58 135.00 118.33 133.50 117.50 C 132.00 116.67 132.50 117.17 132.00 116.00 C 131.50 114.83 131.50 115.50 132.00 114.00 C 132.50 112.50 132.00 113.33 133.50 111.50 C 135.00 109.67 134.50 110.17 136.50 108.50 C 138.50 106.83 137.50 107.50 139.50 106.50 C 141.50 105.50 141.00 106.00 142.50 105.50 C 144.00 105.00 143.25 105.25 144.00 105.00" class="hole" fill="#f2f9f6" fill-rule="evenodd" />
    <path d="M 65.00 52.00 C 68.12 52.00 65.00 52.00 71.25 52.00 C 77.50 52.00 76.00 51.50 83.75 52.00 C 91.50 52.50 87.92 52.00 94.50 53.50 C 101.08 55.00 97.75 54.00 103.50 56.50 C 109.25 59.00 106.50 57.50 111.75 61.00 C 117.00 64.50 114.92 63.00 119.25 67.00 C 123.58 71.00 121.75 69.00 124.75 73.00 C 127.75 77.00 126.25 74.92 128.25 79.00 C 130.25 83.08 129.42 81.00 130.75 85.25 C 132.08 89.50 131.58 87.58 132.25 91.75 C 132.92 95.92 132.75 93.92 132.75 97.75 C 132.75 101.58 133.50 98.67 132.25 103.25 C 131.00 107.83 132.08 105.08 129.00 111.50 C 125.92 117.92 127.58 115.33 123.00 122.50 C 118.42 129.67 121.00 126.17 115.25 133.00 C 109.50 139.83 112.83 136.33 105.75 143.00 C 98.67 149.67 102.58 146.33 94.00 153.00 C 85.42 159.67 87.50 158.25 80.00 163.00 C 72.50 167.75 75.33 166.33 71.50 167.25 C 67.67 168.17 70.00 166.83 68.50 165.75 C 67.00 164.67 67.50 165.25 67.00 164.00 C 66.50 162.75 64.33 164.75 67.00 162.00 C 69.67 159.25 67.00 161.33 75.00 155.75 C 83.00 150.17 81.50 152.17 91.00 145.25 C 100.50 138.33 96.33 141.75 103.50 135.00 C 110.67 128.25 107.42 131.17 112.50 125.00 C 117.58 118.83 115.50 121.67 118.75 116.50 C 122.00 111.33 120.42 114.17 122.25 109.50 C 124.08 104.83 123.42 107.17 124.25 102.50 C 125.08 97.83 125.17 100.50 124.75 95.50 C 124.33 90.50 124.92 93.17 123.00 87.50 C 121.08 81.83 121.75 83.67 119.00 78.50 C 116.25 73.33 117.67 75.50 114.75 72.00 C 111.83 68.50 113.50 70.50 110.25 68.00 C 107.00 65.50 108.75 66.67 105.00 64.50 C 101.25 62.33 102.83 63.17 99.00 61.50 C 95.17 59.83 97.00 60.50 93.50 59.50 C 90.00 58.50 93.25 58.92 88.50 58.50 C 83.75 58.08 86.83 58.17 79.25 58.25 C 71.67 58.33 74.08 58.00 65.75 58.75 C 57.42 59.50 61.25 58.92 54.25 60.50 C 47.25 62.08 50.00 61.33 44.75 63.50 C 39.50 65.67 41.58 64.50 38.50 67.00 C 35.42 69.50 37.33 69.00 35.50 71.00 C 33.67 73.00 34.50 72.33 33.00 73.00 C 31.50 73.67 32.17 73.42 31.00 73.00 C 29.83 72.58 30.33 73.00 29.50 71.75 C 28.67 70.50 28.58 71.08 28.50 69.25 C 28.42 67.42 28.17 68.42 29.25 66.25 C 30.33 64.08 29.92 64.92 31.75 62.75 C 33.58 60.58 32.58 61.58 34.75 59.75 C 36.92 57.92 35.25 58.83 38.25 57.25 C 41.25 55.67 39.42 56.42 43.75 55.00 C 48.08 53.58 47.50 54.00 51.25 53.00 C 55.00 52.00 53.12 52.50 55.00 52.00" class="hole" fill="#f2f9f6" fill-rule="evenodd" />
  </g>
</svg>