<?xml version='1.0' encoding='utf-8'?>
<svg xmlns="http://www.w3.org/2000/svg" version="1.1" width="234" height="168" viewBox="0 0 234 168" style="background: transparent;">
  <defs>
    <style>
        .handwriting {
            fill: none;
            stroke: #e3f2ed;
            stroke-width: 2.00;
            stroke-linecap: round;
            stroke-linejoin: round;
            stroke-opacity: 0.95;
        }
        .hole {
            fill: #e3f2ed;
            stroke: none;
            opacity: 0.95;
        }
    </style>
  </defs>
  <g class="handwriting">
    <path d="M 42.00 88.00 C 44.88 88.50 42.00 88.00 47.75 89.00 C 53.50 90.00 52.75 90.17 59.25 91.00 C 65.75 91.83 63.08 91.67 67.25 91.50 C 71.42 91.33 69.33 90.50 71.75 90.50 C 74.17 90.50 73.25 90.17 74.50 91.50 C 75.75 92.83 75.58 92.67 75.50 94.50 C 75.42 96.33 75.83 95.50 74.25 97.00 C 72.67 98.50 74.67 98.17 70.75 99.00 C 66.83 99.83 69.58 99.67 62.50 99.50 C 55.42 99.33 56.33 99.33 49.50 98.50 C 42.67 97.67 45.17 98.17 42.00 97.00 C 38.83 95.83 40.83 96.50 40.00 95.00 C 39.17 93.50 39.33 94.33 39.50 92.50 C 39.67 90.67 40.00 91.00 40.50 89.50 C 41.00 88.00 40.75 88.75 41.00 88.00" class="hole" fill="#e3f2ed" fill-rule="evenodd" />
    <path d="M 110.00 80.00 C 111.50 79.88 110.00 80.00 113.00 79.75 C 116.00 79.50 115.33 79.17 119.00 79.25 C 122.67 79.33 121.00 79.08 124.00 80.00 C 127.00 80.92 125.75 80.58 128.00 82.00 C 130.25 83.42 129.33 82.67 130.75 84.25 C 132.17 85.83 131.50 84.92 132.25 86.75 C 133.00 88.58 132.75 87.58 133.00 89.75 C 133.25 91.92 133.75 90.92 133.00 93.25 C 132.25 95.58 133.00 94.42 130.75 96.75 C 128.50 99.08 129.50 98.42 126.25 100.25 C 123.00 102.08 124.75 101.42 121.00 102.25 C 117.25 103.08 118.58 102.67 115.00 102.75 C 111.42 102.83 113.00 102.92 110.25 102.50 C 107.50 102.08 108.58 101.83 106.75 101.50 C 104.92 101.17 105.58 101.17 104.75 101.50 C 103.92 101.83 104.08 101.50 104.25 102.50 C 104.42 103.50 104.08 102.83 105.25 104.50 C 106.42 106.17 106.08 105.75 107.75 107.50 C 109.42 109.25 108.58 108.50 110.25 109.75 C 111.92 111.00 110.83 110.50 112.75 111.25 C 114.67 112.00 113.58 111.75 116.00 112.00 C 118.42 112.25 116.75 112.83 120.00 112.00 C 123.25 111.17 121.33 112.00 125.75 109.50 C 130.17 107.00 129.25 106.92 133.25 104.50 C 137.25 102.08 135.75 102.83 137.75 102.25 C 139.75 101.67 138.58 102.00 139.25 102.75 C 139.92 103.50 139.75 102.92 139.75 104.50 C 139.75 106.08 140.25 105.33 139.25 107.50 C 138.25 109.67 139.08 108.50 136.75 111.00 C 134.42 113.50 135.58 112.67 132.25 115.00 C 128.92 117.33 130.75 116.33 126.75 118.00 C 122.75 119.67 124.58 119.42 120.25 120.00 C 115.92 120.58 118.08 120.67 113.75 119.75 C 109.42 118.83 111.17 119.25 107.25 117.25 C 103.33 115.25 105.08 116.42 102.00 113.75 C 98.92 111.08 100.08 112.25 98.00 109.25 C 95.92 106.25 96.67 107.75 95.75 104.75 C 94.83 101.75 95.25 103.25 95.25 100.25 C 95.25 97.25 95.08 98.75 95.75 95.75 C 96.42 92.75 95.58 94.25 97.25 91.25 C 98.92 88.25 97.75 89.75 100.75 86.75 C 103.75 83.75 103.50 84.50 106.25 82.25 C 109.00 80.00 107.62 81.12 109.00 80.00" class="hole" fill="#e3f2ed" fill-rule="evenodd" />
    <path d="M 55.00 69.00 C 55.50 68.88 55.00 69.00 56.00 68.75 C 57.00 68.50 56.75 68.00 58.00 68.25 C 59.25 68.50 58.67 68.08 59.75 69.50 C 60.83 70.92 59.67 70.33 61.25 72.50 C 62.83 74.67 61.75 73.50 64.50 76.00 C 67.25 78.50 66.92 77.67 69.50 80.00 C 72.08 82.33 71.17 81.33 72.25 83.00 C 73.33 84.67 72.67 83.83 72.75 85.00 C 72.83 86.17 72.92 85.67 72.50 86.50 C 72.08 87.33 73.00 87.00 71.50 87.50 C 70.00 88.00 71.17 87.83 68.00 88.00 C 64.83 88.17 66.58 88.33 62.00 88.00 C 57.42 87.67 60.00 88.00 54.25 87.00 C 48.50 86.00 49.33 86.42 44.75 85.00 C 40.17 83.58 41.58 84.33 40.50 82.75 C 39.42 81.17 40.08 82.33 41.50 80.25 C 42.92 78.17 41.83 79.42 44.75 76.50 C 47.67 73.58 47.50 74.00 50.25 71.50 C 53.00 69.00 51.62 70.25 53.00 69.00" class="hole" fill="#e3f2ed" fill-rule="evenodd" />
    <path d="M 89.00 59.00 C 89.88 58.88 89.00 59.00 90.75 58.75 C 92.50 58.50 92.08 58.33 94.25 58.25 C 96.42 58.17 95.42 58.08 97.25 58.50 C 99.08 58.92 98.25 58.67 99.75 59.50 C 101.25 60.33 100.58 59.83 101.75 61.00 C 102.92 62.17 102.50 61.50 103.25 63.00 C 104.00 64.50 103.75 63.67 104.00 65.50 C 104.25 67.33 104.50 66.58 104.00 68.50 C 103.50 70.42 104.00 69.50 102.50 71.25 C 101.00 73.00 101.92 72.33 99.50 73.75 C 97.08 75.17 98.50 74.58 95.25 75.50 C 92.00 76.42 92.75 76.50 89.75 76.50 C 86.75 76.50 87.92 76.83 86.25 75.50 C 84.58 74.17 85.17 74.33 84.75 72.50 C 84.33 70.67 84.25 71.50 85.00 70.00 C 85.75 68.50 85.75 68.83 87.00 68.00 C 88.25 67.17 87.67 67.33 88.75 67.50 C 89.83 67.67 89.17 68.08 90.25 68.50 C 91.33 68.92 90.75 68.83 92.00 68.75 C 93.25 68.67 92.92 68.67 94.00 68.25 C 95.08 67.83 94.67 68.08 95.25 67.50 C 95.83 66.92 95.83 67.08 95.75 66.50 C 95.67 65.92 95.92 66.17 95.00 65.75 C 94.08 65.33 94.58 65.33 93.00 65.25 C 91.42 65.17 92.33 65.08 90.25 65.50 C 88.17 65.92 88.92 65.42 86.75 66.50 C 84.58 67.58 85.58 66.83 83.75 68.75 C 81.92 70.67 82.33 69.92 81.25 72.25 C 80.17 74.58 80.42 73.42 80.50 75.75 C 80.58 78.08 80.42 77.08 81.50 79.25 C 82.58 81.42 81.83 80.42 83.75 82.25 C 85.67 84.08 86.00 82.17 87.25 84.75 C 88.50 87.33 88.42 85.58 87.50 90.00 C 86.58 94.42 86.00 93.50 84.50 98.00 C 83.00 102.50 83.50 100.67 83.00 103.50 C 82.50 106.33 82.50 104.67 83.00 106.50 C 83.50 108.33 83.00 107.50 84.50 109.00 C 86.00 110.50 86.17 109.50 87.50 111.00 C 88.83 112.50 88.50 111.67 88.50 113.50 C 88.50 115.33 88.58 115.00 87.50 116.50 C 86.42 118.00 87.17 117.50 85.25 118.00 C 83.33 118.50 83.92 118.58 81.75 118.00 C 79.58 117.42 80.58 118.00 78.75 116.25 C 76.92 114.50 77.50 115.33 76.25 112.75 C 75.00 110.17 75.42 111.58 75.00 108.50 C 74.58 105.42 74.58 107.25 75.00 103.50 C 75.42 99.75 75.00 101.83 76.25 97.25 C 77.50 92.67 78.08 94.17 78.75 89.75 C 79.42 85.33 79.58 87.25 78.25 84.00 C 76.92 80.75 76.25 83.08 74.75 80.00 C 73.25 76.92 73.58 78.67 73.75 74.75 C 73.92 70.83 74.00 71.92 75.25 68.25 C 76.50 64.58 75.75 66.08 77.50 63.75 C 79.25 61.42 78.58 62.58 80.50 61.25 C 82.42 59.92 81.50 60.42 83.25 59.75 C 85.00 59.08 84.50 59.50 85.75 59.25 C 87.00 59.00 86.38 59.12 87.00 59.00" class="hole" fill="#e3f2ed" fill-rule="evenodd" />
    <path d="M 53.00 57.00 C 54.38 56.88 53.00 57.00 55.75 56.75 C 58.50 56.50 58.25 56.33 61.25 56.25 C 64.25 56.17 63.08 56.08 64.75 56.50 C 66.42 56.92 65.08 56.50 66.25 57.50 C 67.42 58.50 66.75 57.83 68.25 59.50 C 69.75 61.17 69.50 60.33 70.75 62.50 C 72.00 64.67 71.58 63.50 72.00 66.00 C 72.42 68.50 72.42 67.58 72.00 70.00 C 71.58 72.42 72.00 71.33 70.75 73.25 C 69.50 75.17 69.75 75.50 68.25 75.75 C 66.75 76.00 67.42 76.58 66.25 74.00 C 65.08 71.42 66.25 71.08 64.75 68.00 C 63.25 64.92 64.25 66.00 61.75 64.75 C 59.25 63.50 60.50 63.83 57.25 64.25 C 54.00 64.67 55.75 64.08 52.00 66.00 C 48.25 67.92 49.58 67.17 46.00 70.00 C 42.42 72.83 44.00 71.33 41.25 74.50 C 38.50 77.67 39.83 75.92 37.75 79.50 C 35.67 83.08 36.58 81.17 35.00 85.25 C 33.42 89.33 34.00 87.67 33.00 91.75 C 32.00 95.83 32.33 93.92 32.00 97.50 C 31.67 101.08 31.75 98.92 32.00 102.50 C 32.25 106.08 32.00 104.17 32.75 108.25 C 33.50 112.33 33.00 110.75 34.25 114.75 C 35.50 118.75 34.75 116.92 36.50 120.25 C 38.25 123.58 38.17 122.25 39.50 124.75 C 40.83 127.25 40.50 126.25 40.50 127.75 C 40.50 129.25 40.42 128.50 39.50 129.25 C 38.58 130.00 39.17 129.75 37.75 130.00 C 36.33 130.25 36.92 130.50 35.25 130.00 C 33.58 129.50 34.42 130.00 32.75 128.50 C 31.08 127.00 31.83 128.17 30.25 125.50 C 28.67 122.83 29.42 124.50 28.00 120.50 C 26.58 116.50 27.08 118.25 26.00 113.50 C 24.92 108.75 25.33 111.17 24.75 106.25 C 24.17 101.33 23.92 104.25 24.25 98.75 C 24.58 93.25 24.08 96.25 25.75 89.75 C 27.42 83.25 26.67 85.42 29.25 79.25 C 31.83 73.08 30.42 75.75 33.50 71.25 C 36.58 66.75 35.17 69.00 38.50 65.75 C 41.83 62.50 40.17 63.92 43.50 61.50 C 46.83 59.08 46.00 60.00 48.50 58.50 C 51.00 57.00 49.75 57.75 51.00 57.00" class="hole" fill="#e3f2ed" fill-rule="evenodd" />
    <path d="M 176.00 40.00 C 176.50 39.88 176.00 40.00 177.00 39.75 C 178.00 39.50 177.75 39.25 179.00 39.25 C 180.25 39.25 179.67 39.08 180.75 39.75 C 181.83 40.42 181.67 39.25 182.25 41.25 C 182.83 43.25 182.75 41.75 182.50 45.75 C 182.25 49.75 181.25 45.00 181.50 53.25 C 181.75 61.50 181.17 55.75 183.25 70.50 C 185.33 85.25 185.75 83.67 187.75 97.50 C 189.75 111.33 189.25 106.50 189.25 112.00 C 189.25 117.50 189.67 113.33 187.75 114.00 C 185.83 114.67 187.25 114.67 183.50 114.00 C 179.75 113.33 180.58 112.75 176.50 112.00 C 172.42 111.25 174.17 111.33 171.25 111.75 C 168.33 112.17 169.50 112.33 167.75 113.25 C 166.00 114.17 166.58 113.75 166.00 114.50 C 165.42 115.25 165.83 114.67 166.00 115.50 C 166.17 116.33 166.00 115.83 166.50 117.00 C 167.00 118.17 166.58 117.92 167.50 119.00 C 168.42 120.08 167.83 119.67 169.25 120.25 C 170.67 120.83 169.42 120.58 171.75 120.75 C 174.08 120.92 172.58 120.92 176.25 120.75 C 179.92 120.58 178.25 121.08 182.75 120.25 C 187.25 119.42 184.92 120.08 189.75 118.25 C 194.58 116.42 193.17 116.17 197.25 114.75 C 201.33 113.33 199.75 113.58 202.00 114.00 C 204.25 114.42 203.25 114.58 204.00 116.00 C 204.75 117.42 204.67 116.67 204.25 118.25 C 203.83 119.83 205.08 118.92 202.75 120.75 C 200.42 122.58 202.25 121.58 197.25 123.75 C 192.25 125.92 193.75 125.50 187.75 127.25 C 181.75 129.00 184.58 128.42 179.25 129.00 C 173.92 129.58 176.08 129.33 171.75 129.00 C 167.42 128.67 169.25 129.00 166.25 128.00 C 163.25 127.00 164.75 127.42 162.75 126.00 C 160.75 124.58 161.58 125.33 160.25 123.75 C 158.92 122.17 159.50 123.25 158.75 121.25 C 158.00 119.25 158.25 120.42 158.00 117.75 C 157.75 115.08 157.75 115.92 158.00 113.25 C 158.25 110.58 158.00 111.75 158.75 109.75 C 159.50 107.75 158.00 108.75 160.25 107.25 C 162.50 105.75 160.75 106.42 165.50 105.25 C 170.25 104.08 170.50 108.00 174.50 103.75 C 178.50 99.50 177.50 103.25 177.50 92.50 C 177.50 81.75 176.00 83.58 174.50 71.50 C 173.00 59.42 173.50 64.50 173.00 56.25 C 172.50 48.00 172.83 51.67 173.00 46.75 C 173.17 41.83 173.00 43.58 173.50 41.50 C 174.00 39.42 174.00 41.00 174.50 40.50 C 175.00 40.00 174.75 40.25 175.00 40.00" class="hole" fill="#e3f2ed" fill-rule="evenodd" />
    <path d="M 148.00 24.00 C 148.50 24.00 148.00 24.00 149.00 24.00 C 150.00 24.00 149.75 23.75 151.00 24.00 C 152.25 24.25 151.67 24.00 152.75 24.75 C 153.83 25.50 153.83 24.67 154.25 26.25 C 154.67 27.83 154.75 26.75 154.00 29.50 C 153.25 32.25 153.08 30.92 152.00 34.50 C 150.92 38.08 151.33 36.17 150.75 40.25 C 150.17 44.33 150.33 39.42 150.25 46.75 C 150.17 54.08 150.08 48.92 150.50 62.25 C 150.92 75.58 151.17 73.33 151.50 86.75 C 151.83 100.17 151.83 94.92 151.50 102.50 C 151.17 110.08 150.67 106.25 150.50 109.50 C 150.33 112.75 150.17 111.83 151.00 112.25 C 151.83 112.67 151.83 111.42 153.00 110.75 C 154.17 110.08 153.67 110.25 154.50 110.25 C 155.33 110.25 155.08 109.83 155.50 110.75 C 155.92 111.67 155.83 110.92 155.75 113.00 C 155.67 115.08 155.92 114.67 155.25 117.00 C 154.58 119.33 155.08 118.33 153.75 120.00 C 152.42 121.67 152.92 121.00 151.25 122.00 C 149.58 123.00 150.42 122.67 148.75 123.00 C 147.08 123.33 147.75 123.25 146.25 123.00 C 144.75 122.75 145.42 123.00 144.25 122.25 C 143.08 121.50 143.58 127.83 142.75 120.75 C 141.92 113.67 142.25 120.25 141.75 101.00 C 141.25 81.75 141.17 83.42 141.25 63.00 C 141.33 42.58 141.08 50.33 142.00 39.75 C 142.92 29.17 143.00 35.50 144.00 31.25 C 145.00 27.00 144.50 29.12 145.00 27.00" class="hole" fill="#e3f2ed" fill-rule="evenodd" />
  </g>
</svg>