<?xml version='1.0' encoding='utf-8'?>
<svg xmlns="http://www.w3.org/2000/svg" version="1.1" width="197" height="128" viewBox="0 0 197 128" style="background: transparent;">
  <defs>
    <style>
        .handwriting {
            fill: none;
            stroke: #def0ea;
            stroke-width: 2.00;
            stroke-linecap: round;
            stroke-linejoin: round;
            stroke-opacity: 0.95;
        }
        .hole {
            fill: #def0ea;
            stroke: none;
            opacity: 0.95;
        }
    </style>
  </defs>
  <g class="handwriting">
    <path d="M 128.00 69.00 C 128.50 68.88 128.00 69.00 129.00 68.75 C 130.00 68.50 129.83 67.92 131.00 68.25 C 132.17 68.58 131.67 68.08 132.50 69.75 C 133.33 71.42 131.92 71.75 133.50 73.25 C 135.08 74.75 133.83 74.42 137.25 74.25 C 140.67 74.08 139.42 73.17 143.75 72.75 C 148.08 72.33 145.92 72.25 150.25 73.00 C 154.58 73.75 153.33 73.75 156.75 75.00 C 160.17 76.25 158.92 75.67 160.50 76.75 C 162.08 77.83 161.33 77.00 161.50 78.25 C 161.67 79.50 161.83 78.75 161.00 80.50 C 160.17 82.25 161.25 81.42 159.00 83.50 C 156.75 85.58 158.33 84.50 154.25 86.75 C 150.17 89.00 151.42 88.42 146.75 90.25 C 142.08 92.08 144.25 91.42 140.25 92.25 C 136.25 93.08 137.50 92.33 134.75 92.75 C 132.00 93.17 132.92 92.92 132.00 93.50 C 131.08 94.08 131.33 93.67 132.00 94.50 C 132.67 95.33 132.00 94.83 134.00 96.00 C 136.00 97.17 132.83 97.17 138.00 98.00 C 143.17 98.83 139.33 98.67 149.50 98.50 C 159.67 98.33 158.83 97.83 168.50 97.50 C 178.17 97.17 174.83 97.17 178.50 97.50 C 182.17 97.83 179.08 97.67 179.50 98.50 C 179.92 99.33 179.83 98.83 179.75 100.00 C 179.67 101.17 180.92 100.67 179.25 102.00 C 177.58 103.33 179.08 102.67 174.75 104.00 C 170.42 105.33 172.50 105.00 166.25 106.00 C 160.00 107.00 163.42 106.67 156.00 107.00 C 148.58 107.33 150.75 107.33 144.00 107.00 C 137.25 106.67 140.00 107.00 135.75 106.00 C 131.50 105.00 134.00 105.50 131.25 104.00 C 128.50 102.50 129.75 103.33 127.50 101.50 C 125.25 99.67 126.17 100.83 124.50 98.50 C 122.83 96.17 123.50 97.50 122.50 94.50 C 121.50 91.50 121.25 92.92 121.50 89.50 C 121.75 86.08 121.17 87.83 123.25 84.25 C 125.33 80.67 126.33 81.17 127.75 78.75 C 129.17 76.33 129.25 76.92 127.50 77.00 C 125.75 77.08 125.75 77.17 122.50 79.00 C 119.25 80.83 120.83 79.67 117.75 82.50 C 114.67 85.33 115.67 84.08 113.25 87.50 C 110.83 90.92 111.75 89.17 110.50 92.75 C 109.25 96.33 110.25 95.25 109.50 98.25 C 108.75 101.25 109.17 100.08 108.25 101.75 C 107.33 103.42 108.08 102.50 106.75 103.25 C 105.42 104.00 106.25 103.75 104.25 104.00 C 102.25 104.25 102.42 106.67 100.75 104.00 C 99.08 101.33 99.58 104.00 99.25 96.00 C 98.92 88.00 99.00 88.08 99.75 80.00 C 100.50 71.92 99.92 74.67 101.50 71.75 C 103.08 68.83 102.83 71.33 104.50 71.25 C 106.17 71.17 105.50 71.08 106.50 71.50 C 107.50 71.92 107.00 71.25 107.50 72.50 C 108.00 73.75 107.83 72.83 108.00 75.25 C 108.17 77.67 107.58 78.08 108.00 79.75 C 108.42 81.42 108.00 81.25 109.25 80.25 C 110.50 79.25 109.42 79.00 111.75 76.75 C 114.08 74.50 112.58 75.58 116.25 73.50 C 119.92 71.42 119.50 72.00 122.75 70.50 C 126.00 69.00 124.38 69.75 126.00 69.00" class="hole" fill="#def0ea" fill-rule="evenodd" />
    <path d="M 27.00 12.00 C 27.50 12.00 27.00 12.00 28.00 12.00 C 29.00 12.00 28.83 11.75 30.00 12.00 C 31.17 12.25 30.67 12.00 31.50 12.75 C 32.33 13.50 32.42 12.00 32.50 14.25 C 32.58 16.50 32.83 14.75 31.75 19.50 C 30.67 24.25 30.67 20.75 29.25 28.50 C 27.83 36.25 28.42 31.50 27.50 42.75 C 26.58 54.00 26.67 53.08 26.50 62.25 C 26.33 71.42 26.17 68.75 27.00 70.25 C 27.83 71.75 27.33 69.08 29.00 66.75 C 30.67 64.42 29.67 65.58 32.00 63.25 C 34.33 60.92 33.17 61.50 36.00 59.75 C 38.83 58.00 37.33 58.58 40.50 58.00 C 43.67 57.42 42.50 57.17 45.50 58.00 C 48.50 58.83 47.17 58.00 49.50 60.50 C 51.83 63.00 51.00 61.33 52.50 65.50 C 54.00 69.67 53.50 67.17 54.00 73.00 C 54.50 78.83 53.83 78.00 54.00 83.00 C 54.17 88.00 54.00 86.33 54.50 88.00 C 55.00 89.67 54.75 88.25 55.50 88.00 C 56.25 87.75 55.83 88.00 56.75 87.25 C 57.67 86.50 57.58 87.50 58.25 85.75 C 58.92 84.00 58.75 85.25 58.75 82.00 C 58.75 78.75 58.00 79.58 58.25 76.00 C 58.50 72.42 58.08 74.00 59.50 71.25 C 60.92 68.50 60.17 69.75 62.50 67.75 C 64.83 65.75 63.50 66.58 66.50 65.25 C 69.50 63.92 67.67 64.42 71.50 63.75 C 75.33 63.08 73.17 63.25 78.00 63.25 C 82.83 63.25 81.42 63.08 86.00 63.75 C 90.58 64.42 88.67 63.92 91.75 65.25 C 94.83 66.58 93.50 65.92 95.25 67.75 C 97.00 69.58 96.42 68.58 97.00 70.75 C 97.58 72.92 98.00 71.92 97.00 74.25 C 96.00 76.58 97.00 75.42 94.00 77.75 C 91.00 80.08 92.25 79.17 88.00 81.25 C 83.75 83.33 86.00 82.42 81.25 84.00 C 76.50 85.58 77.25 84.83 73.75 86.00 C 70.25 87.17 71.25 86.67 70.75 87.50 C 70.25 88.33 70.25 88.08 72.25 88.50 C 74.25 88.92 72.75 88.83 76.75 88.75 C 80.75 88.67 79.75 89.08 84.25 88.25 C 88.75 87.42 86.75 88.08 90.25 86.25 C 93.75 84.42 92.25 84.08 94.75 82.75 C 97.25 81.42 96.25 81.58 97.75 82.25 C 99.25 82.92 98.83 83.00 99.25 84.75 C 99.67 86.50 99.75 85.58 99.00 87.50 C 98.25 89.42 98.75 88.58 97.00 90.50 C 95.25 92.42 96.33 91.50 93.75 93.25 C 91.17 95.00 92.92 94.50 89.25 95.75 C 85.58 97.00 87.75 96.58 82.75 97.00 C 77.75 97.42 79.17 97.50 74.25 97.00 C 69.33 96.50 71.42 97.00 68.00 95.50 C 64.58 94.00 66.58 93.42 64.00 92.50 C 61.42 91.58 62.67 91.50 60.25 92.75 C 57.83 94.00 59.00 94.50 56.75 96.25 C 54.50 98.00 55.58 97.42 53.50 98.00 C 51.42 98.58 52.25 98.33 50.50 98.00 C 48.75 97.67 49.50 98.00 48.25 97.00 C 47.00 96.00 47.50 97.92 46.75 95.00 C 46.00 92.08 46.25 94.33 46.00 88.25 C 45.75 82.17 46.17 82.92 46.00 76.75 C 45.83 70.58 46.00 72.92 45.50 69.75 C 45.00 66.58 45.42 68.42 44.50 67.25 C 43.58 66.08 44.17 66.42 42.75 66.25 C 41.33 66.08 41.83 66.08 40.25 66.75 C 38.67 67.42 39.42 66.92 38.00 68.25 C 36.58 69.58 37.58 68.58 36.00 70.75 C 34.42 72.92 35.33 71.58 33.25 74.75 C 31.17 77.92 31.75 76.67 29.75 80.25 C 27.75 83.83 28.58 82.08 27.25 85.50 C 25.92 88.92 26.92 87.92 25.75 90.50 C 24.58 93.08 25.25 92.17 23.75 93.25 C 22.25 94.33 22.75 93.75 21.25 93.75 C 19.75 93.75 20.42 93.92 19.25 93.25 C 18.08 92.58 18.25 97.42 17.75 91.75 C 17.25 86.08 17.25 91.25 17.75 76.25 C 18.25 61.25 18.17 62.92 19.25 46.75 C 20.33 30.58 19.75 36.92 21.00 27.75 C 22.25 18.58 22.00 23.50 23.00 19.25 C 24.00 15.00 23.50 17.12 24.00 15.00" class="hole" fill="#def0ea" fill-rule="evenodd" />
  </g>
</svg>