<?xml version='1.0' encoding='utf-8'?>
<svg xmlns="http://www.w3.org/2000/svg" version="1.1" width="231" height="136" viewBox="0 0 231 136" style="background: transparent;">
  <defs>
    <style>
        .handwriting {
            fill: none;
            stroke: #e1f2ec;
            stroke-width: 2.00;
            stroke-linecap: round;
            stroke-linejoin: round;
            stroke-opacity: 0.95;
        }
        .hole {
            fill: #e1f2ec;
            stroke: none;
            opacity: 0.95;
        }
    </style>
  </defs>
  <g class="handwriting">
    <path d="M 172.00 71.00 C 173.50 70.88 172.00 71.00 175.00 70.75 C 178.00 70.50 177.50 70.33 181.00 70.25 C 184.50 70.17 183.00 70.08 185.50 70.50 C 188.00 70.92 186.75 70.83 188.50 71.50 C 190.25 72.17 189.50 71.83 190.75 72.50 C 192.00 73.17 191.42 72.50 192.25 73.50 C 193.08 74.50 192.75 73.83 193.25 75.50 C 193.75 77.17 194.17 76.33 193.75 78.50 C 193.33 80.67 193.92 79.50 192.00 82.00 C 190.08 84.50 190.75 83.67 188.00 86.00 C 185.25 88.33 186.67 87.33 183.75 89.00 C 180.83 90.67 182.50 89.92 179.25 91.00 C 176.00 92.08 177.75 91.67 174.00 92.25 C 170.25 92.83 170.50 91.92 168.00 92.75 C 165.50 93.58 166.00 92.92 166.50 94.75 C 167.00 96.58 166.75 96.42 169.50 98.25 C 172.25 100.08 170.50 99.42 174.75 100.25 C 179.00 101.08 177.25 100.83 182.25 100.75 C 187.25 100.67 184.75 100.92 189.75 100.00 C 194.75 99.08 193.17 99.33 197.25 98.00 C 201.33 96.67 199.75 97.33 202.00 96.00 C 204.25 94.67 202.42 94.75 204.00 94.00 C 205.58 93.25 204.67 93.33 206.75 93.75 C 208.83 94.17 208.75 94.08 210.25 95.25 C 211.75 96.42 211.42 95.75 211.25 97.25 C 211.08 98.75 212.42 97.83 209.75 99.75 C 207.08 101.67 209.25 100.58 203.25 103.00 C 197.25 105.42 198.75 105.00 191.75 107.00 C 184.75 109.00 187.92 108.33 182.25 109.00 C 176.58 109.67 179.33 109.42 174.75 109.00 C 170.17 108.58 172.25 109.00 168.50 107.75 C 164.75 106.50 166.25 106.83 163.50 105.25 C 160.75 103.67 161.83 104.42 160.25 103.00 C 158.67 101.58 159.75 103.33 158.75 101.00 C 157.75 98.67 158.25 100.33 157.25 96.00 C 156.25 91.67 156.25 92.58 155.75 88.00 C 155.25 83.42 155.25 85.33 155.75 82.25 C 156.25 79.17 155.83 81.00 157.25 78.75 C 158.67 76.50 157.75 77.58 160.00 75.50 C 162.25 73.42 162.00 74.00 164.00 72.50 C 166.00 71.00 165.00 71.75 166.00 71.00" class="hole" fill="#e1f2ec" fill-rule="evenodd" />
    <path d="M 121.00 71.00 C 122.00 71.38 121.00 71.00 123.00 71.75 C 125.00 72.50 124.75 72.00 127.00 73.25 C 129.25 74.50 128.33 73.75 129.75 75.50 C 131.17 77.25 129.75 77.75 131.25 78.50 C 132.75 79.25 131.75 79.50 134.25 77.75 C 136.75 76.00 135.92 75.42 138.75 73.25 C 141.58 71.08 140.25 71.75 142.75 71.25 C 145.25 70.75 144.25 71.08 146.25 71.75 C 148.25 72.42 147.42 71.92 148.75 73.25 C 150.08 74.58 149.42 73.25 150.25 75.75 C 151.08 78.25 150.75 76.58 151.25 80.75 C 151.75 84.92 151.25 84.33 151.75 88.25 C 152.25 92.17 151.92 90.75 152.75 92.50 C 153.58 94.25 153.58 92.33 154.25 93.50 C 154.92 94.67 154.75 93.83 154.75 96.00 C 154.75 98.17 154.92 97.75 154.25 100.00 C 153.58 102.25 154.08 101.33 152.75 102.75 C 151.42 104.17 152.00 103.67 150.25 104.25 C 148.50 104.83 149.42 104.75 147.50 104.50 C 145.58 104.25 146.08 105.92 144.50 103.50 C 142.92 101.08 143.50 103.17 142.75 97.25 C 142.00 91.33 143.25 90.33 142.25 85.75 C 141.25 81.17 142.08 81.92 139.75 83.50 C 137.42 85.08 137.75 86.00 135.25 90.50 C 132.75 95.00 133.75 92.83 132.25 97.00 C 130.75 101.17 132.17 100.17 130.75 103.00 C 129.33 105.83 130.25 105.00 128.00 105.50 C 125.75 106.00 125.75 106.25 124.00 104.50 C 122.25 102.75 122.67 104.17 122.75 100.25 C 122.83 96.33 123.67 97.25 124.25 92.75 C 124.83 88.25 124.75 90.25 124.50 86.75 C 124.25 83.25 124.33 84.42 123.50 82.25 C 122.67 80.08 123.17 80.75 122.00 80.25 C 120.83 79.75 121.33 80.08 120.00 80.75 C 118.67 81.42 119.33 80.92 118.00 82.25 C 116.67 83.58 117.50 82.33 116.00 84.75 C 114.50 87.17 115.33 85.58 113.50 89.50 C 111.67 93.42 112.42 92.92 110.50 96.50 C 108.58 100.08 109.50 98.83 107.75 100.25 C 106.00 101.67 106.75 100.75 105.25 100.75 C 103.75 100.75 104.42 100.92 103.25 100.25 C 102.08 99.58 102.50 101.50 101.75 98.75 C 101.00 96.00 101.25 98.25 101.00 92.00 C 100.75 85.75 100.83 86.17 101.00 80.00 C 101.17 73.83 101.00 76.00 101.50 73.50 C 102.00 71.00 101.50 72.83 102.50 72.50 C 103.50 72.17 102.83 72.17 104.50 72.50 C 106.17 72.83 106.08 72.17 107.50 73.50 C 108.92 74.83 108.50 73.83 108.75 76.50 C 109.00 79.17 107.58 80.08 108.25 81.50 C 108.92 82.92 108.08 83.17 110.75 80.75 C 113.42 78.33 113.50 77.50 116.25 74.25 C 119.00 71.00 117.62 72.62 119.00 71.00" class="hole" fill="#e1f2ec" fill-rule="evenodd" />
    <path d="M 20.00 17.00 C 20.75 17.38 20.00 17.00 21.50 17.75 C 23.00 18.50 22.92 13.67 24.50 19.25 C 26.08 24.83 25.50 19.75 26.25 34.50 C 27.00 49.25 25.75 49.75 26.75 63.50 C 27.75 77.25 26.92 73.17 29.25 75.75 C 31.58 78.33 30.08 73.58 33.75 71.25 C 37.42 68.92 35.25 69.75 40.25 68.75 C 45.25 67.75 43.92 67.67 48.75 68.25 C 53.58 68.83 51.58 68.08 54.75 70.50 C 57.92 72.92 56.58 71.75 58.25 75.50 C 59.92 79.25 59.42 77.17 59.75 81.75 C 60.08 86.33 59.00 86.08 59.25 89.25 C 59.50 92.42 59.08 91.75 60.50 91.25 C 61.92 90.75 61.75 90.25 63.50 87.75 C 65.25 85.25 64.50 86.58 65.75 83.75 C 67.00 80.92 66.00 82.00 67.25 79.25 C 68.50 76.50 67.75 77.75 69.50 75.50 C 71.25 73.25 69.67 74.00 72.50 72.50 C 75.33 71.00 73.50 71.50 78.00 71.00 C 82.50 70.50 81.25 70.42 86.00 71.00 C 90.75 71.58 88.67 71.00 92.25 72.75 C 95.83 74.50 94.50 73.83 96.75 76.25 C 99.00 78.67 98.25 77.42 99.00 80.00 C 99.75 82.58 99.42 81.25 99.00 84.00 C 98.58 86.75 99.00 85.33 97.75 88.25 C 96.50 91.17 97.33 89.92 95.25 92.75 C 93.17 95.58 94.42 94.25 91.50 96.75 C 88.58 99.25 89.75 98.50 86.50 100.25 C 83.25 102.00 84.83 101.42 81.75 102.00 C 78.67 102.58 80.00 102.42 77.25 102.00 C 74.50 101.58 75.75 102.00 73.50 100.75 C 71.25 99.50 72.17 99.92 70.50 98.25 C 68.83 96.58 69.50 97.42 68.50 95.75 C 67.50 94.08 68.67 93.58 67.50 93.25 C 66.33 92.92 67.17 92.42 65.00 94.75 C 62.83 97.08 63.42 97.42 61.00 100.25 C 58.58 103.08 59.67 102.08 57.75 103.25 C 55.83 104.42 56.83 103.75 55.25 103.75 C 53.67 103.75 54.42 103.92 53.00 103.25 C 51.58 102.58 51.92 104.33 51.00 101.75 C 50.08 99.17 50.33 101.25 50.25 95.50 C 50.17 89.75 50.67 90.25 50.75 84.50 C 50.83 78.75 50.92 80.83 50.50 78.25 C 50.08 75.67 50.42 77.50 49.50 76.75 C 48.58 76.00 49.17 76.25 47.75 76.00 C 46.33 75.75 47.17 75.67 45.25 76.00 C 43.33 76.33 44.42 76.00 42.00 77.00 C 39.58 78.00 40.42 77.33 38.00 79.00 C 35.58 80.67 36.67 79.67 34.75 82.00 C 32.83 84.33 33.58 82.92 32.25 86.00 C 30.92 89.08 31.42 87.33 30.75 91.25 C 30.08 95.17 30.92 94.17 30.25 97.75 C 29.58 101.33 30.08 99.92 28.75 102.00 C 27.42 104.08 27.75 103.08 26.25 104.00 C 24.75 104.92 25.42 104.67 24.25 104.75 C 23.08 104.83 23.75 104.83 22.75 104.25 C 21.75 103.67 22.25 104.08 21.25 103.00 C 20.25 101.92 20.67 108.67 19.75 101.00 C 18.83 93.33 19.25 100.33 18.50 80.00 C 17.75 59.67 18.00 60.00 17.50 40.00 C 17.00 20.00 17.25 30.00 17.00 20.00" class="hole" fill="#e1f2ec" fill-rule="evenodd" />
  </g>
</svg>