<?xml version='1.0' encoding='utf-8'?>
<svg xmlns="http://www.w3.org/2000/svg" version="1.1" width="317" height="168" viewBox="0 0 317 168" style="background: transparent;">
  <defs>
    <style>
        .handwriting {
            fill: none;
            stroke: #e5f3ee;
            stroke-width: 2.00;
            stroke-linecap: round;
            stroke-linejoin: round;
            stroke-opacity: 0.95;
        }
        .hole {
            fill: #e5f3ee;
            stroke: none;
            opacity: 0.95;
        }
    </style>
  </defs>
  <g class="handwriting">
    <path d="M 258.00 71.00 C 258.75 70.88 258.00 71.00 259.50 70.75 C 261.00 70.50 260.25 69.92 262.50 70.25 C 264.75 70.58 263.50 70.08 266.25 71.75 C 269.00 73.42 267.92 71.83 270.75 75.25 C 273.58 78.67 272.25 76.42 274.75 82.00 C 277.25 87.58 276.75 86.67 278.25 92.00 C 279.75 97.33 279.42 95.33 279.25 98.00 C 279.08 100.67 278.92 99.00 277.75 100.00 C 276.58 101.00 277.25 100.67 275.75 101.00 C 274.25 101.33 274.83 101.50 273.25 101.00 C 271.67 100.50 272.42 101.00 271.00 99.50 C 269.58 98.00 270.75 98.08 269.00 96.50 C 267.25 94.92 268.33 95.50 265.75 94.75 C 263.17 94.00 264.17 93.92 261.25 94.25 C 258.33 94.58 259.75 94.08 257.00 95.75 C 254.25 97.42 254.83 97.17 253.00 99.25 C 251.17 101.33 251.67 100.42 251.50 102.00 C 251.33 103.58 250.33 103.08 252.50 104.00 C 254.67 104.92 252.83 104.67 258.00 104.75 C 263.17 104.83 262.00 105.00 268.00 104.25 C 274.00 103.50 271.33 104.08 276.00 102.50 C 280.67 100.92 278.58 100.75 282.00 99.50 C 285.42 98.25 284.00 98.50 286.25 98.75 C 288.50 99.00 287.75 99.00 288.75 100.25 C 289.75 101.50 289.58 100.75 289.25 102.50 C 288.92 104.25 290.50 103.42 287.75 105.50 C 285.00 107.58 287.25 106.50 281.00 108.75 C 274.75 111.00 276.08 110.50 269.00 112.25 C 261.92 114.00 265.00 113.42 259.75 114.00 C 254.50 114.58 257.17 114.67 253.25 114.00 C 249.33 113.33 251.08 114.00 248.00 112.00 C 244.92 110.00 246.00 110.50 244.00 108.00 C 242.00 105.50 242.67 106.67 242.00 104.50 C 241.33 102.33 241.25 104.00 242.00 101.50 C 242.75 99.00 242.00 100.50 244.25 97.00 C 246.50 93.50 245.75 94.25 248.75 91.00 C 251.75 87.75 250.25 89.00 253.25 87.25 C 256.25 85.50 254.83 86.42 257.75 85.75 C 260.67 85.08 259.25 85.25 262.00 85.25 C 264.75 85.25 264.42 86.08 266.00 85.75 C 267.58 85.42 267.33 85.92 266.75 84.25 C 266.17 82.58 265.92 82.50 264.25 80.75 C 262.58 79.00 263.42 79.58 261.75 79.00 C 260.08 78.42 260.67 78.67 259.25 79.00 C 257.83 79.33 258.42 79.00 257.50 80.00 C 256.58 81.00 257.58 81.17 256.50 82.00 C 255.42 82.83 256.17 82.67 254.25 82.50 C 252.33 82.33 252.50 82.42 250.75 81.50 C 249.00 80.58 249.58 81.17 249.00 79.75 C 248.42 78.33 248.50 78.92 249.00 77.25 C 249.50 75.58 249.00 76.42 250.50 74.75 C 252.00 73.08 252.00 73.50 253.50 72.25 C 255.00 71.00 254.25 71.62 255.00 71.00" class="hole" fill="#e5f3ee" fill-rule="evenodd" />
    <path d="M 189.00 69.00 C 189.88 69.38 189.00 69.00 190.75 69.75 C 192.50 70.50 192.67 69.83 194.25 71.25 C 195.83 72.67 195.42 71.75 195.50 74.00 C 195.58 76.25 194.58 75.00 194.50 78.00 C 194.42 81.00 194.17 79.33 195.25 83.00 C 196.33 86.67 195.92 86.42 197.75 89.00 C 199.58 91.58 198.58 91.00 200.75 90.75 C 202.92 90.50 202.75 89.92 204.25 88.25 C 205.75 86.58 205.42 87.42 205.25 85.75 C 205.08 84.08 204.25 85.33 203.75 83.25 C 203.25 81.17 203.25 82.42 203.75 79.50 C 204.25 76.58 204.00 76.83 205.25 74.50 C 206.50 72.17 205.75 72.83 207.50 72.50 C 209.25 72.17 209.00 72.33 210.50 73.50 C 212.00 74.67 211.50 73.83 212.00 76.00 C 212.50 78.17 211.17 79.00 212.00 80.00 C 212.83 81.00 212.00 81.33 214.50 79.00 C 217.00 76.67 216.58 75.75 219.50 73.00 C 222.42 70.25 221.17 71.00 223.25 70.75 C 225.33 70.50 224.58 71.00 225.75 72.25 C 226.92 73.50 226.58 72.75 226.75 74.50 C 226.92 76.25 227.33 75.25 226.25 77.50 C 225.17 79.75 226.08 78.50 223.50 81.25 C 220.92 84.00 220.75 83.08 218.50 85.75 C 216.25 88.42 216.83 87.25 216.75 89.25 C 216.67 91.25 217.17 90.50 218.25 91.75 C 219.33 93.00 218.75 92.58 220.00 93.00 C 221.25 93.42 220.25 93.75 222.00 93.00 C 223.75 92.25 222.67 93.00 225.25 90.75 C 227.83 88.50 227.17 89.33 229.75 86.25 C 232.33 83.17 231.25 84.75 233.00 81.50 C 234.75 78.25 233.58 79.00 235.00 76.50 C 236.42 74.00 235.67 74.83 237.25 74.00 C 238.83 73.17 238.33 73.33 239.75 74.00 C 241.17 74.67 240.58 74.00 241.50 76.00 C 242.42 78.00 242.58 77.17 242.50 80.00 C 242.42 82.83 242.83 81.33 241.25 84.50 C 239.67 87.67 240.25 86.25 237.75 89.50 C 235.25 92.75 236.58 91.17 233.75 94.25 C 230.92 97.33 232.08 96.33 229.25 98.75 C 226.42 101.17 227.75 100.25 225.25 101.50 C 222.75 102.75 224.00 102.17 221.75 102.50 C 219.50 102.83 220.58 102.83 218.50 102.50 C 216.42 102.17 217.33 102.50 215.50 101.50 C 213.67 100.50 214.50 101.17 213.00 99.50 C 211.50 97.83 212.67 97.50 211.00 96.50 C 209.33 95.50 210.33 95.50 208.00 96.50 C 205.67 97.50 206.67 98.08 204.00 99.50 C 201.33 100.92 202.67 100.50 200.00 100.75 C 197.33 101.00 198.58 101.42 196.00 100.25 C 193.42 99.08 194.67 100.08 192.25 97.25 C 189.83 94.42 190.50 96.00 188.75 91.75 C 187.00 87.50 187.58 89.92 187.00 84.50 C 186.42 79.08 187.00 80.00 187.00 75.50 C 187.00 71.00 187.00 73.25 187.00 71.00" class="hole" fill="#e5f3ee" fill-rule="evenodd" />
    <path d="M 156.00 63.00 C 158.25 63.00 156.00 63.00 160.50 63.00 C 165.00 63.00 164.42 62.33 169.50 63.00 C 174.58 63.67 172.50 63.00 175.75 65.00 C 179.00 67.00 177.50 66.33 179.25 69.00 C 181.00 71.67 180.42 70.33 181.00 73.00 C 181.58 75.67 181.42 73.58 181.00 77.00 C 180.58 80.42 181.00 78.33 179.75 83.25 C 178.50 88.17 178.33 87.00 177.25 91.75 C 176.17 96.50 176.42 94.58 176.50 97.50 C 176.58 100.42 177.67 98.58 177.50 100.50 C 177.33 102.42 177.83 101.50 176.00 103.25 C 174.17 105.00 174.83 104.33 172.00 105.75 C 169.17 107.17 170.67 106.58 167.50 107.50 C 164.33 108.42 165.67 108.17 162.50 108.50 C 159.33 108.83 160.83 108.83 158.00 108.50 C 155.17 108.17 156.50 108.42 154.00 107.50 C 151.50 106.58 152.67 107.17 150.50 105.75 C 148.33 104.33 149.00 105.17 147.50 103.25 C 146.00 101.33 146.50 102.42 146.00 100.00 C 145.50 97.58 145.83 98.42 146.00 96.00 C 146.17 93.58 146.00 94.67 146.50 92.75 C 147.00 90.83 146.17 92.08 147.50 90.25 C 148.83 88.42 147.83 89.42 150.50 87.25 C 153.17 85.08 152.33 85.67 155.50 83.75 C 158.67 81.83 157.17 82.58 160.00 81.50 C 162.83 80.42 161.50 80.58 164.00 80.50 C 166.50 80.42 165.33 80.17 167.50 81.25 C 169.67 82.33 168.92 83.33 170.50 83.75 C 172.08 84.17 171.50 84.58 172.25 82.50 C 173.00 80.42 172.75 80.33 172.75 77.50 C 172.75 74.67 172.92 75.83 172.25 74.00 C 171.58 72.17 172.58 73.00 170.75 72.00 C 168.92 71.00 170.25 71.33 166.75 71.00 C 163.25 70.67 163.83 70.67 160.25 71.00 C 156.67 71.33 158.08 71.00 156.00 72.00 C 153.92 73.00 155.33 73.00 154.00 74.00 C 152.67 75.00 153.33 74.67 152.00 75.00 C 150.67 75.33 151.25 75.50 150.00 75.00 C 148.75 74.50 149.33 75.00 148.25 73.50 C 147.17 72.00 146.83 72.50 146.75 70.50 C 146.67 68.50 146.25 69.50 148.00 67.50 C 149.75 65.50 150.00 66.00 152.00 64.50 C 154.00 63.00 153.00 63.75 154.00 63.00" class="hole" fill="#e5f3ee" fill-rule="evenodd" />
    <path d="M 121.00 71.00 C 121.75 70.88 121.00 71.00 122.50 70.75 C 124.00 70.50 123.75 69.92 125.50 70.25 C 127.25 70.58 126.50 70.08 127.75 71.75 C 129.00 73.42 129.25 73.17 129.25 75.25 C 129.25 77.33 129.75 76.42 127.75 78.00 C 125.75 79.58 125.67 78.17 123.25 80.00 C 120.83 81.83 121.75 80.67 120.50 83.50 C 119.25 86.33 119.75 85.92 119.50 88.50 C 119.25 91.08 119.17 90.17 119.75 91.25 C 120.33 92.33 120.00 92.33 121.25 91.75 C 122.50 91.17 121.75 91.92 123.50 89.50 C 125.25 87.08 124.50 86.67 126.50 84.50 C 128.50 82.33 127.50 82.83 129.50 83.00 C 131.50 83.17 131.17 83.50 132.50 85.00 C 133.83 86.50 133.50 85.67 133.50 87.50 C 133.50 89.33 133.00 86.92 132.50 90.50 C 132.00 94.08 132.17 91.50 132.00 98.25 C 131.83 105.00 132.50 103.00 132.00 110.75 C 131.50 118.50 132.00 114.92 130.50 121.50 C 129.00 128.08 129.50 125.42 127.50 130.50 C 125.50 135.58 126.50 133.50 124.50 136.75 C 122.50 140.00 123.83 138.25 121.50 140.25 C 119.17 142.25 120.50 141.42 117.50 142.75 C 114.50 144.08 115.58 143.50 112.50 144.25 C 109.42 145.00 110.83 144.75 108.25 145.00 C 105.67 145.25 107.17 145.58 104.75 145.00 C 102.33 144.42 103.58 145.00 101.00 143.25 C 98.42 141.50 98.58 141.83 97.00 139.75 C 95.42 137.67 95.67 138.58 96.25 137.00 C 96.83 135.42 97.08 135.75 98.75 135.00 C 100.42 134.25 99.58 134.33 101.25 134.75 C 102.92 135.17 101.58 135.67 103.75 136.25 C 105.92 136.83 104.58 136.75 107.75 136.50 C 110.92 136.25 110.00 137.00 113.25 135.50 C 116.50 134.00 115.08 135.17 117.50 132.00 C 119.92 128.83 118.83 130.92 120.50 126.00 C 122.17 121.08 121.50 124.00 122.50 117.25 C 123.50 110.50 123.58 111.50 123.50 105.75 C 123.42 100.00 123.83 101.92 122.25 100.00 C 120.67 98.08 121.00 100.50 118.75 100.00 C 116.50 99.50 117.58 100.00 115.50 98.50 C 113.42 97.00 113.92 98.25 112.50 95.50 C 111.08 92.75 111.50 94.50 111.25 90.25 C 111.00 86.00 110.83 87.17 111.75 82.75 C 112.67 78.33 111.92 80.25 114.00 77.00 C 116.08 73.75 116.00 75.00 118.00 73.00 C 120.00 71.00 119.00 72.00 120.00 71.00" class="hole" fill="#e5f3ee" fill-rule="evenodd" />
    <path d="M 83.00 69.00 C 84.50 69.00 83.00 69.00 86.00 69.00 C 89.00 69.00 88.42 68.75 92.00 69.00 C 95.58 69.25 94.00 69.00 96.75 69.75 C 99.50 70.50 98.00 69.58 100.25 71.25 C 102.50 72.92 101.42 71.75 103.50 74.75 C 105.58 77.75 105.00 76.67 106.50 80.25 C 108.00 83.83 107.50 82.08 108.00 85.50 C 108.50 88.92 108.17 87.83 108.00 90.50 C 107.83 93.17 108.00 92.17 107.50 93.50 C 107.00 94.83 107.50 93.92 106.50 94.50 C 105.50 95.08 106.17 94.83 104.50 95.25 C 102.83 95.67 103.08 96.00 101.50 95.75 C 99.92 95.50 100.50 95.92 99.75 94.50 C 99.00 93.08 99.83 93.08 99.25 91.50 C 98.67 89.92 99.08 90.50 98.00 89.75 C 96.92 89.00 97.67 89.00 96.00 89.25 C 94.33 89.50 95.33 89.08 93.00 90.50 C 90.67 91.92 91.00 91.58 89.00 93.50 C 87.00 95.42 87.67 94.50 87.00 96.25 C 86.33 98.00 86.83 97.33 87.00 98.75 C 87.17 100.17 87.00 99.58 87.50 100.50 C 88.00 101.42 87.33 101.00 88.50 101.50 C 89.67 102.00 88.83 101.83 91.00 102.00 C 93.17 102.17 92.00 102.50 95.00 102.00 C 98.00 101.50 96.33 102.00 100.00 100.50 C 103.67 99.00 102.83 98.83 106.00 97.50 C 109.17 96.17 108.00 96.50 109.50 96.50 C 111.00 96.50 110.17 96.50 110.50 97.50 C 110.83 98.50 110.83 97.83 110.50 99.50 C 110.17 101.17 110.50 100.67 109.50 102.50 C 108.50 104.33 109.17 103.50 107.50 105.00 C 105.83 106.50 107.00 105.75 104.50 107.00 C 102.00 108.25 103.50 107.67 100.00 108.75 C 96.50 109.83 97.33 109.50 94.00 110.25 C 90.67 111.00 92.00 110.75 90.00 111.00 C 88.00 111.25 89.58 111.42 88.00 111.00 C 86.42 110.58 87.33 111.00 85.25 109.75 C 83.17 108.50 83.58 109.33 81.75 107.25 C 79.92 105.17 80.58 106.42 79.75 103.50 C 78.92 100.58 79.25 101.67 79.25 98.50 C 79.25 95.33 79.08 96.83 79.75 94.00 C 80.42 91.17 79.75 92.50 81.25 90.00 C 82.75 87.50 81.75 88.67 84.25 86.50 C 86.75 84.33 85.92 85.08 88.75 83.50 C 91.58 81.92 90.25 82.50 92.75 81.75 C 95.25 81.00 95.00 81.83 96.25 81.25 C 97.50 80.67 97.42 81.08 96.50 80.00 C 95.58 78.92 95.67 78.75 93.50 78.00 C 91.33 77.25 92.50 77.33 90.00 77.75 C 87.50 78.17 88.25 78.75 86.00 79.25 C 83.75 79.75 84.67 79.75 83.25 79.25 C 81.83 78.75 82.50 79.00 81.75 77.75 C 81.00 76.50 81.25 77.25 81.00 75.50 C 80.75 73.75 81.00 74.00 81.00 72.50 C 81.00 71.00 81.00 71.75 81.00 71.00" class="hole" fill="#e5f3ee" fill-rule="evenodd" />
    <path d="M 30.00 29.00 C 30.75 29.38 30.00 29.00 31.50 29.75 C 33.00 30.50 33.00 27.00 34.50 31.25 C 36.00 35.50 35.50 31.75 36.00 42.50 C 36.50 53.25 35.42 53.83 36.00 63.50 C 36.58 73.17 36.00 70.50 37.75 71.50 C 39.50 72.50 38.83 69.25 41.25 66.50 C 43.67 63.75 42.42 64.83 45.00 63.25 C 47.58 61.67 45.08 64.67 49.00 61.75 C 52.92 58.83 50.33 61.25 56.75 54.50 C 63.17 47.75 62.08 47.75 68.25 41.50 C 74.42 35.25 72.08 37.17 75.25 35.75 C 78.42 34.33 76.58 36.08 77.75 37.25 C 78.92 38.42 78.58 37.75 78.75 39.25 C 78.92 40.75 78.92 40.00 78.25 41.75 C 77.58 43.50 78.08 42.58 76.75 44.50 C 75.42 46.42 77.00 44.58 74.25 47.50 C 71.50 50.42 73.42 48.50 68.50 53.25 C 63.58 58.00 63.00 57.00 59.50 61.75 C 56.00 66.50 56.50 64.58 58.00 67.50 C 59.50 70.42 60.42 68.33 64.00 70.50 C 67.58 72.67 66.00 71.50 68.75 74.00 C 71.50 76.50 70.25 75.42 72.25 78.00 C 74.25 80.58 73.42 79.33 74.75 81.75 C 76.08 84.17 75.50 82.08 76.25 85.25 C 77.00 88.42 76.75 86.42 77.00 91.25 C 77.25 96.08 77.42 95.25 77.00 99.75 C 76.58 104.25 77.00 102.58 75.75 104.75 C 74.50 106.92 74.83 105.67 73.25 106.25 C 71.67 106.83 72.42 106.75 71.00 106.50 C 69.58 106.25 69.92 106.83 69.00 105.50 C 68.08 104.17 68.33 105.17 68.25 102.50 C 68.17 99.83 68.75 100.75 68.75 97.50 C 68.75 94.25 68.92 95.83 68.25 92.75 C 67.58 89.67 67.92 91.08 66.75 88.25 C 65.58 85.42 66.25 86.75 64.75 84.25 C 63.25 81.75 64.25 82.83 62.25 80.75 C 60.25 78.67 61.42 79.58 58.75 78.00 C 56.08 76.42 56.67 76.67 54.25 76.00 C 51.83 75.33 52.75 75.33 51.50 76.00 C 50.25 76.67 51.50 76.83 50.50 78.00 C 49.50 79.17 50.17 78.67 48.50 79.50 C 46.83 80.33 47.67 80.17 45.50 80.50 C 43.33 80.83 44.50 80.83 42.00 80.50 C 39.50 80.17 40.08 78.33 38.00 79.50 C 35.92 80.67 36.67 79.17 35.75 84.00 C 34.83 88.83 35.08 89.50 35.25 94.00 C 35.42 98.50 35.08 97.33 36.25 97.50 C 37.42 97.67 37.17 95.50 38.75 94.50 C 40.33 93.50 39.58 93.50 41.00 94.50 C 42.42 95.50 42.83 94.58 43.00 97.50 C 43.17 100.42 43.67 98.50 41.50 103.25 C 39.33 108.00 39.50 107.75 36.50 111.75 C 33.50 115.75 34.83 114.58 32.50 115.25 C 30.17 115.92 30.92 120.00 29.50 113.75 C 28.08 107.50 28.50 113.25 28.25 96.50 C 28.00 79.75 28.75 81.17 28.75 63.50 C 28.75 45.83 28.92 52.50 28.25 43.50 C 27.58 34.50 27.50 40.00 26.75 36.50 C 26.00 33.00 26.38 34.75 26.00 33.00" class="hole" fill="#e5f3ee" fill-rule="evenodd" />
  </g>
</svg>