<?xml version='1.0' encoding='utf-8'?>
<svg xmlns="http://www.w3.org/2000/svg" version="1.1" width="206" height="165" viewBox="0 0 206 165" style="background: transparent;">
  <defs>
    <style>
        .handwriting {
            fill: none;
            stroke: #ddf0e9;
            stroke-width: 2.00;
            stroke-linecap: round;
            stroke-linejoin: round;
            stroke-opacity: 0.95;
        }
        .hole {
            fill: #ddf0e9;
            stroke: none;
            opacity: 0.95;
        }
    </style>
  </defs>
  <g class="handwriting">
    <path d="M 77.00 75.00 C 78.25 74.88 77.00 75.00 79.50 74.75 C 82.00 74.50 81.58 74.17 84.50 74.25 C 87.42 74.33 86.17 74.08 88.25 75.00 C 90.33 75.92 89.50 75.58 90.75 77.00 C 92.00 78.42 91.58 77.67 92.00 79.25 C 92.42 80.83 92.50 79.75 92.00 81.75 C 91.50 83.75 92.00 82.58 90.50 85.25 C 89.00 87.92 88.67 85.75 87.50 89.75 C 86.33 93.75 86.50 91.25 87.00 97.25 C 87.50 103.25 88.00 101.25 89.00 107.75 C 90.00 114.25 89.67 111.25 90.00 116.75 C 90.33 122.25 90.50 119.33 90.00 124.25 C 89.50 129.17 90.00 126.75 88.50 131.50 C 87.00 136.25 87.75 134.33 85.50 138.50 C 83.25 142.67 84.50 140.83 81.75 144.00 C 79.00 147.17 80.17 145.75 77.25 148.00 C 74.33 150.25 75.75 149.33 73.00 150.75 C 70.25 152.17 72.17 151.58 69.00 152.25 C 65.83 152.92 67.67 152.75 63.50 152.75 C 59.33 152.75 60.33 152.92 56.50 152.25 C 52.67 151.58 54.17 152.08 52.00 150.75 C 49.83 149.42 51.00 149.92 50.00 148.25 C 49.00 146.58 49.33 147.42 49.00 145.75 C 48.67 144.08 48.75 144.83 49.00 143.25 C 49.25 141.67 49.00 142.42 49.75 141.00 C 50.50 139.58 50.25 140.00 51.25 139.00 C 52.25 138.00 51.75 138.33 52.75 138.00 C 53.75 137.67 53.33 137.83 54.25 138.00 C 55.17 138.17 54.75 138.00 55.50 138.50 C 56.25 139.00 56.08 138.58 56.50 139.50 C 56.92 140.42 56.83 139.83 56.75 141.25 C 56.67 142.67 55.92 142.42 56.25 143.75 C 56.58 145.08 56.08 144.58 57.75 145.25 C 59.42 145.92 58.58 145.92 61.25 145.75 C 63.92 145.58 62.42 145.92 65.75 144.75 C 69.08 143.58 68.00 144.25 71.25 142.25 C 74.50 140.25 73.08 141.42 75.50 138.75 C 77.92 136.08 76.92 137.58 78.50 134.25 C 80.08 130.92 79.50 132.75 80.25 128.75 C 81.00 124.75 80.75 127.17 80.75 122.25 C 80.75 117.33 80.92 120.08 80.25 114.00 C 79.58 107.92 79.92 109.00 78.75 104.00 C 77.58 99.00 78.25 100.67 76.75 99.00 C 75.25 97.33 76.00 99.75 74.25 99.00 C 72.50 98.25 73.42 99.00 71.50 96.75 C 69.58 94.50 70.00 95.00 68.50 92.25 C 67.00 89.50 67.50 90.75 67.00 88.50 C 66.50 86.25 66.25 87.75 67.00 85.50 C 67.75 83.25 67.00 84.50 69.25 81.75 C 71.50 79.00 71.50 79.50 73.75 77.25 C 76.00 75.00 74.88 76.12 76.00 75.00" class="hole" fill="#ddf0e9" fill-rule="evenodd" />
    <path d="M 156.00 23.00 C 156.62 23.25 156.00 23.00 157.25 23.50 C 158.50 24.00 158.67 22.83 159.75 24.50 C 160.83 26.17 160.58 24.83 160.50 28.50 C 160.42 32.17 159.92 28.58 159.50 35.50 C 159.08 42.42 159.17 37.83 159.25 49.25 C 159.33 60.67 159.25 59.33 159.75 69.75 C 160.25 80.17 159.92 76.58 160.75 80.50 C 161.58 84.42 159.25 81.17 162.25 81.50 C 165.25 81.83 162.75 81.83 169.75 81.50 C 176.75 81.17 176.33 80.50 183.25 80.50 C 190.17 80.50 187.75 80.17 190.50 81.50 C 193.25 82.83 192.00 82.67 191.50 84.50 C 191.00 86.33 191.83 85.50 189.00 87.00 C 186.17 88.50 187.42 88.00 183.00 89.00 C 178.58 90.00 181.00 89.67 175.75 90.00 C 170.50 90.33 171.50 88.17 167.25 90.00 C 163.00 91.83 164.42 90.00 163.00 95.50 C 161.58 101.00 163.25 100.75 163.00 106.50 C 162.75 112.25 163.00 110.17 162.25 112.75 C 161.50 115.33 162.08 113.67 160.75 114.25 C 159.42 114.83 160.25 114.75 158.25 114.50 C 156.25 114.25 156.75 114.50 154.75 113.50 C 152.75 112.50 153.58 113.17 152.25 111.50 C 150.92 109.83 151.42 110.42 150.75 108.50 C 150.08 106.58 150.25 107.50 150.25 105.75 C 150.25 104.00 150.25 104.67 150.75 103.25 C 151.25 101.83 150.92 102.42 151.75 101.50 C 152.58 100.58 152.58 101.92 153.25 100.50 C 153.92 99.08 153.75 100.17 153.75 97.25 C 153.75 94.33 154.08 94.42 153.25 91.75 C 152.42 89.08 153.08 89.92 151.25 89.25 C 149.42 88.58 149.75 90.00 147.75 89.75 C 145.75 89.50 146.58 89.92 145.25 88.50 C 143.92 87.08 144.17 87.33 143.75 85.50 C 143.33 83.67 143.25 84.50 144.00 83.00 C 144.75 81.50 144.50 81.92 146.00 81.00 C 147.50 80.08 146.67 80.33 148.50 80.25 C 150.33 80.17 150.17 84.25 151.50 80.75 C 152.83 77.25 152.50 80.92 152.50 69.75 C 152.50 58.58 151.75 59.42 151.50 47.25 C 151.25 35.08 151.17 39.75 151.75 33.25 C 152.33 26.75 152.50 30.50 153.25 27.75 C 154.00 25.00 153.62 26.38 154.00 25.00" class="hole" fill="#ddf0e9" fill-rule="evenodd" />
    <path d="M 28.00 78.00 C 28.25 77.88 28.00 78.00 28.50 77.75 C 29.00 77.50 28.67 76.92 29.50 77.25 C 30.33 77.58 29.83 77.08 31.00 78.75 C 32.17 80.42 32.25 79.75 33.00 82.25 C 33.75 84.75 33.67 83.42 33.25 86.25 C 32.83 89.08 32.75 88.75 31.75 90.75 C 30.75 92.75 31.25 92.25 30.25 92.25 C 29.25 92.25 29.50 91.50 28.75 90.75 C 28.00 90.00 28.38 90.38 28.00 90.00" class="hole" fill="#ddf0e9" fill-rule="evenodd" />
    <path d="M 54.00 53.00 C 55.00 53.00 54.00 53.00 56.00 53.00 C 58.00 53.00 57.75 52.42 60.00 53.00 C 62.25 53.58 61.33 53.00 62.75 54.75 C 64.17 56.50 63.75 56.00 64.25 58.25 C 64.75 60.50 64.75 59.42 64.25 61.50 C 63.75 63.58 64.17 62.58 62.75 64.50 C 61.33 66.42 62.25 65.50 60.00 67.25 C 57.75 69.00 58.75 68.83 56.00 69.75 C 53.25 70.67 54.67 70.58 51.75 70.00 C 48.83 69.42 49.83 68.67 47.25 68.00 C 44.67 67.33 45.75 67.33 44.00 68.00 C 42.25 68.67 43.00 68.58 42.00 70.00 C 41.00 71.42 41.33 70.67 41.00 72.25 C 40.67 73.83 40.42 72.92 41.00 74.75 C 41.58 76.58 41.00 75.58 42.75 77.75 C 44.50 79.92 44.92 78.67 46.25 81.25 C 47.58 83.83 47.42 82.42 46.75 85.50 C 46.08 88.58 45.25 86.83 44.25 90.50 C 43.25 94.17 43.42 92.17 43.75 96.50 C 44.08 100.83 44.33 99.92 45.25 103.50 C 46.17 107.08 45.75 105.83 46.50 107.25 C 47.25 108.67 46.75 107.92 47.50 107.75 C 48.25 107.58 47.83 107.92 48.75 106.75 C 49.67 105.58 49.08 105.25 50.25 104.25 C 51.42 103.25 50.75 103.42 52.25 103.75 C 53.75 104.08 53.58 104.08 54.75 105.25 C 55.92 106.42 55.58 105.75 55.75 107.25 C 55.92 108.75 56.08 108.08 55.25 109.75 C 54.42 111.42 55.08 110.58 53.25 112.25 C 51.42 113.92 52.17 113.83 49.75 114.75 C 47.33 115.67 48.58 115.58 46.00 115.00 C 43.42 114.42 44.50 114.92 42.00 113.00 C 39.50 111.08 40.67 112.33 38.50 109.25 C 36.33 106.17 36.92 107.33 35.50 103.75 C 34.08 100.17 34.50 101.92 34.25 98.50 C 34.00 95.08 34.17 96.58 34.75 93.50 C 35.33 90.42 34.92 91.83 36.00 89.25 C 37.08 86.67 37.50 88.17 38.00 85.75 C 38.50 83.33 38.67 84.58 37.50 82.00 C 36.33 79.42 36.00 80.58 34.50 78.00 C 33.00 75.42 33.50 76.67 33.00 74.25 C 32.50 71.83 32.25 73.50 33.00 70.75 C 33.75 68.00 33.00 69.58 35.25 66.00 C 37.50 62.42 36.83 63.33 39.75 60.00 C 42.67 56.67 41.25 58.00 44.00 56.00 C 46.75 54.00 46.00 55.00 48.00 54.00 C 50.00 53.00 49.00 53.50 50.00 53.00" class="hole" fill="#ddf0e9" fill-rule="evenodd" />
    <path d="M 27.00 23.00 C 27.38 23.00 27.00 23.00 27.75 23.00 C 28.50 23.00 28.25 22.50 29.25 23.00 C 30.25 23.50 29.75 23.00 30.75 24.50 C 31.75 26.00 32.17 23.67 32.25 27.50 C 32.33 31.33 32.75 28.50 31.00 36.00 C 29.25 43.50 29.00 39.58 27.00 50.00 C 25.00 60.42 25.67 54.67 25.00 67.25 C 24.33 79.83 24.67 76.25 25.00 87.75 C 25.33 99.25 25.00 94.58 26.00 101.75 C 27.00 108.92 26.67 105.92 28.00 109.25 C 29.33 112.58 28.67 111.75 30.00 111.75 C 31.33 111.75 30.75 110.50 32.00 109.25 C 33.25 108.00 32.67 108.42 33.75 108.00 C 34.83 107.58 34.42 107.50 35.25 108.00 C 36.08 108.50 35.75 108.00 36.25 109.50 C 36.75 111.00 37.17 110.33 36.75 112.50 C 36.33 114.67 36.92 113.50 35.00 116.00 C 33.08 118.50 33.42 118.17 31.00 120.00 C 28.58 121.83 29.67 121.33 27.75 121.50 C 25.83 121.67 26.92 121.67 25.25 120.50 C 23.58 119.33 24.42 120.17 22.75 118.00 C 21.08 115.83 21.75 116.92 20.25 114.00 C 18.75 111.08 19.42 112.67 18.25 109.25 C 17.08 105.83 17.50 109.83 16.75 103.75 C 16.00 97.67 16.25 101.92 16.00 91.00 C 15.75 80.08 15.33 83.92 16.00 71.00 C 16.67 58.08 16.00 64.33 18.00 52.25 C 20.00 40.17 20.00 43.50 22.00 34.75 C 24.00 26.00 23.00 30.38 24.00 26.00" class="hole" fill="#ddf0e9" fill-rule="evenodd" />
    <path d="M 102.00 20.00 C 102.38 20.00 102.00 20.00 102.75 20.00 C 103.50 20.00 103.25 19.67 104.25 20.00 C 105.25 20.33 104.75 20.00 105.75 21.00 C 106.75 22.00 106.67 20.08 107.25 23.00 C 107.83 25.92 107.75 23.67 107.50 29.75 C 107.25 35.83 106.58 33.33 106.50 41.25 C 106.42 49.17 106.17 45.08 107.25 53.50 C 108.33 61.92 108.50 59.00 109.75 66.50 C 111.00 74.00 110.58 70.83 111.00 76.00 C 111.42 81.17 110.25 79.83 111.00 82.00 C 111.75 84.17 111.00 84.00 113.25 82.50 C 115.50 81.00 114.83 79.83 117.75 77.50 C 120.67 75.17 119.25 75.83 122.00 75.50 C 124.75 75.17 123.50 75.00 126.00 76.50 C 128.50 78.00 127.33 76.83 129.50 80.00 C 131.67 83.17 131.00 82.25 132.50 86.00 C 134.00 89.75 133.50 88.00 134.00 91.25 C 134.50 94.50 133.58 93.58 134.00 95.75 C 134.42 97.92 134.00 97.25 135.25 97.75 C 136.50 98.25 136.33 97.33 137.75 97.25 C 139.17 97.17 138.58 97.08 139.50 97.50 C 140.42 97.92 140.25 97.17 140.50 98.50 C 140.75 99.83 140.83 98.83 140.25 101.50 C 139.67 104.17 139.83 103.67 138.75 106.50 C 137.67 109.33 138.25 108.17 137.00 110.00 C 135.75 111.83 136.33 111.00 135.00 112.00 C 133.67 113.00 134.33 112.67 133.00 113.00 C 131.67 113.33 132.25 113.25 131.00 113.00 C 129.75 112.75 130.33 113.00 129.25 112.25 C 128.17 111.50 128.83 113.67 127.75 110.75 C 126.67 107.83 127.25 110.25 126.00 103.50 C 124.75 96.75 125.33 96.83 124.00 90.50 C 122.67 84.17 123.33 86.17 122.00 84.50 C 120.67 82.83 121.33 84.42 120.00 85.50 C 118.67 86.58 119.33 85.83 118.00 87.75 C 116.67 89.67 117.25 88.42 116.00 91.25 C 114.75 94.08 115.33 92.42 114.25 96.25 C 113.17 100.08 113.92 99.42 112.75 102.75 C 111.58 106.08 112.25 104.92 110.75 106.25 C 109.25 107.58 109.75 106.75 108.25 106.75 C 106.75 106.75 107.42 106.92 106.25 106.25 C 105.08 105.58 105.50 106.92 104.75 104.75 C 104.00 102.58 104.25 104.25 104.00 99.75 C 103.75 95.25 104.50 98.58 104.00 91.25 C 103.50 83.92 104.00 88.42 102.50 77.75 C 101.00 67.08 100.83 70.83 99.50 59.25 C 98.17 47.67 98.50 53.08 98.50 43.00 C 98.50 32.92 99.00 36.00 99.50 29.00 C 100.00 22.00 99.75 25.50 100.00 22.00" class="hole" fill="#ddf0e9" fill-rule="evenodd" />
  </g>
</svg>