<?xml version='1.0' encoding='utf-8'?>
<svg xmlns="http://www.w3.org/2000/svg" version="1.1" width="295" height="199" viewBox="0 0 295 199" style="background: transparent;">
  <defs>
    <style>
        .handwriting {
            fill: none;
            stroke: #e5f3ee;
            stroke-width: 2.00;
            stroke-linecap: round;
            stroke-linejoin: round;
            stroke-opacity: 0.95;
        }
        .hole {
            fill: #e5f3ee;
            stroke: none;
            opacity: 0.95;
        }
    </style>
  </defs>
  <g class="handwriting">
    <path d="M 260.00 110.00 C 260.75 110.25 260.00 110.00 261.50 110.50 C 263.00 111.00 263.00 110.25 264.50 111.50 C 266.00 112.75 265.50 111.83 266.00 114.25 C 266.50 116.67 266.25 116.33 266.00 118.75 C 265.75 121.17 266.00 120.25 265.25 121.50 C 264.50 122.75 265.00 122.08 263.75 122.50 C 262.50 122.92 263.25 122.83 261.50 122.75 C 259.75 122.67 260.17 122.75 258.50 122.25 C 256.83 121.75 257.50 122.08 256.50 121.25 C 255.50 120.42 255.83 121.00 255.50 119.75 C 255.17 118.50 255.17 119.25 255.50 117.50 C 255.83 115.75 256.00 116.00 256.50 114.50 C 257.00 113.00 256.75 113.75 257.00 113.00" class="hole" fill="#e5f3ee" fill-rule="evenodd" />
    <path d="M 141.00 107.00 C 141.88 107.00 141.00 107.00 142.75 107.00 C 144.50 107.00 144.42 106.83 146.25 107.00 C 148.08 107.17 147.42 107.00 148.25 107.50 C 149.08 108.00 149.08 107.67 148.75 108.50 C 148.42 109.33 148.92 108.83 147.25 110.00 C 145.58 111.17 145.83 111.25 143.75 112.00 C 141.67 112.75 142.58 112.67 141.00 112.25 C 139.42 111.83 140.00 111.50 139.00 110.75 C 138.00 110.00 138.50 110.38 138.00 110.00" class="hole" fill="#e5f3ee" fill-rule="evenodd" />
    <path d="M 167.00 82.00 C 167.62 82.12 167.00 82.00 168.25 82.25 C 169.50 82.50 169.17 82.17 170.75 82.75 C 172.33 83.33 171.58 82.92 173.00 84.00 C 174.42 85.08 173.75 84.08 175.00 86.00 C 176.25 87.92 175.67 86.67 176.75 89.75 C 177.83 92.83 177.17 92.92 178.25 95.25 C 179.33 97.58 178.75 97.08 180.00 96.75 C 181.25 96.42 180.17 95.92 182.00 94.25 C 183.83 92.58 182.67 93.42 185.50 91.75 C 188.33 90.08 187.42 90.50 190.50 89.25 C 193.58 88.00 192.17 88.42 194.75 88.00 C 197.33 87.58 196.08 87.58 198.25 88.00 C 200.42 88.42 199.42 88.00 201.25 89.25 C 203.08 90.50 202.67 88.33 203.75 91.75 C 204.83 95.17 204.58 92.58 204.50 99.50 C 204.42 106.42 204.33 105.83 203.50 112.50 C 202.67 119.17 203.17 116.83 202.00 119.50 C 200.83 122.17 201.33 120.25 200.00 120.50 C 198.67 120.75 199.33 120.83 198.00 120.25 C 196.67 119.67 197.08 120.08 196.00 118.75 C 194.92 117.42 195.33 118.25 194.75 116.25 C 194.17 114.25 194.17 115.50 194.25 112.75 C 194.33 110.00 194.08 111.58 195.00 108.00 C 195.92 104.42 196.08 105.25 197.00 102.00 C 197.92 98.75 197.67 100.00 197.75 98.25 C 197.83 96.50 198.42 97.08 197.25 96.75 C 196.08 96.42 197.08 96.25 194.25 97.25 C 191.42 98.25 191.83 98.17 188.75 99.75 C 185.67 101.33 186.92 100.58 185.00 102.00 C 183.08 103.42 184.17 102.33 183.00 104.00 C 181.83 105.67 182.33 104.67 181.50 107.00 C 180.67 109.33 181.33 108.67 180.50 111.00 C 179.67 113.33 180.17 112.33 179.00 114.00 C 177.83 115.67 178.25 115.08 177.00 116.00 C 175.75 116.92 176.33 116.67 175.25 116.75 C 174.17 116.83 174.75 116.92 173.75 116.25 C 172.75 115.58 173.25 116.08 172.25 114.75 C 171.25 113.42 171.42 114.50 170.75 112.25 C 170.08 110.00 170.25 111.42 170.25 108.00 C 170.25 104.58 171.00 105.83 170.75 102.00 C 170.50 98.17 170.92 100.00 169.50 96.50 C 168.08 93.00 168.00 94.42 166.50 91.50 C 165.00 88.58 165.50 89.83 165.00 87.75 C 164.50 85.67 165.00 86.50 165.00 85.25 C 165.00 84.00 165.00 84.62 165.00 84.00" class="hole" fill="#e5f3ee" fill-rule="evenodd" />
    <path d="M 99.00 83.00 C 99.38 82.88 99.00 83.00 99.75 82.75 C 100.50 82.50 99.83 82.25 101.25 82.25 C 102.67 82.25 101.75 82.08 104.00 82.75 C 106.25 83.42 105.42 82.92 108.00 84.25 C 110.58 85.58 109.33 84.75 111.75 86.75 C 114.17 88.75 113.33 87.33 115.25 90.25 C 117.17 93.17 116.42 91.42 117.50 95.50 C 118.58 99.58 118.25 98.75 118.50 102.50 C 118.75 106.25 118.83 104.83 118.25 106.75 C 117.67 108.67 117.25 107.50 116.75 108.25 C 116.25 109.00 116.25 108.75 116.75 109.00 C 117.25 109.25 117.33 108.58 118.25 109.00 C 119.17 109.42 118.75 109.00 119.50 110.25 C 120.25 111.50 120.75 110.83 120.50 112.75 C 120.25 114.67 120.83 113.58 118.75 116.00 C 116.67 118.42 117.83 117.50 114.25 120.00 C 110.67 122.50 112.75 121.33 108.00 123.50 C 103.25 125.67 104.92 125.25 100.00 126.50 C 95.08 127.75 97.33 127.50 93.25 127.25 C 89.17 127.00 90.75 127.00 87.75 125.75 C 84.75 124.50 85.92 125.25 84.25 123.50 C 82.58 121.75 83.50 122.58 82.75 120.50 C 82.00 118.42 82.25 119.50 82.00 117.25 C 81.75 115.00 81.00 116.33 82.00 113.75 C 83.00 111.17 82.00 112.58 85.00 109.50 C 88.00 106.42 87.50 107.17 91.00 104.50 C 94.50 101.83 93.00 102.83 95.50 101.50 C 98.00 100.17 96.08 100.92 98.50 100.50 C 100.92 100.08 99.50 100.17 102.75 100.25 C 106.00 100.33 105.67 101.08 108.25 100.75 C 110.83 100.42 110.08 100.92 110.50 99.25 C 110.92 97.58 110.33 97.75 109.50 95.75 C 108.67 93.75 109.17 94.58 108.00 93.25 C 106.83 91.92 107.58 92.50 106.00 91.75 C 104.42 91.00 105.33 91.25 103.25 91.00 C 101.17 90.75 102.00 90.33 99.75 91.00 C 97.50 91.67 98.58 91.00 96.50 93.00 C 94.42 95.00 95.50 95.17 93.50 97.00 C 91.50 98.83 92.50 98.33 90.50 98.50 C 88.50 98.67 88.75 98.75 87.50 97.50 C 86.25 96.25 86.50 97.17 86.75 94.75 C 87.00 92.33 86.83 92.92 88.25 90.25 C 89.67 87.58 88.75 88.75 91.00 86.75 C 93.25 84.75 93.00 85.50 95.00 84.25 C 97.00 83.00 96.00 83.62 97.00 83.00" class="hole" fill="#e5f3ee" fill-rule="evenodd" />
    <path d="M 206.00 61.00 C 207.12 60.88 206.00 61.00 208.25 60.75 C 210.50 60.50 210.17 60.33 212.75 60.25 C 215.33 60.17 214.25 60.08 216.00 60.50 C 217.75 60.92 216.58 60.25 218.00 61.50 C 219.42 62.75 218.67 61.83 220.25 64.25 C 221.83 66.67 222.00 65.92 222.75 68.75 C 223.50 71.58 223.58 70.25 222.50 72.75 C 221.42 75.25 221.75 74.33 219.50 76.25 C 217.25 78.17 218.50 77.42 215.75 78.50 C 213.00 79.58 214.08 79.42 211.25 79.50 C 208.42 79.58 209.75 79.83 207.25 78.75 C 204.75 77.67 205.42 77.75 203.75 76.25 C 202.08 74.75 202.58 75.42 202.25 74.25 C 201.92 73.08 202.33 73.67 202.75 72.75 C 203.17 71.83 202.92 72.25 203.50 71.50 C 204.08 70.75 203.33 70.83 204.50 70.50 C 205.67 70.17 204.83 70.17 207.00 70.50 C 209.17 70.83 208.83 71.25 211.00 71.50 C 213.17 71.75 212.33 71.83 213.50 71.25 C 214.67 70.67 214.25 70.67 214.50 69.75 C 214.75 68.83 214.83 69.25 214.25 68.50 C 213.67 67.75 214.17 67.92 212.75 67.50 C 211.33 67.08 212.25 67.17 210.00 67.25 C 207.75 67.33 208.50 67.00 206.00 67.75 C 203.50 68.50 204.67 67.92 202.50 69.50 C 200.33 71.08 200.92 70.50 199.50 72.50 C 198.08 74.50 198.50 73.50 198.25 75.50 C 198.00 77.50 198.67 76.83 198.75 78.50 C 198.83 80.17 198.92 79.50 198.50 80.50 C 198.08 81.50 198.50 81.17 197.50 81.50 C 196.50 81.83 197.17 81.83 195.50 81.50 C 193.83 81.17 194.00 81.67 192.50 80.50 C 191.00 79.33 191.50 80.17 191.00 78.00 C 190.50 75.83 190.67 76.50 191.00 74.00 C 191.33 71.50 191.00 72.67 192.00 70.50 C 193.00 68.33 192.33 69.42 194.00 67.50 C 195.67 65.58 194.67 66.50 197.00 64.75 C 199.33 63.00 199.00 63.50 201.00 62.25 C 203.00 61.00 202.00 61.62 203.00 61.00" class="hole" fill="#e5f3ee" fill-rule="evenodd" />
    <path d="M 92.00 42.00 C 92.38 41.88 92.00 42.00 92.75 41.75 C 93.50 41.50 93.08 41.17 94.25 41.25 C 95.42 41.33 94.75 41.08 96.25 42.00 C 97.75 42.92 97.58 42.42 98.75 44.00 C 99.92 45.58 99.58 44.67 99.75 46.75 C 99.92 48.83 101.58 44.33 99.25 50.25 C 96.92 56.17 99.08 51.42 92.75 64.50 C 86.42 77.58 87.67 73.33 80.25 89.50 C 72.83 105.67 76.08 97.83 70.50 113.00 C 64.92 128.17 67.08 122.67 63.50 135.00 C 59.92 147.33 61.17 142.33 59.75 150.00 C 58.33 157.67 59.33 153.42 59.25 158.00 C 59.17 162.58 59.08 160.67 59.50 163.75 C 59.92 166.83 59.67 165.33 60.50 167.25 C 61.33 169.17 60.83 168.42 62.00 169.50 C 63.17 170.58 62.50 170.50 64.00 170.50 C 65.50 170.50 64.67 170.83 66.50 169.50 C 68.33 168.17 67.75 168.00 69.50 166.50 C 71.25 165.00 70.50 165.50 71.75 165.00 C 73.00 164.50 72.33 164.75 73.25 165.00 C 74.17 165.25 73.75 165.00 74.50 165.75 C 75.25 166.50 75.92 165.58 75.50 167.25 C 75.08 168.92 75.83 167.75 73.25 170.75 C 70.67 173.75 71.17 173.75 67.75 176.25 C 64.33 178.75 65.92 178.08 63.00 178.25 C 60.08 178.42 61.42 178.17 59.00 176.75 C 56.58 175.33 57.67 176.25 55.75 174.00 C 53.83 171.75 54.50 174.00 53.25 170.00 C 52.00 166.00 52.42 168.67 52.00 162.00 C 51.58 155.33 51.17 158.75 52.00 150.00 C 52.83 141.25 52.00 146.00 54.50 135.75 C 57.00 125.50 56.08 129.67 59.50 119.25 C 62.92 108.83 61.17 113.75 64.75 104.50 C 68.33 95.25 65.92 100.92 70.25 91.50 C 74.58 82.08 72.08 87.17 77.75 76.25 C 83.42 65.33 82.75 67.50 87.25 58.75 C 91.75 50.00 90.42 52.92 91.25 50.00 C 92.08 47.08 92.08 48.25 89.75 50.00 C 87.42 51.75 89.25 50.00 84.25 55.25 C 79.25 60.50 80.58 58.42 74.75 65.75 C 68.92 73.08 71.58 69.25 66.75 77.25 C 61.92 85.25 63.83 82.33 60.25 89.75 C 56.67 97.17 58.08 93.92 56.00 99.50 C 53.92 105.08 55.33 102.75 54.00 106.50 C 52.67 110.25 53.33 108.83 52.00 110.75 C 50.67 112.67 51.42 111.75 50.00 112.25 C 48.58 112.75 49.33 112.75 47.75 112.25 C 46.17 111.75 46.50 111.92 45.25 110.75 C 44.00 109.58 44.42 110.25 44.00 108.75 C 43.58 107.25 43.17 109.83 44.00 106.25 C 44.83 102.67 44.00 105.42 46.50 98.00 C 49.00 90.58 49.58 90.42 51.50 84.00 C 53.42 77.58 53.17 79.33 52.25 78.75 C 51.33 78.17 51.33 78.75 48.75 82.25 C 46.17 85.75 47.58 83.42 44.50 89.25 C 41.42 95.08 42.50 94.17 39.50 99.75 C 36.50 105.33 37.83 103.25 35.50 106.00 C 33.17 108.75 34.25 107.17 32.50 108.00 C 30.75 108.83 31.50 108.67 30.25 108.50 C 29.00 108.33 29.58 108.50 28.75 107.50 C 27.92 106.50 28.25 107.17 27.75 105.50 C 27.25 103.83 26.83 104.92 27.25 102.50 C 27.67 100.08 27.08 101.50 29.00 98.25 C 30.92 95.00 30.75 97.17 33.00 92.75 C 35.25 88.33 34.33 90.92 35.75 85.00 C 37.17 79.08 36.75 80.17 37.25 75.00 C 37.75 69.83 37.75 71.67 37.25 69.50 C 36.75 67.33 37.08 68.58 35.75 68.50 C 34.42 68.42 35.25 68.17 33.25 69.25 C 31.25 70.33 31.33 70.25 29.75 71.75 C 28.17 73.25 28.58 72.58 28.50 73.75 C 28.42 74.92 29.08 74.08 29.50 75.25 C 29.92 76.42 29.83 75.75 29.75 77.25 C 29.67 78.75 30.00 77.75 29.25 79.75 C 28.50 81.75 29.08 80.58 27.50 83.25 C 25.92 85.92 26.58 85.83 24.50 87.75 C 22.42 89.67 23.50 89.25 21.25 89.00 C 19.00 88.75 19.50 88.58 17.75 87.00 C 16.00 85.42 16.58 86.33 16.00 84.25 C 15.42 82.17 15.58 83.25 16.00 80.75 C 16.42 78.25 16.00 79.58 17.25 76.75 C 18.50 73.92 17.58 75.25 19.75 72.25 C 21.92 69.25 20.58 70.75 23.75 67.75 C 26.92 64.75 25.92 65.50 29.25 63.25 C 32.58 61.00 31.08 61.75 33.75 61.00 C 36.42 60.25 35.08 60.67 37.25 61.00 C 39.42 61.33 38.42 61.00 40.25 62.00 C 42.08 63.00 41.50 62.00 42.75 64.00 C 44.00 66.00 43.58 64.67 44.00 68.00 C 44.42 71.33 43.00 71.92 44.00 74.00 C 45.00 76.08 44.00 76.00 47.00 74.25 C 50.00 72.50 49.58 71.17 53.00 68.75 C 56.42 66.33 55.00 66.92 57.25 67.00 C 59.50 67.08 58.50 67.67 59.75 69.00 C 61.00 70.33 60.58 69.67 61.00 71.00 C 61.42 72.33 59.83 73.67 61.00 73.00 C 62.17 72.33 61.00 73.67 64.50 69.00 C 68.00 64.33 66.67 65.00 71.50 59.00 C 76.33 53.00 73.83 55.67 79.00 51.00 C 84.17 46.33 83.00 48.00 87.00 45.00 C 91.00 42.00 89.00 43.50 91.00 42.00" class="hole" fill="#e5f3ee" fill-rule="evenodd" />
    <path d="M 149.00 23.00 C 149.62 23.38 149.00 23.00 150.25 23.75 C 151.50 24.50 151.83 22.83 152.75 25.25 C 153.67 27.67 153.58 25.75 153.00 31.00 C 152.42 36.25 152.00 34.33 151.00 41.00 C 150.00 47.67 150.33 44.33 150.00 51.00 C 149.67 57.67 149.25 53.08 150.00 61.00 C 150.75 68.92 150.00 64.33 152.25 74.75 C 154.50 85.17 154.83 83.25 156.75 92.25 C 158.67 101.25 158.25 98.08 158.00 101.75 C 157.75 105.42 158.25 102.58 156.00 103.25 C 153.75 103.92 155.33 103.75 151.25 103.75 C 147.17 103.75 148.17 102.92 143.75 103.25 C 139.33 103.58 141.25 103.08 138.00 104.75 C 134.75 106.42 135.83 106.08 134.00 108.25 C 132.17 110.42 132.67 109.42 132.50 111.25 C 132.33 113.08 132.58 112.33 133.50 113.75 C 134.42 115.17 133.83 114.58 135.25 115.50 C 136.67 116.42 135.75 116.17 137.75 116.50 C 139.75 116.83 138.58 116.83 141.25 116.50 C 143.92 116.17 142.75 116.75 145.75 115.50 C 148.75 114.25 147.25 115.17 150.25 112.75 C 153.25 110.33 152.08 110.42 154.75 108.25 C 157.42 106.08 156.25 106.75 158.25 106.25 C 160.25 105.75 159.50 106.08 160.75 106.75 C 162.00 107.42 161.58 106.92 162.00 108.25 C 162.42 109.58 163.00 108.67 162.00 110.75 C 161.00 112.83 162.00 111.58 159.00 114.50 C 156.00 117.42 156.58 116.83 153.00 119.50 C 149.42 122.17 151.00 121.17 148.25 122.50 C 145.50 123.83 147.33 123.00 144.75 123.50 C 142.17 124.00 143.58 123.83 140.50 124.00 C 137.42 124.17 138.67 124.58 135.50 124.00 C 132.33 123.42 133.83 124.00 131.00 122.25 C 128.17 120.50 129.00 121.50 127.00 118.75 C 125.00 116.00 125.67 117.58 125.00 114.00 C 124.33 110.42 124.58 111.50 125.00 108.00 C 125.42 104.50 125.00 106.00 126.25 103.50 C 127.50 101.00 126.83 102.33 128.75 100.50 C 130.67 98.67 129.58 99.50 132.00 98.00 C 134.42 96.50 132.92 97.00 136.00 96.00 C 139.08 95.00 137.33 95.33 141.25 95.00 C 145.17 94.67 144.92 95.92 147.75 95.00 C 150.58 94.08 149.92 95.00 149.75 92.25 C 149.58 89.50 148.83 91.58 147.25 86.75 C 145.67 81.92 146.42 84.92 145.00 77.75 C 143.58 70.58 143.67 74.25 143.00 65.25 C 142.33 56.25 142.33 61.08 143.00 50.75 C 143.67 40.42 144.00 42.50 145.00 34.25 C 146.00 26.00 145.50 30.12 146.00 26.00" class="hole" fill="#e5f3ee" fill-rule="evenodd" />
    <path d="M 253.00 21.00 C 253.38 20.88 253.00 21.00 253.75 20.75 C 254.50 20.50 254.25 20.08 255.25 20.25 C 256.25 20.42 255.75 20.08 256.75 21.25 C 257.75 22.42 258.17 22.00 258.25 23.75 C 258.33 25.50 258.75 24.58 257.00 26.50 C 255.25 28.42 255.33 27.33 253.00 29.50 C 250.67 31.67 251.67 30.50 250.00 33.00 C 248.33 35.50 249.33 33.00 248.00 37.00 C 246.67 41.00 247.33 38.33 246.00 45.00 C 244.67 51.67 244.92 48.25 244.00 57.00 C 243.08 65.75 243.33 61.00 243.25 71.25 C 243.17 81.50 243.42 79.08 243.75 87.75 C 244.08 96.42 243.92 93.25 244.25 97.25 C 244.58 101.25 243.92 97.75 244.75 99.75 C 245.58 101.75 244.92 100.58 246.75 103.25 C 248.58 105.92 248.92 105.08 250.25 107.75 C 251.58 110.42 251.42 109.25 250.75 111.25 C 250.08 113.25 249.92 112.67 248.25 113.75 C 246.58 114.83 247.42 114.58 245.75 114.50 C 244.08 114.42 244.67 114.42 243.25 113.50 C 241.83 112.58 242.42 113.17 241.50 111.75 C 240.58 110.33 242.67 110.17 240.50 109.25 C 238.33 108.33 240.17 108.42 235.00 109.00 C 229.83 109.58 229.92 109.58 225.00 111.00 C 220.08 112.42 221.67 111.67 220.25 113.25 C 218.83 114.83 219.83 114.25 220.75 115.75 C 221.67 117.25 220.92 116.58 223.00 117.75 C 225.08 118.92 223.67 118.92 227.00 119.25 C 230.33 119.58 228.33 119.75 233.00 118.75 C 237.67 117.75 236.67 117.33 241.00 116.25 C 245.33 115.17 243.67 115.42 246.00 115.50 C 248.33 115.58 247.00 115.67 248.00 116.50 C 249.00 117.33 248.67 116.83 249.00 118.00 C 249.33 119.17 249.25 118.75 249.00 120.00 C 248.75 121.25 249.00 120.67 248.25 121.75 C 247.50 122.83 248.58 122.17 246.75 123.25 C 244.92 124.33 246.25 123.75 242.75 125.00 C 239.25 126.25 240.83 126.25 236.25 127.00 C 231.67 127.75 234.08 127.67 229.00 127.25 C 223.92 126.83 225.42 127.00 221.00 125.75 C 216.58 124.50 218.33 125.25 215.75 123.50 C 213.17 121.75 214.58 122.67 213.25 120.50 C 211.92 118.33 212.42 119.50 211.75 117.00 C 211.08 114.50 211.00 115.58 211.25 113.00 C 211.50 110.42 211.08 111.67 212.50 109.25 C 213.92 106.83 212.92 107.83 215.50 105.75 C 218.08 103.67 216.50 104.58 220.25 103.00 C 224.00 101.42 222.92 101.92 226.75 101.00 C 230.58 100.08 228.92 100.33 231.75 100.25 C 234.58 100.17 233.67 101.42 235.25 100.75 C 236.83 100.08 236.42 100.92 236.50 98.25 C 236.58 95.58 235.92 98.50 235.50 92.75 C 235.08 87.00 235.17 90.92 235.25 81.00 C 235.33 71.08 235.25 73.25 235.75 63.00 C 236.25 52.75 235.92 57.00 236.75 50.25 C 237.58 43.50 237.08 47.42 238.25 42.75 C 239.42 38.08 238.75 40.25 240.25 36.25 C 241.75 32.25 240.83 34.08 242.75 30.75 C 244.67 27.42 243.58 28.92 246.00 26.25 C 248.42 23.58 248.00 24.50 250.00 22.75 C 252.00 21.00 251.00 21.88 252.00 21.00" class="hole" fill="#e5f3ee" fill-rule="evenodd" />
  </g>
</svg>