<?xml version='1.0' encoding='utf-8'?>
<svg xmlns="http://www.w3.org/2000/svg" version="1.1" width="381" height="154" viewBox="0 0 381 154" style="background: transparent;">
  <defs>
    <style>
        .handwriting {
            fill: none;
            stroke: #eaf5f1;
            stroke-width: 2.00;
            stroke-linecap: round;
            stroke-linejoin: round;
            stroke-opacity: 0.95;
        }
        .hole {
            fill: #eaf5f1;
            stroke: none;
            opacity: 0.95;
        }
    </style>
  </defs>
  <g class="handwriting">
    <path d="M 337.00 93.00 C 337.50 93.00 337.00 93.00 338.00 93.00 C 339.00 93.00 338.67 92.33 340.00 93.00 C 341.33 93.67 340.67 93.00 342.00 95.00 C 343.33 97.00 343.25 96.75 344.00 99.00 C 344.75 101.25 344.67 100.33 344.25 101.75 C 343.83 103.17 343.92 102.50 342.75 103.25 C 341.58 104.00 342.25 103.75 340.75 104.00 C 339.25 104.25 339.75 104.67 338.25 104.00 C 336.75 103.33 337.42 104.00 336.25 102.00 C 335.08 100.00 335.50 100.00 334.75 98.00 C 334.00 96.00 334.38 97.00 334.00 96.00" class="hole" fill="#eaf5f1" fill-rule="evenodd" />
    <path d="M 130.00 70.00 C 130.75 70.25 130.00 70.00 131.50 70.50 C 133.00 71.00 133.58 70.50 134.50 71.50 C 135.42 72.50 135.50 71.83 134.25 73.50 C 133.00 75.17 132.75 75.17 130.75 76.50 C 128.75 77.83 129.58 77.50 128.25 77.50 C 126.92 77.50 127.42 77.25 126.75 76.50 C 126.08 75.75 126.25 76.17 126.25 75.25 C 126.25 74.33 126.50 74.50 126.75 73.75 C 127.00 73.00 126.88 73.38 127.00 73.00" class="hole" fill="#eaf5f1" fill-rule="evenodd" />
    <path d="M 296.00 53.00 C 296.38 53.00 296.00 53.00 296.75 53.00 C 297.50 53.00 297.17 52.42 298.25 53.00 C 299.33 53.58 298.75 53.00 300.00 54.75 C 301.25 56.50 300.58 56.25 302.00 58.25 C 303.42 60.25 302.67 59.42 304.25 60.75 C 305.83 62.08 305.33 60.75 306.75 62.25 C 308.17 63.75 307.58 62.75 308.50 65.25 C 309.42 67.75 309.17 65.25 309.50 69.75 C 309.83 74.25 309.83 71.25 309.50 78.75 C 309.17 86.25 309.58 83.83 308.50 92.25 C 307.42 100.67 308.17 96.75 306.25 104.00 C 304.33 111.25 305.25 108.42 302.75 114.00 C 300.25 119.58 301.58 117.33 298.75 120.75 C 295.92 124.17 298.00 122.42 294.25 124.25 C 290.50 126.08 292.75 125.42 287.50 126.25 C 282.25 127.08 283.92 127.25 278.50 126.75 C 273.08 126.25 275.50 126.92 271.25 124.75 C 267.00 122.58 268.33 122.92 265.75 120.25 C 263.17 117.58 263.92 118.75 263.50 116.75 C 263.08 114.75 263.75 115.50 264.50 114.25 C 265.25 113.00 264.83 113.42 265.75 113.00 C 266.67 112.58 266.00 112.50 267.25 113.00 C 268.50 113.50 267.75 113.00 269.50 114.50 C 271.25 116.00 270.00 116.08 272.50 117.50 C 275.00 118.92 273.50 118.50 277.00 118.75 C 280.50 119.00 279.42 118.83 283.00 118.25 C 286.58 117.67 285.00 118.08 287.75 117.00 C 290.50 115.92 289.08 117.25 291.25 115.00 C 293.42 112.75 292.42 114.33 294.25 110.25 C 296.08 106.17 295.25 108.58 296.75 102.75 C 298.25 96.92 297.58 100.25 298.75 92.75 C 299.92 85.25 300.25 85.58 300.25 80.25 C 300.25 74.92 300.75 76.08 298.75 76.75 C 296.75 77.42 297.25 79.83 294.25 82.25 C 291.25 84.67 292.75 84.08 289.75 84.00 C 286.75 83.92 288.00 82.33 285.25 82.00 C 282.50 81.67 283.75 81.33 281.50 83.00 C 279.25 84.67 280.58 85.00 278.50 87.00 C 276.42 89.00 277.50 88.33 275.25 89.00 C 273.00 89.67 273.83 89.58 271.75 89.00 C 269.67 88.42 270.58 89.00 269.00 87.25 C 267.42 85.50 268.00 86.92 267.00 83.75 C 266.00 80.58 266.33 82.58 266.00 77.75 C 265.67 72.92 266.58 72.75 266.00 69.25 C 265.42 65.75 266.00 66.42 264.25 67.25 C 262.50 68.08 262.67 68.67 260.75 71.75 C 258.83 74.83 259.58 73.25 258.50 76.50 C 257.42 79.75 258.58 78.92 257.50 81.50 C 256.42 84.08 257.17 83.17 255.25 84.25 C 253.33 85.33 253.75 84.75 251.75 84.75 C 249.75 84.75 250.58 84.92 249.25 84.25 C 247.92 83.58 248.33 84.17 247.75 82.75 C 247.17 81.33 247.25 82.25 247.50 80.00 C 247.75 77.75 248.08 79.33 248.50 76.00 C 248.92 72.67 248.83 74.67 248.75 70.00 C 248.67 65.33 248.25 66.25 248.25 62.00 C 248.25 57.75 248.08 59.33 248.75 57.25 C 249.42 55.17 249.08 56.42 250.25 55.75 C 251.42 55.08 250.75 55.25 252.25 55.25 C 253.75 55.25 253.42 54.67 254.75 55.75 C 256.08 56.83 255.58 55.92 256.25 58.50 C 256.92 61.08 255.75 62.00 256.75 63.50 C 257.75 65.00 256.92 65.17 259.25 63.00 C 261.58 60.83 260.92 59.67 263.75 57.00 C 266.58 54.33 265.25 55.00 267.75 55.00 C 270.25 55.00 269.33 54.08 271.25 57.00 C 273.17 59.92 272.42 57.67 273.50 63.75 C 274.58 69.83 273.42 69.92 274.50 75.25 C 275.58 80.58 274.83 79.08 276.75 79.75 C 278.67 80.42 278.42 79.33 280.25 77.25 C 282.08 75.17 281.42 76.42 282.25 73.50 C 283.08 70.58 281.58 71.92 282.75 68.50 C 283.92 65.08 282.92 66.83 285.75 63.25 C 288.58 59.67 288.50 60.50 291.25 57.75 C 294.00 55.00 292.62 56.38 294.00 55.00" class="hole" fill="#eaf5f1" fill-rule="evenodd" />
    <path d="M 169.00 58.00 C 169.62 57.88 169.00 58.00 170.25 57.75 C 171.50 57.50 171.33 56.92 172.75 57.25 C 174.17 57.58 173.58 57.08 174.50 58.75 C 175.42 60.42 176.00 60.00 175.50 62.25 C 175.00 64.50 175.83 63.42 173.00 65.50 C 170.17 67.58 170.17 66.67 167.00 68.50 C 163.83 70.33 165.00 69.50 163.50 71.00 C 162.00 72.50 162.92 71.25 162.50 73.00 C 162.08 74.75 162.17 73.67 162.25 76.25 C 162.33 78.83 162.75 78.25 162.75 80.75 C 162.75 83.25 162.92 82.25 162.25 83.75 C 161.58 85.25 161.92 84.50 160.75 85.25 C 159.58 86.00 160.25 85.75 158.75 86.00 C 157.25 86.25 157.75 86.25 156.25 86.00 C 154.75 85.75 155.42 86.00 154.25 85.25 C 153.08 84.50 153.58 86.25 152.75 83.75 C 151.92 81.25 152.25 83.25 151.75 77.75 C 151.25 72.25 151.25 72.83 151.25 67.25 C 151.25 61.67 151.08 63.75 151.75 61.00 C 152.42 58.25 152.17 59.92 153.25 59.00 C 154.33 58.08 153.75 58.33 155.00 58.25 C 156.25 58.17 155.83 58.17 157.00 58.75 C 158.17 59.33 157.67 58.92 158.50 60.00 C 159.33 61.08 158.42 61.42 159.50 62.00 C 160.58 62.58 159.83 62.67 161.75 61.75 C 163.67 60.83 163.50 60.50 165.25 59.25 C 167.00 58.00 166.12 58.62 167.00 58.00" class="hole" fill="#eaf5f1" fill-rule="evenodd" />
    <path d="M 223.00 54.00 C 223.75 54.38 223.00 54.00 224.50 54.75 C 226.00 55.50 226.33 53.75 227.50 56.25 C 228.67 58.75 228.50 56.75 228.00 62.25 C 227.50 67.75 227.00 67.17 226.00 72.75 C 225.00 78.33 225.33 76.25 225.00 79.00 C 224.67 81.75 224.67 79.75 225.00 81.00 C 225.33 82.25 225.00 81.67 226.00 82.75 C 227.00 83.83 227.08 82.92 228.00 84.25 C 228.92 85.58 228.67 84.75 228.75 86.75 C 228.83 88.75 229.25 88.33 228.25 90.25 C 227.25 92.17 228.08 91.42 225.75 92.50 C 223.42 93.58 223.67 93.25 221.25 93.50 C 218.83 93.75 219.75 93.83 218.50 93.25 C 217.25 92.67 218.08 93.50 217.50 91.75 C 216.92 90.00 217.17 91.25 216.75 88.00 C 216.33 84.75 216.17 86.83 216.25 82.00 C 216.33 77.17 216.08 80.00 217.00 73.50 C 217.92 67.00 218.00 68.00 219.00 62.50 C 220.00 57.00 219.50 59.75 220.00 57.00" class="hole" fill="#eaf5f1" fill-rule="evenodd" />
    <path d="M 183.00 54.00 C 183.75 54.62 183.00 54.00 184.50 55.25 C 186.00 56.50 186.08 55.67 187.50 57.75 C 188.92 59.83 188.50 58.58 188.75 61.50 C 189.00 64.42 187.75 64.92 188.25 66.50 C 188.75 68.08 188.08 68.17 190.25 66.25 C 192.42 64.33 192.00 63.58 194.75 60.75 C 197.50 57.92 196.25 58.92 198.50 57.75 C 200.75 56.58 199.75 57.25 201.50 57.25 C 203.25 57.25 202.50 57.08 203.75 57.75 C 205.00 58.42 204.42 57.25 205.25 59.25 C 206.08 61.25 205.75 59.75 206.25 63.75 C 206.75 67.75 206.67 66.75 206.75 71.25 C 206.83 75.75 206.92 73.75 206.50 77.25 C 206.08 80.75 205.67 79.33 205.50 81.75 C 205.33 84.17 205.17 83.25 206.00 84.50 C 206.83 85.75 207.08 84.42 208.00 85.50 C 208.92 86.58 208.67 85.83 208.75 87.75 C 208.83 89.67 209.00 89.08 208.25 91.25 C 207.50 93.42 208.08 92.42 206.50 94.25 C 204.92 96.08 205.50 95.75 203.50 96.75 C 201.50 97.75 202.50 97.58 200.50 97.25 C 198.50 96.92 198.75 98.92 197.50 95.75 C 196.25 92.58 196.50 95.25 196.75 87.75 C 197.00 80.25 198.25 79.33 198.25 73.25 C 198.25 67.17 198.75 68.42 196.75 69.50 C 194.75 70.58 194.50 72.58 192.25 76.50 C 190.00 80.42 190.75 78.83 190.00 81.25 C 189.25 83.67 190.25 82.25 190.00 83.75 C 189.75 85.25 190.00 84.58 189.25 85.75 C 188.50 86.92 189.17 86.67 187.75 87.25 C 186.33 87.83 187.25 87.75 185.00 87.50 C 182.75 87.25 182.92 88.75 181.00 86.50 C 179.08 84.25 179.67 86.17 179.25 80.75 C 178.83 75.33 179.67 75.92 179.75 70.25 C 179.83 64.58 179.92 66.75 179.50 63.75 C 179.08 60.75 178.75 62.83 178.50 61.25 C 178.25 59.67 178.17 60.42 178.75 59.00 C 179.33 57.58 179.50 58.00 180.25 57.00 C 181.00 56.00 180.62 56.50 181.00 56.00" class="hole" fill="#eaf5f1" fill-rule="evenodd" />
    <path d="M 58.00 49.00 C 58.62 49.38 58.00 49.00 59.25 49.75 C 60.50 50.50 60.50 49.00 61.75 51.25 C 63.00 53.50 62.58 51.75 63.00 56.50 C 63.42 61.25 61.83 62.33 63.00 65.50 C 64.17 68.67 63.00 68.50 66.50 66.00 C 70.00 63.50 69.33 61.58 73.50 58.00 C 77.67 54.42 75.83 55.33 79.00 55.25 C 82.17 55.17 80.83 55.67 83.00 57.75 C 85.17 59.83 84.33 58.58 85.50 61.50 C 86.67 64.42 85.00 65.08 86.50 66.50 C 88.00 67.92 86.83 68.17 90.00 65.75 C 93.17 63.33 92.58 62.50 96.00 59.25 C 99.42 56.00 98.00 57.08 100.25 56.00 C 102.50 54.92 101.08 55.67 102.75 56.00 C 104.42 56.33 103.58 56.00 105.25 57.00 C 106.92 58.00 106.42 56.75 107.75 59.00 C 109.08 61.25 108.58 59.67 109.25 63.75 C 109.92 67.83 109.00 68.58 109.75 71.25 C 110.50 73.92 109.92 73.75 111.50 71.75 C 113.08 69.75 112.33 68.92 114.50 65.25 C 116.67 61.58 115.50 63.08 118.00 60.75 C 120.50 58.42 119.58 59.50 122.00 58.25 C 124.42 57.00 123.33 57.42 125.25 57.00 C 127.17 56.58 125.58 56.83 127.75 57.00 C 129.92 57.17 128.58 57.00 131.75 57.50 C 134.92 58.00 134.00 57.67 137.25 58.50 C 140.50 59.33 139.08 58.83 141.50 60.00 C 143.92 61.17 142.83 60.75 144.50 62.00 C 146.17 63.25 145.50 62.67 146.50 63.75 C 147.50 64.83 147.00 63.67 147.50 65.25 C 148.00 66.83 147.83 65.75 148.00 68.50 C 148.17 71.25 148.25 70.67 148.00 73.50 C 147.75 76.33 148.00 75.17 147.25 77.00 C 146.50 78.83 147.83 77.08 145.75 79.00 C 143.67 80.92 145.25 79.67 141.00 82.75 C 136.75 85.83 138.00 85.67 133.00 88.25 C 128.00 90.83 130.33 90.08 126.00 90.50 C 121.67 90.92 123.33 90.83 120.00 89.50 C 116.67 88.17 118.00 89.17 116.00 86.50 C 114.00 83.83 115.50 83.25 114.00 81.50 C 112.50 79.75 113.33 79.83 111.50 81.25 C 109.67 82.67 110.50 83.50 108.50 85.75 C 106.50 88.00 107.50 87.25 105.50 88.00 C 103.50 88.75 104.17 88.67 102.50 88.00 C 100.83 87.33 101.50 88.00 100.50 86.00 C 99.50 84.00 99.75 85.25 99.50 82.00 C 99.25 78.75 99.17 80.67 99.75 76.25 C 100.33 71.83 100.75 72.50 101.25 68.75 C 101.75 65.00 101.75 66.25 101.25 65.00 C 100.75 63.75 101.25 63.83 99.75 65.00 C 98.25 66.17 99.25 65.00 96.75 68.50 C 94.25 72.00 94.58 71.17 92.25 75.50 C 89.92 79.83 90.75 77.83 89.75 81.50 C 88.75 85.17 90.00 83.83 89.25 86.50 C 88.50 89.17 89.08 88.17 87.50 89.50 C 85.92 90.83 86.42 90.25 84.50 90.50 C 82.58 90.75 83.50 90.83 81.75 90.25 C 80.00 89.67 80.25 90.75 79.25 88.75 C 78.25 86.75 78.42 88.25 78.75 84.25 C 79.08 80.25 79.67 81.17 80.25 76.75 C 80.83 72.33 80.75 74.25 80.50 71.00 C 80.25 67.75 80.25 69.08 79.50 67.00 C 78.75 64.92 79.17 65.67 78.25 64.75 C 77.33 63.83 78.25 63.50 76.75 64.25 C 75.25 65.00 76.25 64.08 73.75 67.00 C 71.25 69.92 71.58 69.17 69.25 73.00 C 66.92 76.83 67.75 75.00 66.75 78.50 C 65.75 82.00 66.67 80.83 66.25 83.50 C 65.83 86.17 66.08 85.17 65.50 86.50 C 64.92 87.83 65.58 87.08 64.50 87.50 C 63.42 87.92 64.17 87.83 62.25 87.75 C 60.33 87.67 60.67 87.67 58.75 87.25 C 56.83 86.83 57.58 87.08 56.50 86.50 C 55.42 85.92 55.92 88.83 55.50 85.50 C 55.08 82.17 55.17 85.17 55.25 76.50 C 55.33 67.83 55.50 68.00 55.75 59.50 C 56.00 51.00 55.88 55.25 56.00 51.00" class="hole" fill="#eaf5f1" fill-rule="evenodd" />
    <path d="M 221.00 33.00 C 222.50 32.88 221.00 33.00 224.00 32.75 C 227.00 32.50 226.50 32.08 230.00 32.25 C 233.50 32.42 232.00 32.08 234.50 33.25 C 237.00 34.42 236.00 34.08 237.50 35.75 C 239.00 37.42 238.50 36.58 239.00 38.25 C 239.50 39.92 239.75 38.92 239.00 40.75 C 238.25 42.58 239.00 41.58 236.75 43.75 C 234.50 45.92 235.67 45.42 232.25 47.25 C 228.83 49.08 230.75 48.42 226.50 49.25 C 222.25 50.08 223.25 49.25 219.50 49.75 C 215.75 50.25 217.17 49.92 215.25 50.75 C 213.33 51.58 214.83 51.75 213.75 52.25 C 212.67 52.75 213.25 52.75 212.00 52.25 C 210.75 51.75 211.00 51.92 210.00 50.75 C 209.00 49.58 209.33 50.25 209.00 48.75 C 208.67 47.25 208.58 48.33 209.00 46.25 C 209.42 44.17 209.00 45.42 210.25 42.50 C 211.50 39.58 211.17 40.17 212.75 37.50 C 214.33 34.83 213.58 35.83 215.00 34.50 C 216.42 33.17 216.00 34.00 217.00 33.50 C 218.00 33.00 217.50 33.25 218.00 33.00" class="hole" fill="#eaf5f1" fill-rule="evenodd" />
  </g>
</svg>