<?xml version='1.0' encoding='utf-8'?>
<svg xmlns="http://www.w3.org/2000/svg" version="1.1" width="211" height="105" viewBox="0 0 211 105" style="background: transparent;">
  <defs>
    <style>
        .handwriting {
            fill: none;
            stroke: #d5ece3;
            stroke-width: 2.00;
            stroke-linecap: round;
            stroke-linejoin: round;
            stroke-opacity: 0.95;
        }
        .hole {
            fill: #d5ece3;
            stroke: none;
            opacity: 0.95;
        }
    </style>
  </defs>
  <g class="handwriting">
    <path d="M 76.00 57.00 C 76.62 57.25 76.00 57.00 77.25 57.50 C 78.50 58.00 78.58 57.67 79.75 58.50 C 80.92 59.33 80.58 58.83 80.75 60.00 C 80.92 61.17 80.92 60.75 80.25 62.00 C 79.58 63.25 80.08 62.67 78.75 63.75 C 77.42 64.83 77.67 65.00 76.25 65.25 C 74.83 65.50 75.42 65.75 74.50 64.50 C 73.58 63.25 74.00 63.00 73.50 61.50 C 73.00 60.00 73.25 60.75 73.00 60.00" class="hole" fill="#d5ece3" fill-rule="evenodd" />
    <path d="M 142.00 50.00 C 142.25 49.88 142.00 50.00 142.50 49.75 C 143.00 49.50 142.92 49.33 143.50 49.25 C 144.08 49.17 143.83 49.08 144.25 49.50 C 144.67 49.92 144.83 49.58 144.75 50.50 C 144.67 51.42 144.92 50.83 144.00 52.25 C 143.08 53.67 143.25 53.67 142.00 54.75 C 140.75 55.83 141.33 55.58 140.25 55.50 C 139.17 55.42 139.25 55.33 138.75 54.50 C 138.25 53.67 138.25 54.17 138.75 53.00 C 139.25 51.83 139.50 52.00 140.25 51.00 C 141.00 50.00 140.62 50.50 141.00 50.00" class="hole" fill="#d5ece3" fill-rule="evenodd" />
    <path d="M 99.00 47.00 C 99.75 47.38 99.00 47.00 100.50 47.75 C 102.00 48.50 102.08 47.00 103.50 49.25 C 104.92 51.50 104.50 49.75 104.75 54.50 C 105.00 59.25 104.33 58.00 104.25 63.50 C 104.17 69.00 104.08 66.50 104.50 71.00 C 104.92 75.50 105.33 73.83 105.50 77.00 C 105.67 80.17 105.83 79.00 105.00 80.50 C 104.17 82.00 104.33 81.33 103.00 81.50 C 101.67 81.67 102.33 81.83 101.00 81.00 C 99.67 80.17 100.25 80.75 99.00 79.00 C 97.75 77.25 98.33 78.33 97.25 75.75 C 96.17 73.17 96.42 75.08 95.75 71.25 C 95.08 67.42 95.25 69.75 95.25 64.25 C 95.25 58.75 95.50 59.50 95.75 54.75 C 96.00 50.00 95.88 52.38 96.00 50.00" class="hole" fill="#d5ece3" fill-rule="evenodd" />
    <path d="M 135.00 40.00 C 135.75 39.88 135.00 40.00 136.50 39.75 C 138.00 39.50 137.75 39.00 139.50 39.25 C 141.25 39.50 140.50 39.08 141.75 40.50 C 143.00 41.92 143.58 41.67 143.25 43.50 C 142.92 45.33 143.75 44.50 140.75 46.00 C 137.75 47.50 137.67 46.58 134.25 48.00 C 130.83 49.42 132.08 48.67 130.50 50.25 C 128.92 51.83 129.08 51.00 129.50 52.75 C 129.92 54.50 129.17 53.58 131.75 55.50 C 134.33 57.42 134.17 56.42 137.25 58.50 C 140.33 60.58 139.08 59.50 141.00 61.75 C 142.92 64.00 142.08 63.17 143.00 65.25 C 143.92 67.33 143.67 66.42 143.75 68.00 C 143.83 69.58 144.42 68.33 143.25 70.00 C 142.08 71.67 143.08 70.67 140.25 73.00 C 137.42 75.33 139.08 74.75 134.75 77.00 C 130.42 79.25 132.92 78.33 127.25 79.75 C 121.58 81.17 122.92 80.75 117.75 81.25 C 112.58 81.75 114.58 81.75 111.75 81.25 C 108.92 80.75 110.33 81.00 109.25 79.75 C 108.17 78.50 108.42 79.25 108.50 77.50 C 108.58 75.75 107.92 76.00 109.50 74.50 C 111.08 73.00 109.83 73.50 113.25 73.00 C 116.67 72.50 115.50 73.42 119.75 73.00 C 124.00 72.58 121.92 73.00 126.00 71.75 C 130.08 70.50 129.17 70.75 132.00 69.25 C 134.83 67.75 134.00 68.42 134.50 67.25 C 135.00 66.08 134.75 66.75 133.50 65.75 C 132.25 64.75 133.17 65.25 130.75 64.25 C 128.33 63.25 128.92 64.00 126.25 62.75 C 123.58 61.50 124.75 62.25 122.75 60.50 C 120.75 58.75 121.33 59.75 120.25 57.50 C 119.17 55.25 119.42 56.50 119.50 53.75 C 119.58 51.00 119.58 51.92 120.50 49.25 C 121.42 46.58 120.83 47.75 122.25 45.75 C 123.67 43.75 123.00 44.67 124.75 43.25 C 126.50 41.83 125.58 42.42 127.50 41.50 C 129.42 40.58 129.00 41.00 130.50 40.50 C 132.00 40.00 131.25 40.25 132.00 40.00" class="hole" fill="#d5ece3" fill-rule="evenodd" />
    <path d="M 40.00 39.00 C 40.50 39.00 40.00 39.00 41.00 39.00 C 42.00 39.00 41.42 38.25 43.00 39.00 C 44.58 39.75 43.67 39.00 45.75 41.25 C 47.83 43.50 47.58 41.83 49.25 45.75 C 50.92 49.67 50.42 47.25 50.75 53.00 C 51.08 58.75 49.92 58.58 50.25 63.00 C 50.58 67.42 50.08 66.33 51.75 66.25 C 53.42 66.17 53.25 65.17 55.25 62.75 C 57.25 60.33 56.42 61.58 57.75 59.00 C 59.08 56.42 57.83 57.50 59.25 55.00 C 60.67 52.50 59.75 53.67 62.00 51.50 C 64.25 49.33 62.75 50.17 66.00 48.50 C 69.25 46.83 67.33 47.50 71.75 46.50 C 76.17 45.50 74.83 45.58 79.25 45.50 C 83.67 45.42 81.75 45.17 85.00 46.25 C 88.25 47.33 86.83 47.25 89.00 48.75 C 91.17 50.25 90.33 49.58 91.50 50.75 C 92.67 51.92 92.08 50.42 92.50 52.25 C 92.92 54.08 92.83 52.75 92.75 56.25 C 92.67 59.75 93.42 58.50 92.25 62.75 C 91.08 67.00 92.08 64.92 89.25 69.00 C 86.42 73.08 87.08 71.83 83.75 75.00 C 80.42 78.17 81.92 77.00 79.25 78.50 C 76.58 80.00 78.17 79.17 75.75 79.50 C 73.33 79.83 74.58 79.83 72.00 79.50 C 69.42 79.17 70.50 79.50 68.00 78.50 C 65.50 77.50 66.67 78.17 64.50 76.50 C 62.33 74.83 63.08 75.42 61.50 73.50 C 59.92 71.58 60.50 72.50 59.75 70.75 C 59.00 69.00 60.33 68.50 59.25 68.25 C 58.17 68.00 59.08 67.42 56.50 70.00 C 53.92 72.58 54.50 72.92 51.50 76.00 C 48.50 79.08 49.83 78.00 47.50 79.25 C 45.17 80.50 46.25 79.92 44.50 79.75 C 42.75 79.58 43.50 79.92 42.25 78.75 C 41.00 77.58 41.25 78.50 40.75 76.25 C 40.25 74.00 40.25 75.42 40.75 72.00 C 41.25 68.58 41.50 70.08 42.25 66.00 C 43.00 61.92 42.75 64.00 43.00 59.75 C 43.25 55.50 43.17 56.75 43.00 53.25 C 42.83 49.75 43.00 51.08 42.50 49.25 C 42.00 47.42 42.50 48.17 41.50 47.75 C 40.50 47.33 41.17 47.25 39.50 48.00 C 37.83 48.75 38.67 47.92 36.50 50.00 C 34.33 52.08 35.50 50.67 33.00 54.25 C 30.50 57.83 31.17 56.42 29.00 60.75 C 26.83 65.08 27.67 62.92 26.50 67.25 C 25.33 71.58 26.25 70.25 25.50 73.75 C 24.75 77.25 25.17 75.92 24.25 77.75 C 23.33 79.58 24.08 78.67 22.75 79.25 C 21.42 79.83 22.25 79.75 20.25 79.50 C 18.25 79.25 18.42 82.00 16.75 78.50 C 15.08 75.00 15.58 78.17 15.25 69.00 C 14.92 59.83 15.00 60.08 15.75 51.00 C 16.50 41.92 15.92 45.00 17.50 41.75 C 19.08 38.50 18.67 41.17 20.50 41.25 C 22.33 41.33 21.50 41.08 23.00 42.00 C 24.50 42.92 24.17 42.08 25.00 44.00 C 25.83 45.92 25.67 44.67 25.50 47.75 C 25.33 50.83 23.92 51.92 24.50 53.25 C 25.08 54.58 24.17 55.08 27.25 51.75 C 30.33 48.42 30.50 47.50 33.75 43.25 C 37.00 39.00 35.38 41.12 37.00 39.00" class="hole" fill="#d5ece3" fill-rule="evenodd" />
    <path d="M 103.00 19.00 C 104.62 19.00 103.00 19.00 106.25 19.00 C 109.50 19.00 109.17 18.50 112.75 19.00 C 116.33 19.50 114.92 19.00 117.00 20.50 C 119.08 22.00 118.00 21.58 119.00 23.50 C 120.00 25.42 119.67 24.50 120.00 26.25 C 120.33 28.00 120.42 27.00 120.00 28.75 C 119.58 30.50 120.00 29.58 118.75 31.50 C 117.50 33.42 117.92 32.83 116.25 34.50 C 114.58 36.17 115.42 35.50 113.75 36.50 C 112.08 37.50 113.00 37.00 111.25 37.50 C 109.50 38.00 110.42 37.83 108.50 38.00 C 106.58 38.17 107.58 38.50 105.50 38.00 C 103.42 37.50 104.50 38.00 102.25 36.50 C 100.00 35.00 100.33 33.92 98.75 33.50 C 97.17 33.08 97.58 32.50 97.50 35.25 C 97.42 38.00 98.25 38.25 98.50 41.75 C 98.75 45.25 98.83 43.92 98.25 45.75 C 97.67 47.58 98.08 47.08 96.75 47.25 C 95.42 47.42 96.25 47.75 94.25 46.25 C 92.25 44.75 92.42 45.33 90.75 42.75 C 89.08 40.17 89.58 41.58 89.25 38.50 C 88.92 35.42 88.50 37.00 89.75 33.50 C 91.00 30.00 89.92 31.83 93.00 28.00 C 96.08 24.17 96.00 25.00 99.00 22.00 C 102.00 19.00 100.50 20.50 102.00 19.00" class="hole" fill="#d5ece3" fill-rule="evenodd" />
  </g>
</svg>