<?xml version='1.0' encoding='utf-8'?>
<svg xmlns="http://www.w3.org/2000/svg" version="1.1" width="380" height="143" viewBox="0 0 380 143" style="background: transparent;">
  <defs>
    <style>
        .handwriting {
            fill: none;
            stroke: #e0f1eb;
            stroke-width: 2.00;
            stroke-linecap: round;
            stroke-linejoin: round;
            stroke-opacity: 0.95;
        }
        .hole {
            fill: #e0f1eb;
            stroke: none;
            opacity: 0.95;
        }
    </style>
  </defs>
  <g class="handwriting">
    <path d="M 358.00 94.00 C 358.88 94.62 358.00 94.00 359.75 95.25 C 361.50 96.50 361.58 96.17 363.25 97.75 C 364.92 99.33 364.42 98.58 364.75 100.00 C 365.08 101.42 364.75 100.75 364.25 102.00 C 363.75 103.25 364.08 102.67 363.25 103.75 C 362.42 104.83 362.75 104.58 361.75 105.25 C 360.75 105.92 361.25 105.75 360.25 105.75 C 359.25 105.75 359.75 105.75 358.75 105.25 C 357.75 104.75 358.25 105.08 357.25 104.25 C 356.25 103.42 356.50 103.92 355.75 102.75 C 355.00 101.58 355.25 102.25 355.00 100.75 C 354.75 99.25 355.00 99.50 355.00 98.25 C 355.00 97.00 355.00 97.62 355.00 97.00" class="hole" fill="#e0f1eb" fill-rule="evenodd" />
    <path d="M 63.00 69.00 C 63.75 69.38 63.00 69.00 64.50 69.75 C 66.00 70.50 66.08 69.00 67.50 71.25 C 68.92 73.50 68.50 71.75 68.75 76.50 C 69.00 81.25 68.17 81.17 68.25 85.50 C 68.33 89.83 68.08 88.50 69.00 89.50 C 69.92 90.50 69.83 90.00 71.00 88.50 C 72.17 87.00 71.67 88.17 72.50 85.00 C 73.33 81.83 72.58 82.50 73.50 79.00 C 74.42 75.50 73.83 77.00 75.25 74.50 C 76.67 72.00 75.92 72.67 77.75 71.50 C 79.58 70.33 78.58 70.50 80.75 71.00 C 82.92 71.50 83.42 70.08 84.25 73.00 C 85.08 75.92 85.42 73.67 83.25 79.75 C 81.08 85.83 80.75 85.25 77.75 91.25 C 74.75 97.25 75.92 95.08 74.25 97.75 C 72.58 100.42 74.00 98.50 72.75 99.25 C 71.50 100.00 72.25 99.75 70.50 100.00 C 68.75 100.25 69.33 100.33 67.50 100.00 C 65.67 99.67 66.50 100.00 65.00 99.00 C 63.50 98.00 64.25 98.67 63.00 97.00 C 61.75 95.33 62.33 96.33 61.25 94.00 C 60.17 91.67 60.42 93.33 59.75 90.00 C 59.08 86.67 59.25 88.67 59.25 84.00 C 59.25 79.33 59.50 80.00 59.75 76.00 C 60.00 72.00 59.88 74.00 60.00 72.00" class="hole" fill="#e0f1eb" fill-rule="evenodd" />
    <path d="M 99.00 68.00 C 99.75 67.88 99.00 68.00 100.50 67.75 C 102.00 67.50 101.67 67.25 103.50 67.25 C 105.33 67.25 104.50 67.08 106.00 67.75 C 107.50 68.42 106.67 67.75 108.00 69.25 C 109.33 70.75 108.67 69.75 110.00 72.25 C 111.33 74.75 111.00 73.83 112.00 76.75 C 113.00 79.67 112.67 78.25 113.00 81.00 C 113.33 83.75 113.42 82.67 113.00 85.00 C 112.58 87.33 113.00 86.33 111.75 88.00 C 110.50 89.67 111.75 89.08 109.25 90.00 C 106.75 90.92 108.42 90.67 104.25 90.75 C 100.08 90.83 100.67 91.00 96.75 90.25 C 92.83 89.50 94.25 90.08 92.50 88.50 C 90.75 86.92 92.17 86.50 91.50 85.50 C 90.83 84.50 91.17 84.50 90.50 85.50 C 89.83 86.50 89.83 86.50 89.50 88.50 C 89.17 90.50 89.17 89.50 89.50 91.50 C 89.83 93.50 89.42 92.58 90.50 94.50 C 91.58 96.42 90.83 95.50 92.75 97.25 C 94.67 99.00 94.08 98.50 96.25 99.75 C 98.42 101.00 97.42 100.58 99.25 101.00 C 101.08 101.42 99.83 101.67 101.75 101.00 C 103.67 100.33 102.58 101.00 105.00 99.00 C 107.42 97.00 106.58 96.83 109.00 95.00 C 111.42 93.17 110.33 93.67 112.25 93.50 C 114.17 93.33 114.08 93.08 114.75 94.50 C 115.42 95.92 115.58 94.83 114.25 97.75 C 112.92 100.67 113.00 100.25 110.75 103.25 C 108.50 106.25 109.58 105.08 107.50 106.75 C 105.42 108.42 107.00 107.67 104.50 108.25 C 102.00 108.83 103.50 108.75 100.00 108.50 C 96.50 108.25 97.75 108.75 94.00 107.50 C 90.25 106.25 92.00 107.17 88.75 104.75 C 85.50 102.33 86.50 103.33 84.25 100.25 C 82.00 97.17 82.75 98.75 82.00 95.50 C 81.25 92.25 81.75 93.58 82.00 90.50 C 82.25 87.42 82.00 88.83 82.75 86.25 C 83.50 83.67 82.50 85.58 84.25 82.75 C 86.00 79.92 84.75 81.58 88.00 77.75 C 91.25 73.92 91.00 74.50 94.00 71.25 C 97.00 68.00 95.50 69.62 97.00 68.00" class="hole" fill="#e0f1eb" fill-rule="evenodd" />
    <path d="M 140.00 65.00 C 142.25 65.12 140.00 65.00 144.50 65.25 C 149.00 65.50 148.17 64.58 153.50 65.75 C 158.83 66.92 156.50 65.92 160.50 68.75 C 164.50 71.58 162.75 70.25 165.50 74.25 C 168.25 78.25 167.17 76.08 168.75 80.75 C 170.33 85.42 169.75 84.25 170.25 88.25 C 170.75 92.25 170.75 90.75 170.25 92.75 C 169.75 94.75 169.92 93.50 168.75 94.25 C 167.58 95.00 168.25 94.75 166.75 95.00 C 165.25 95.25 165.67 95.50 164.25 95.00 C 162.83 94.50 163.42 95.00 162.50 93.50 C 161.58 92.00 162.25 92.08 161.50 90.50 C 160.75 88.92 161.17 89.50 160.25 88.75 C 159.33 88.00 160.25 88.00 158.75 88.25 C 157.25 88.50 158.25 88.08 155.75 89.50 C 153.25 90.92 153.33 90.67 151.25 92.50 C 149.17 94.33 149.75 93.50 149.50 95.00 C 149.25 96.50 148.75 95.92 150.50 97.00 C 152.25 98.08 150.83 97.67 154.75 98.25 C 158.67 98.83 157.75 98.92 162.25 98.75 C 166.75 98.58 164.75 98.92 168.25 97.75 C 171.75 96.58 170.33 96.00 172.75 95.25 C 175.17 94.50 174.25 94.42 175.50 95.50 C 176.75 96.58 176.58 96.50 176.50 98.50 C 176.42 100.50 176.83 99.50 175.25 101.50 C 173.67 103.50 174.42 102.83 171.75 104.50 C 169.08 106.17 170.58 105.50 167.25 106.50 C 163.92 107.50 165.25 107.08 161.75 107.50 C 158.25 107.92 159.92 107.83 156.75 107.75 C 153.58 107.67 155.17 108.00 152.25 107.25 C 149.33 106.50 150.75 107.08 148.00 105.50 C 145.25 103.92 146.08 104.75 144.00 102.50 C 141.92 100.25 142.67 101.50 141.75 98.75 C 140.83 96.00 141.33 96.75 141.25 94.25 C 141.17 91.75 141.08 92.75 141.50 91.25 C 141.92 89.75 141.42 91.08 142.50 89.75 C 143.58 88.42 142.83 89.25 144.75 87.25 C 146.67 85.25 145.67 85.58 148.25 83.75 C 150.83 81.92 149.42 82.58 152.50 81.75 C 155.58 80.92 155.58 82.08 157.50 81.25 C 159.42 80.42 159.17 81.08 158.25 79.25 C 157.33 77.42 157.00 77.42 154.75 75.75 C 152.50 74.08 153.58 74.58 151.50 74.25 C 149.42 73.92 150.08 74.17 148.50 74.75 C 146.92 75.33 147.50 74.92 146.75 76.00 C 146.00 77.08 146.83 76.75 146.25 78.00 C 145.67 79.25 146.08 78.67 145.00 79.75 C 143.92 80.83 144.33 80.83 143.00 81.25 C 141.67 81.67 142.33 81.75 141.00 81.00 C 139.67 80.25 140.50 78.58 139.00 79.00 C 137.50 79.42 138.33 78.33 136.50 82.25 C 134.67 86.17 135.58 86.17 133.50 90.75 C 131.42 95.33 132.50 93.58 130.25 96.00 C 128.00 98.42 129.08 98.00 126.75 98.00 C 124.42 98.00 125.58 98.67 123.25 96.00 C 120.92 93.33 121.83 94.00 119.75 90.00 C 117.67 86.00 118.58 88.00 117.00 84.00 C 115.42 80.00 115.92 81.42 115.00 78.00 C 114.08 74.58 114.33 76.00 114.25 73.75 C 114.17 71.50 114.08 72.58 114.75 71.25 C 115.42 69.92 114.92 70.42 116.25 69.75 C 117.58 69.08 117.25 69.33 118.75 69.25 C 120.25 69.17 119.58 69.08 120.75 69.50 C 121.92 69.92 121.17 68.83 122.25 70.50 C 123.33 72.17 122.75 70.83 124.00 74.50 C 125.25 78.17 124.33 79.25 126.00 81.50 C 127.67 83.75 126.67 83.83 129.00 81.25 C 131.33 78.67 131.00 77.50 133.00 73.75 C 135.00 70.00 134.00 71.88 135.00 70.00" class="hole" fill="#e0f1eb" fill-rule="evenodd" />
    <path d="M 19.00 37.00 C 19.38 37.00 19.00 37.00 19.75 37.00 C 20.50 37.00 20.17 36.58 21.25 37.00 C 22.33 37.42 21.75 37.00 23.00 38.25 C 24.25 39.50 23.58 37.75 25.00 40.75 C 26.42 43.75 25.67 41.58 27.25 47.25 C 28.83 52.92 27.58 50.75 29.75 57.75 C 31.92 64.75 30.58 61.25 33.75 68.25 C 36.92 75.25 36.00 76.58 39.25 78.75 C 42.50 80.92 41.08 82.25 43.50 74.75 C 45.92 67.25 44.75 65.83 46.50 56.25 C 48.25 46.67 47.50 50.08 48.75 46.00 C 50.00 41.92 49.17 45.00 50.25 44.00 C 51.33 43.00 50.75 43.33 52.00 43.00 C 53.25 42.67 52.75 42.75 54.00 43.00 C 55.25 43.25 54.67 43.00 55.75 43.75 C 56.83 44.50 57.08 42.92 57.25 45.25 C 57.42 47.58 57.75 45.75 56.25 50.75 C 54.75 55.75 54.58 53.17 52.75 60.25 C 50.92 67.33 51.58 63.42 50.75 72.00 C 49.92 80.58 51.00 78.58 50.25 86.00 C 49.50 93.42 50.08 90.67 48.50 94.25 C 46.92 97.83 47.25 95.58 45.50 96.75 C 43.75 97.92 44.50 97.58 43.25 97.75 C 42.00 97.92 43.33 98.67 41.75 97.25 C 40.17 95.83 41.25 97.08 38.50 93.50 C 35.75 89.92 36.58 91.33 33.50 86.50 C 30.42 81.67 31.83 84.17 29.25 79.00 C 26.67 73.83 27.42 72.75 25.75 71.00 C 24.08 69.25 24.58 68.33 24.25 73.75 C 23.92 79.17 24.25 80.25 24.75 87.25 C 25.25 94.25 24.92 91.75 25.75 94.75 C 26.58 97.75 26.50 95.17 27.25 96.25 C 28.00 97.33 27.75 96.75 28.00 98.00 C 28.25 99.25 28.42 98.58 28.00 100.00 C 27.58 101.42 28.00 100.67 26.75 102.25 C 25.50 103.83 26.08 103.83 24.25 104.75 C 22.42 105.67 23.42 105.58 21.25 105.00 C 19.08 104.42 19.58 104.50 17.75 103.00 C 15.92 101.50 16.58 102.33 15.75 100.50 C 14.92 98.67 15.25 99.67 15.25 97.50 C 15.25 95.33 15.08 96.50 15.75 94.00 C 16.42 91.50 16.50 95.33 17.25 90.00 C 18.00 84.67 17.75 88.67 18.00 78.00 C 18.25 67.33 18.25 68.42 18.00 58.00 C 17.75 47.58 18.00 51.33 17.25 46.75 C 16.50 42.17 16.42 45.75 15.75 44.25 C 15.08 42.75 15.25 43.42 15.25 42.25 C 15.25 41.08 15.50 41.50 15.75 40.75 C 16.00 40.00 15.88 40.38 16.00 40.00" class="hole" fill="#e0f1eb" fill-rule="evenodd" />
    <path d="M 226.00 23.00 C 226.62 23.62 226.00 23.00 227.25 24.25 C 228.50 25.50 229.33 23.92 229.75 26.75 C 230.17 29.58 230.58 27.58 228.50 32.75 C 226.42 37.92 226.25 36.25 223.50 42.25 C 220.75 48.25 221.83 45.42 220.25 50.75 C 218.67 56.08 220.75 51.17 218.75 58.25 C 216.75 65.33 218.25 60.75 214.25 72.00 C 210.25 83.25 210.42 81.58 206.75 92.00 C 203.08 102.42 204.25 98.67 203.25 103.25 C 202.25 107.83 202.83 105.25 203.75 105.75 C 204.67 106.25 203.92 106.58 206.00 104.75 C 208.08 102.92 207.67 102.50 210.00 100.25 C 212.33 98.00 211.33 98.75 213.00 98.00 C 214.67 97.25 214.00 97.42 215.00 98.00 C 216.00 98.58 215.67 98.00 216.00 99.75 C 216.33 101.50 217.08 100.58 216.00 103.25 C 214.92 105.92 216.00 104.42 212.75 107.75 C 209.50 111.08 210.00 110.50 206.25 113.25 C 202.50 116.00 204.08 115.08 201.50 116.00 C 198.92 116.92 200.25 116.25 198.50 116.00 C 196.75 115.75 197.50 116.00 196.25 115.25 C 195.00 114.50 195.42 115.50 194.75 113.75 C 194.08 112.00 194.25 113.25 194.25 110.00 C 194.25 106.75 193.83 108.92 194.75 104.00 C 195.67 99.08 194.92 102.00 197.00 95.25 C 199.08 88.50 199.75 90.75 201.00 83.75 C 202.25 76.75 202.33 79.92 200.75 74.25 C 199.17 68.58 199.08 72.83 196.25 66.75 C 193.42 60.67 194.75 64.25 192.25 56.00 C 189.75 47.75 190.33 49.17 188.75 42.00 C 187.17 34.83 187.58 37.33 187.50 34.50 C 187.42 31.67 187.42 33.83 188.50 33.50 C 189.58 33.17 188.83 33.17 190.75 33.50 C 192.67 33.83 192.17 32.42 194.25 34.50 C 196.33 36.58 195.42 34.83 197.00 39.75 C 198.58 44.67 197.58 43.25 199.00 49.25 C 200.42 55.25 199.67 52.42 201.25 57.75 C 202.83 63.08 202.33 61.50 203.75 65.25 C 205.17 69.00 204.58 67.75 205.50 69.00 C 206.42 70.25 205.67 70.58 206.50 69.00 C 207.33 67.42 206.83 69.00 208.00 64.25 C 209.17 59.50 208.00 61.50 210.00 54.75 C 212.00 48.00 210.67 51.58 214.00 44.00 C 217.33 36.42 217.00 38.00 220.00 32.00 C 223.00 26.00 221.50 29.00 223.00 26.00" class="hole" fill="#e0f1eb" fill-rule="evenodd" />
    <path d="M 237.00 68.00 C 238.12 68.00 237.00 68.00 239.25 68.00 C 241.50 68.00 240.67 67.17 243.75 68.00 C 246.83 68.83 245.25 68.00 248.50 70.50 C 251.75 73.00 251.17 71.92 253.50 75.50 C 255.83 79.08 255.17 77.17 255.50 81.25 C 255.83 85.33 256.00 83.75 254.50 87.75 C 253.00 91.75 254.17 89.92 251.00 93.25 C 247.83 96.58 248.92 95.58 245.00 97.75 C 241.08 99.92 243.00 99.25 239.25 99.75 C 235.50 100.25 236.92 100.00 233.75 99.25 C 230.58 98.50 231.92 99.08 229.75 97.50 C 227.58 95.92 228.58 96.42 227.25 94.50 C 225.92 92.58 226.42 93.50 225.75 91.75 C 225.08 90.00 225.08 91.83 225.25 89.25 C 225.42 86.67 225.08 88.42 226.25 84.00 C 227.42 79.58 227.00 80.33 228.75 76.00 C 230.50 71.67 229.58 73.33 231.50 71.00 C 233.42 68.67 233.00 70.00 234.50 69.00 C 236.00 68.00 235.25 68.50 236.00 68.00" class="hole" fill="#e0f1eb" fill-rule="evenodd" />
    <path d="M 282.00 66.00 C 282.38 66.00 282.00 66.00 282.75 66.00 C 283.50 66.00 283.25 65.58 284.25 66.00 C 285.25 66.42 284.75 66.00 285.75 67.25 C 286.75 68.50 287.17 67.92 287.25 69.75 C 287.33 71.58 287.75 70.58 286.00 72.75 C 284.25 74.92 284.50 73.67 282.00 76.25 C 279.50 78.83 280.67 77.42 278.50 80.50 C 276.33 83.58 277.08 82.00 275.50 85.50 C 273.92 89.00 274.50 87.17 273.75 91.00 C 273.00 94.83 274.00 93.83 273.25 97.00 C 272.50 100.17 273.08 99.00 271.50 100.50 C 269.92 102.00 270.25 101.25 268.50 101.50 C 266.75 101.75 267.50 101.83 266.25 101.25 C 265.00 100.67 265.42 101.50 264.75 99.75 C 264.08 98.00 264.25 99.25 264.25 96.00 C 264.25 92.75 264.75 94.17 264.75 90.00 C 264.75 85.83 264.92 88.00 264.25 83.50 C 263.58 79.00 263.08 80.17 262.75 76.50 C 262.42 72.83 262.25 74.17 263.25 72.50 C 264.25 70.83 264.17 71.33 265.75 71.50 C 267.33 71.67 266.58 71.17 268.00 73.00 C 269.42 74.83 268.25 75.92 270.00 77.00 C 271.75 78.08 270.67 78.33 273.25 76.25 C 275.83 74.17 275.50 73.50 277.75 70.75 C 280.00 68.00 278.88 69.38 280.00 68.00" class="hole" fill="#e0f1eb" fill-rule="evenodd" />
    <path d="M 302.00 22.00 C 302.50 22.25 302.00 22.00 303.00 22.50 C 304.00 23.00 304.17 22.25 305.00 23.50 C 305.83 24.75 305.67 23.83 305.50 26.25 C 305.33 28.67 305.00 25.42 304.50 30.75 C 304.00 36.08 304.17 32.25 304.00 42.25 C 303.83 52.25 302.67 52.83 304.00 60.75 C 305.33 68.67 304.00 66.92 308.00 66.00 C 312.00 65.08 311.08 62.17 316.00 58.00 C 320.92 53.83 318.67 55.33 322.75 53.50 C 326.83 51.67 325.25 52.58 328.25 52.50 C 331.25 52.42 330.08 52.17 331.75 53.25 C 333.42 54.33 332.92 54.08 333.25 55.75 C 333.58 57.42 333.75 56.58 332.75 58.25 C 331.75 59.92 331.83 59.50 330.25 60.75 C 328.67 62.00 329.42 61.58 328.00 62.00 C 326.58 62.42 327.75 61.50 326.00 62.00 C 324.25 62.50 325.33 62.00 322.75 63.50 C 320.17 65.00 320.92 64.25 318.25 66.50 C 315.58 68.75 316.75 67.50 314.75 70.25 C 312.75 73.00 313.08 72.00 312.25 74.75 C 311.42 77.50 311.42 76.25 312.25 78.50 C 313.08 80.75 312.50 79.67 314.75 81.50 C 317.00 83.33 315.58 82.50 319.00 84.00 C 322.42 85.50 321.25 84.33 325.00 86.00 C 328.75 87.67 327.00 86.67 330.25 89.00 C 333.50 91.33 332.00 90.83 334.75 93.00 C 337.50 95.17 336.25 94.33 338.50 95.50 C 340.75 96.67 339.67 95.50 341.50 96.50 C 343.33 97.50 342.50 96.83 344.00 98.50 C 345.50 100.17 345.58 99.67 346.00 101.50 C 346.42 103.33 346.67 102.50 345.25 104.00 C 343.83 105.50 345.92 106.42 341.75 106.00 C 337.58 105.58 340.58 106.67 332.75 102.75 C 324.92 98.83 326.25 97.83 318.25 94.25 C 310.25 90.67 313.42 91.42 308.75 92.00 C 304.08 92.58 307.08 94.42 304.25 96.00 C 301.42 97.58 302.75 97.33 300.25 96.75 C 297.75 96.17 298.33 99.25 296.75 94.25 C 295.17 89.25 295.58 93.42 295.50 81.75 C 295.42 70.08 296.17 71.42 296.50 59.25 C 296.83 47.08 296.83 51.75 296.50 45.25 C 296.17 38.75 295.83 43.33 295.50 39.75 C 295.17 36.17 295.17 37.92 295.50 34.50 C 295.83 31.08 296.00 32.00 296.50 29.50 C 297.00 27.00 296.75 28.25 297.00 27.00" class="hole" fill="#e0f1eb" fill-rule="evenodd" />
  </g>
</svg>