<?xml version='1.0' encoding='utf-8'?>
<svg xmlns="http://www.w3.org/2000/svg" version="1.1" width="340" height="189" viewBox="0 0 340 189" style="background: transparent;">
  <defs>
    <style>
        .handwriting {
            fill: none;
            stroke: #e2f2ec;
            stroke-width: 2.00;
            stroke-linecap: round;
            stroke-linejoin: round;
            stroke-opacity: 0.95;
        }
        .hole {
            fill: #e2f2ec;
            stroke: none;
            opacity: 0.95;
        }
    </style>
  </defs>
  <g class="handwriting">
    <path d="M 198.00 98.00 C 198.62 98.38 198.00 98.00 199.25 98.75 C 200.50 99.50 200.58 98.75 201.75 100.25 C 202.92 101.75 202.58 100.75 202.75 103.25 C 202.92 105.75 203.00 105.00 202.25 107.75 C 201.50 110.50 202.08 109.25 200.50 111.50 C 198.92 113.75 199.25 113.00 197.50 114.50 C 195.75 116.00 196.50 115.50 195.25 116.00 C 194.00 116.50 194.67 116.25 193.75 116.00 C 192.83 115.75 193.25 116.00 192.50 115.25 C 191.75 114.50 191.83 115.33 191.50 113.75 C 191.17 112.17 191.17 113.25 191.50 110.50 C 191.83 107.75 192.00 108.00 192.50 105.50 C 193.00 103.00 192.75 104.25 193.00 103.00" class="hole" fill="#e2f2ec" fill-rule="evenodd" />
    <path d="M 124.00 86.00 C 124.88 86.12 124.00 86.00 125.75 86.25 C 127.50 86.50 127.25 86.08 129.25 86.75 C 131.25 87.42 130.42 86.92 131.75 88.25 C 133.08 89.58 131.92 89.42 133.25 90.75 C 134.58 92.08 133.75 91.58 135.75 92.25 C 137.75 92.92 137.33 92.17 139.25 92.75 C 141.17 93.33 140.42 92.92 141.50 94.00 C 142.58 95.08 141.08 95.83 142.50 96.00 C 143.92 96.17 142.83 96.67 145.75 94.50 C 148.67 92.33 148.08 92.00 151.25 89.50 C 154.42 87.00 153.08 87.83 155.25 87.00 C 157.42 86.17 156.17 86.75 157.75 87.00 C 159.33 87.25 158.58 87.00 160.00 87.75 C 161.42 88.50 160.75 87.83 162.00 89.25 C 163.25 90.67 162.67 89.75 163.75 92.00 C 164.83 94.25 164.50 93.08 165.25 96.00 C 166.00 98.92 165.75 97.33 166.00 100.75 C 166.25 104.17 166.25 102.00 166.00 106.25 C 165.75 110.50 166.00 108.08 165.25 113.50 C 164.50 118.92 164.83 117.58 163.75 122.50 C 162.67 127.42 163.25 125.50 162.00 128.25 C 160.75 131.00 161.33 129.50 160.00 130.75 C 158.67 132.00 159.33 131.58 158.00 132.00 C 156.67 132.42 157.25 132.25 156.00 132.00 C 154.75 131.75 155.33 132.00 154.25 131.25 C 153.17 130.50 153.08 132.17 152.75 129.75 C 152.42 127.33 152.25 129.25 153.25 124.00 C 154.25 118.75 154.50 120.08 155.75 114.00 C 157.00 107.92 156.58 110.67 157.00 105.75 C 157.42 100.83 157.50 102.25 157.00 99.25 C 156.50 96.25 157.00 97.08 155.50 96.75 C 154.00 96.42 154.50 96.67 152.50 98.25 C 150.50 99.83 151.50 98.75 149.50 101.50 C 147.50 104.25 148.08 103.00 146.50 106.50 C 144.92 110.00 145.50 108.17 144.75 112.00 C 144.00 115.83 144.75 114.67 144.25 118.00 C 143.75 121.33 144.08 120.00 143.25 122.00 C 142.42 124.00 142.75 123.00 141.75 124.00 C 140.75 125.00 141.25 124.67 140.25 125.00 C 139.25 125.33 139.92 125.50 138.75 125.00 C 137.58 124.50 138.25 125.00 136.75 123.50 C 135.25 122.00 135.17 123.42 134.25 120.50 C 133.33 117.58 133.42 119.50 134.00 114.75 C 134.58 110.00 135.33 110.58 136.00 106.25 C 136.67 101.92 136.67 103.42 136.00 101.75 C 135.33 100.08 135.58 102.08 134.00 101.25 C 132.42 100.42 133.33 101.08 131.25 99.25 C 129.17 97.42 130.42 96.58 127.75 95.75 C 125.08 94.92 126.58 94.58 123.25 96.75 C 119.92 98.92 120.67 99.00 117.75 102.25 C 114.83 105.50 115.92 104.08 114.50 106.50 C 113.08 108.92 113.83 107.58 113.50 109.50 C 113.17 111.42 113.17 110.50 113.50 112.25 C 113.83 114.00 114.08 112.67 114.50 114.75 C 114.92 116.83 114.83 115.58 114.75 118.50 C 114.67 121.42 114.83 120.92 114.25 123.50 C 113.67 126.08 114.08 125.17 113.00 126.25 C 111.92 127.33 112.33 126.83 111.00 126.75 C 109.67 126.67 110.33 126.92 109.00 126.00 C 107.67 125.08 108.25 127.67 107.00 124.00 C 105.75 120.33 106.33 123.33 105.25 115.00 C 104.17 106.67 104.25 107.33 103.75 99.00 C 103.25 90.67 103.25 93.67 103.75 90.00 C 104.25 86.33 104.25 89.00 105.25 88.00 C 106.25 87.00 105.75 87.33 106.75 87.00 C 107.75 86.67 107.25 86.67 108.25 87.00 C 109.25 87.33 108.75 87.00 109.75 88.00 C 110.75 89.00 110.58 88.50 111.25 90.00 C 111.92 91.50 111.75 90.67 111.75 92.50 C 111.75 94.33 111.33 94.00 111.25 95.50 C 111.17 97.00 111.08 96.50 111.50 97.00 C 111.92 97.50 111.92 97.33 112.50 97.00 C 113.08 96.67 112.83 97.00 113.25 96.00 C 113.67 95.00 112.83 95.58 113.75 94.00 C 114.67 92.42 113.92 93.33 116.00 91.25 C 118.08 89.17 118.00 89.50 120.00 87.75 C 122.00 86.00 121.00 86.88 122.00 86.00" class="hole" fill="#e2f2ec" fill-rule="evenodd" />
    <path d="M 73.00 79.00 C 73.38 79.00 73.00 79.00 73.75 79.00 C 74.50 79.00 74.17 77.92 75.25 79.00 C 76.33 80.08 75.75 79.00 77.00 82.25 C 78.25 85.50 78.42 85.17 79.00 88.75 C 79.58 92.33 79.67 90.92 78.75 93.00 C 77.83 95.08 77.50 93.08 76.25 95.00 C 75.00 96.92 75.42 95.67 75.00 98.75 C 74.58 101.83 75.50 100.92 75.00 104.25 C 74.50 107.58 75.00 106.08 73.50 108.75 C 72.00 111.42 72.42 110.50 70.50 112.25 C 68.58 114.00 69.50 113.42 67.75 114.00 C 66.00 114.58 66.83 114.25 65.25 114.00 C 63.67 113.75 64.42 114.00 63.00 113.25 C 61.58 112.50 61.83 113.83 61.00 111.75 C 60.17 109.67 60.33 111.25 60.50 107.00 C 60.67 102.75 61.83 103.50 61.50 99.00 C 61.17 94.50 61.83 96.33 59.50 93.50 C 57.17 90.67 56.92 92.50 54.50 90.50 C 52.08 88.50 52.83 89.50 52.25 87.50 C 51.67 85.50 51.92 85.58 52.75 84.50 C 53.58 83.42 52.92 83.50 54.75 84.25 C 56.58 85.00 56.17 85.50 58.25 86.75 C 60.33 88.00 59.42 87.58 61.00 88.00 C 62.58 88.42 61.67 88.08 63.00 88.00 C 64.33 87.92 63.67 88.00 65.00 87.75 C 66.33 87.50 65.58 88.00 67.00 87.25 C 68.42 86.50 67.67 87.08 69.25 85.50 C 70.83 83.92 70.50 84.00 71.75 82.50 C 73.00 81.00 72.38 81.75 73.00 81.00" class="hole" fill="#e2f2ec" fill-rule="evenodd" />
    <path d="M 64.00 72.00 C 64.38 71.88 64.00 72.00 64.75 71.75 C 65.50 71.50 65.17 71.08 66.25 71.25 C 67.33 71.42 66.75 71.08 68.00 72.25 C 69.25 73.42 69.08 73.08 70.00 74.75 C 70.92 76.42 70.67 75.58 70.75 77.25 C 70.83 78.92 70.83 78.17 70.25 79.75 C 69.67 81.33 70.08 80.58 69.00 82.00 C 67.92 83.42 68.50 83.00 67.00 84.00 C 65.50 85.00 66.33 84.67 64.50 85.00 C 62.67 85.33 63.33 85.33 61.50 85.00 C 59.67 84.67 60.50 85.00 59.00 84.00 C 57.50 83.00 58.00 83.33 57.00 82.00 C 56.00 80.67 56.33 81.33 56.00 80.00 C 55.67 78.67 55.58 79.42 56.00 78.00 C 56.42 76.58 56.00 77.33 57.25 75.75 C 58.50 74.17 58.50 74.50 59.75 73.25 C 61.00 72.00 60.38 72.62 61.00 72.00" class="hole" fill="#e2f2ec" fill-rule="evenodd" />
    <path d="M 87.00 71.00 C 87.50 70.88 87.00 71.00 88.00 70.75 C 89.00 70.50 88.42 70.00 90.00 70.25 C 91.58 70.50 90.67 70.08 92.75 71.50 C 94.83 72.92 94.67 72.33 96.25 74.50 C 97.83 76.67 97.42 75.50 97.50 78.00 C 97.58 80.50 97.50 79.58 96.50 82.00 C 95.50 84.42 96.17 83.33 94.50 85.25 C 92.83 87.17 93.50 86.50 91.50 87.75 C 89.50 89.00 90.50 88.58 88.50 89.00 C 86.50 89.42 87.42 89.42 85.50 89.00 C 83.58 88.58 84.50 89.00 82.75 87.75 C 81.00 86.50 81.50 87.00 80.25 85.25 C 79.00 83.50 79.42 84.42 79.00 82.50 C 78.58 80.58 78.50 81.58 79.00 79.50 C 79.50 77.42 79.00 78.50 80.50 76.25 C 82.00 74.00 82.00 74.50 83.50 72.75 C 85.00 71.00 84.25 71.88 85.00 71.00" class="hole" fill="#e2f2ec" fill-rule="evenodd" />
    <path d="M 50.00 33.00 C 50.50 32.88 50.00 33.00 51.00 32.75 C 52.00 32.50 51.17 31.58 53.00 32.25 C 54.83 32.92 53.67 32.08 56.50 34.75 C 59.33 37.42 59.17 37.25 61.50 40.25 C 63.83 43.25 63.17 42.08 63.50 43.75 C 63.83 45.42 63.25 44.50 62.50 45.25 C 61.75 46.00 62.17 45.75 61.25 46.00 C 60.33 46.25 61.08 46.42 59.75 46.00 C 58.42 45.58 59.25 46.00 57.25 44.75 C 55.25 43.50 55.75 43.08 53.75 42.25 C 51.75 41.42 52.58 41.42 51.25 42.25 C 49.92 43.08 50.67 42.17 49.75 44.75 C 48.83 47.33 49.25 45.58 48.50 50.00 C 47.75 54.42 47.92 50.67 47.50 58.00 C 47.08 65.33 47.17 60.67 47.25 72.00 C 47.33 83.33 46.92 82.75 47.75 92.00 C 48.58 101.25 47.92 98.67 49.75 99.75 C 51.58 100.83 51.25 97.50 53.25 95.25 C 55.25 93.00 54.42 93.75 55.75 93.00 C 57.08 92.25 56.33 92.50 57.25 93.00 C 58.17 93.50 57.75 93.00 58.50 94.50 C 59.25 96.00 59.33 95.58 59.50 97.50 C 59.67 99.42 59.83 98.50 59.00 100.25 C 58.17 102.00 58.08 101.00 57.00 102.75 C 55.92 104.50 56.33 103.58 55.75 105.50 C 55.17 107.42 55.17 106.42 55.25 108.50 C 55.33 110.58 55.08 109.50 56.00 111.75 C 56.92 114.00 56.50 113.33 58.00 115.25 C 59.50 117.17 58.67 116.42 60.50 117.50 C 62.33 118.58 61.50 118.08 63.50 118.50 C 65.50 118.92 64.50 118.83 66.50 118.75 C 68.50 118.67 67.33 119.33 69.50 118.25 C 71.67 117.17 70.50 118.08 73.00 115.50 C 75.50 112.92 74.92 113.33 77.00 110.50 C 79.08 107.67 78.33 108.83 79.25 107.00 C 80.17 105.17 79.75 106.33 79.75 105.00 C 79.75 103.67 79.92 104.33 79.25 103.00 C 78.58 101.67 78.33 102.42 77.75 101.00 C 77.17 99.58 77.25 100.33 77.50 98.75 C 77.75 97.17 77.67 97.50 78.50 96.25 C 79.33 95.00 78.83 95.42 80.00 95.00 C 81.17 94.58 80.50 94.58 82.00 95.00 C 83.50 95.42 82.67 95.00 84.50 96.25 C 86.33 97.50 86.08 96.92 87.50 98.75 C 88.92 100.58 88.50 99.58 88.75 101.75 C 89.00 103.92 88.92 102.58 88.25 105.25 C 87.58 107.92 88.08 106.42 86.75 109.75 C 85.42 113.08 86.25 111.83 84.25 115.25 C 82.25 118.67 83.42 117.08 80.75 120.00 C 78.08 122.92 79.00 121.83 76.25 124.00 C 73.50 126.17 74.75 125.33 72.50 126.50 C 70.25 127.67 72.00 127.25 69.50 127.50 C 67.00 127.75 68.50 127.83 65.00 127.25 C 61.50 126.67 62.42 126.92 59.00 125.75 C 55.58 124.58 57.00 125.25 54.75 123.75 C 52.50 122.25 53.75 123.17 52.25 121.25 C 50.75 119.33 51.42 120.42 50.25 118.00 C 49.08 115.58 49.75 114.83 48.75 114.00 C 47.75 113.17 48.25 112.67 47.25 115.50 C 46.25 118.33 47.17 118.92 45.75 122.50 C 44.33 126.08 45.25 124.83 43.00 126.25 C 40.75 127.67 41.92 127.25 39.00 126.75 C 36.08 126.25 37.67 126.92 34.25 124.75 C 30.83 122.58 31.83 123.33 28.75 120.25 C 25.67 117.17 26.92 118.75 25.00 115.50 C 23.08 112.25 24.08 111.25 23.00 110.50 C 21.92 109.75 22.33 108.83 21.75 113.25 C 21.17 117.67 21.67 118.33 21.25 123.75 C 20.83 129.17 21.08 127.25 20.50 129.50 C 19.92 131.75 20.33 130.00 19.50 130.50 C 18.67 131.00 19.17 130.83 18.00 131.00 C 16.83 131.17 17.25 131.33 16.00 131.00 C 14.75 130.67 15.33 131.00 14.25 130.00 C 13.17 129.00 13.17 132.00 12.75 128.00 C 12.33 124.00 12.25 127.33 13.00 118.00 C 13.75 108.67 14.08 110.92 15.00 100.00 C 15.92 89.08 15.67 94.00 15.75 85.25 C 15.83 76.50 15.75 80.58 15.25 73.75 C 14.75 66.92 15.08 69.92 14.25 64.75 C 13.42 59.58 13.25 61.75 12.75 58.25 C 12.25 54.75 12.25 56.08 12.75 54.25 C 13.25 52.42 13.17 53.50 14.25 52.75 C 15.33 52.00 14.75 52.25 16.00 52.00 C 17.25 51.75 16.83 51.75 18.00 52.00 C 19.17 52.25 18.67 52.00 19.50 52.75 C 20.33 53.50 19.58 49.92 20.50 54.25 C 21.42 58.58 20.83 54.75 22.25 65.75 C 23.67 76.75 23.08 75.50 24.75 87.25 C 26.42 99.00 25.58 94.42 27.25 101.00 C 28.92 107.58 27.83 103.42 29.75 107.00 C 31.67 110.58 30.58 109.00 33.00 111.75 C 35.42 114.50 34.83 113.67 37.00 115.25 C 39.17 116.83 38.33 116.42 39.50 116.50 C 40.67 116.58 40.08 121.50 40.50 115.50 C 40.92 109.50 40.83 115.17 40.75 98.50 C 40.67 81.83 40.25 82.83 40.25 65.50 C 40.25 48.17 40.08 54.50 40.75 46.50 C 41.42 38.50 41.00 44.50 42.25 41.50 C 43.50 38.50 42.75 39.83 44.50 37.50 C 46.25 35.17 46.00 36.00 47.50 34.50 C 49.00 33.00 48.25 33.75 49.00 33.00" class="hole" fill="#e2f2ec" fill-rule="evenodd" />
    <path d="M 233.00 93.00 C 234.00 92.88 233.00 93.00 235.00 92.75 C 237.00 92.50 236.42 92.17 239.00 92.25 C 241.58 92.33 240.33 92.08 242.75 93.00 C 245.17 93.92 244.08 93.17 246.25 95.00 C 248.42 96.83 247.42 95.67 249.25 98.50 C 251.08 101.33 250.92 100.33 251.75 103.50 C 252.58 106.67 252.58 105.17 251.75 108.00 C 250.92 110.83 251.25 109.67 249.25 112.00 C 247.25 114.33 248.42 113.33 245.75 115.00 C 243.08 116.67 244.67 115.92 241.25 117.00 C 237.83 118.08 239.75 117.67 235.50 118.25 C 231.25 118.83 232.00 118.33 228.50 118.75 C 225.00 119.17 226.17 118.92 225.00 119.50 C 223.83 120.08 224.25 119.67 225.00 120.50 C 225.75 121.33 225.00 120.83 227.25 122.00 C 229.50 123.17 228.75 123.17 231.75 124.00 C 234.75 124.83 233.25 124.67 236.25 124.50 C 239.25 124.33 237.83 124.50 240.75 123.50 C 243.67 122.50 242.25 123.17 245.00 121.50 C 247.75 119.83 246.67 119.83 249.00 118.50 C 251.33 117.17 250.33 117.50 252.00 117.50 C 253.67 117.50 253.17 117.50 254.00 118.50 C 254.83 119.50 254.67 118.83 254.50 120.50 C 254.33 122.17 255.25 121.33 253.50 123.50 C 251.75 125.67 253.17 124.50 249.25 127.00 C 245.33 129.50 246.42 129.08 241.75 131.00 C 237.08 132.92 239.25 132.33 235.25 132.75 C 231.25 133.17 233.33 133.33 229.75 132.25 C 226.17 131.17 227.92 132.08 224.50 129.50 C 221.08 126.92 222.00 128.00 219.50 124.50 C 217.00 121.00 217.83 122.83 217.00 119.00 C 216.17 115.17 216.75 116.58 217.00 113.00 C 217.25 109.42 217.00 111.00 217.75 108.25 C 218.50 105.50 217.50 107.33 219.25 104.75 C 221.00 102.17 219.75 103.58 223.00 100.50 C 226.25 97.42 226.00 98.00 229.00 95.50 C 232.00 93.00 230.50 94.25 232.00 93.00" class="hole" fill="#e2f2ec" fill-rule="evenodd" />
    <path d="M 260.00 90.00 C 260.38 89.88 260.00 90.00 260.75 89.75 C 261.50 89.50 261.25 89.25 262.25 89.25 C 263.25 89.25 262.75 89.08 263.75 89.75 C 264.75 90.42 264.42 90.00 265.25 91.25 C 266.08 92.50 265.75 91.75 266.25 93.50 C 266.75 95.25 266.08 95.42 266.75 96.50 C 267.42 97.58 266.92 97.50 268.25 96.75 C 269.58 96.00 269.00 95.67 270.75 94.25 C 272.50 92.83 271.58 93.42 273.50 92.50 C 275.42 91.58 274.25 91.83 276.50 91.50 C 278.75 91.17 277.50 91.17 280.25 91.50 C 283.00 91.83 282.67 91.58 284.75 92.50 C 286.83 93.42 286.25 92.83 286.50 94.25 C 286.75 95.67 286.67 95.33 285.50 96.75 C 284.33 98.17 285.17 97.58 283.00 98.50 C 280.83 99.42 281.67 98.25 279.00 99.50 C 276.33 100.75 277.67 99.83 275.00 102.25 C 272.33 104.67 273.00 103.33 271.00 106.75 C 269.00 110.17 269.67 108.25 269.00 112.50 C 268.33 116.75 269.25 115.75 269.00 119.50 C 268.75 123.25 269.00 121.83 268.25 123.75 C 267.50 125.67 267.92 124.58 266.75 125.25 C 265.58 125.92 266.25 125.75 264.75 125.75 C 263.25 125.75 263.75 125.92 262.25 125.25 C 260.75 124.58 261.42 125.08 260.25 123.75 C 259.08 122.42 259.42 125.00 258.75 121.25 C 258.08 117.50 258.25 120.42 258.25 112.50 C 258.25 104.58 258.50 105.00 258.75 97.50 C 259.00 90.00 258.88 93.75 259.00 90.00" class="hole" fill="#e2f2ec" fill-rule="evenodd" />
    <path d="M 302.00 89.00 C 302.75 89.00 302.00 89.00 303.50 89.00 C 305.00 89.00 304.50 88.58 306.50 89.00 C 308.50 89.42 307.50 89.00 309.50 90.25 C 311.50 91.50 311.08 90.83 312.50 92.75 C 313.92 94.67 313.50 93.58 313.75 96.00 C 314.00 98.42 313.25 96.92 313.25 100.00 C 313.25 103.08 313.08 101.33 313.75 105.25 C 314.42 109.17 314.58 106.33 315.25 111.75 C 315.92 117.17 315.75 113.92 315.75 121.50 C 315.75 129.08 315.83 127.00 315.25 134.50 C 314.67 142.00 315.08 138.83 314.00 144.00 C 312.92 149.17 313.42 146.50 312.00 150.00 C 310.58 153.50 311.33 152.00 309.75 154.50 C 308.17 157.00 309.08 155.50 307.25 157.50 C 305.42 159.50 306.42 158.50 304.25 160.50 C 302.08 162.50 303.25 161.75 300.75 163.50 C 298.25 165.25 299.58 164.50 296.75 165.75 C 293.92 167.00 296.50 166.67 292.25 167.25 C 288.00 167.83 290.75 167.75 284.00 167.50 C 277.25 167.25 278.33 167.25 272.00 166.50 C 265.67 165.75 268.00 166.17 265.00 165.25 C 262.00 164.33 264.00 164.83 263.00 163.75 C 262.00 162.67 262.33 163.25 262.00 162.00 C 261.67 160.75 261.50 161.58 262.00 160.00 C 262.50 158.42 262.00 159.33 263.50 157.25 C 265.00 155.17 264.75 155.33 266.50 153.75 C 268.25 152.17 267.50 152.58 268.75 152.50 C 270.00 152.42 269.58 152.58 270.25 153.50 C 270.92 154.42 270.75 153.83 270.75 155.25 C 270.75 156.67 268.67 156.50 270.25 157.75 C 271.83 159.00 270.08 158.58 275.50 159.00 C 280.92 159.42 280.50 159.25 286.50 159.00 C 292.50 158.75 290.17 159.00 293.50 158.25 C 296.83 157.50 294.58 158.08 296.50 156.75 C 298.42 155.42 297.50 156.25 299.25 154.25 C 301.00 152.25 300.17 153.75 301.75 150.75 C 303.33 147.75 302.58 149.58 304.00 145.25 C 305.42 140.92 305.00 143.42 306.00 137.75 C 307.00 132.08 306.67 135.25 307.00 128.25 C 307.33 121.25 307.17 122.50 307.00 116.75 C 306.83 111.00 307.00 112.92 306.50 111.00 C 306.00 109.08 306.58 110.00 305.50 111.00 C 304.42 112.00 305.17 111.00 303.25 114.00 C 301.33 117.00 302.25 116.58 299.75 120.00 C 297.25 123.42 298.58 122.00 295.75 124.25 C 292.92 126.50 294.25 125.67 291.25 126.75 C 288.25 127.83 289.75 127.58 286.75 127.50 C 283.75 127.42 284.83 127.67 282.25 126.50 C 279.67 125.33 280.75 126.17 279.00 124.00 C 277.25 121.83 278.00 122.50 277.00 120.00 C 276.00 117.50 276.33 118.67 276.00 116.50 C 275.67 114.33 275.67 115.67 276.00 113.50 C 276.33 111.33 276.00 112.50 277.00 110.00 C 278.00 107.50 277.08 108.92 279.00 106.00 C 280.92 103.08 279.67 104.67 282.75 101.25 C 285.83 97.83 284.75 98.83 288.25 95.75 C 291.75 92.67 290.08 93.92 293.25 92.00 C 296.42 90.08 295.50 91.00 297.75 90.00 C 300.00 89.00 298.88 89.50 300.00 89.00" class="hole" fill="#e2f2ec" fill-rule="evenodd" />
    <path d="M 182.00 20.00 C 182.50 19.88 182.00 20.00 183.00 19.75 C 184.00 19.50 183.75 19.00 185.00 19.25 C 186.25 19.50 185.67 19.08 186.75 20.50 C 187.83 21.92 187.75 16.58 188.25 23.50 C 188.75 30.42 188.75 24.50 188.25 41.25 C 187.75 58.00 186.83 57.92 186.75 73.75 C 186.67 89.58 186.25 84.58 188.00 88.75 C 189.75 92.92 189.08 87.42 192.00 86.25 C 194.92 85.08 193.33 85.42 196.75 85.25 C 200.17 85.08 198.83 84.83 202.25 85.75 C 205.67 86.67 204.08 85.92 207.00 88.00 C 209.92 90.08 208.75 89.25 211.00 92.00 C 213.25 94.75 212.33 93.33 213.75 96.25 C 215.17 99.17 214.75 97.42 215.25 100.75 C 215.75 104.08 215.75 102.25 215.25 106.25 C 214.75 110.25 215.17 108.75 213.75 112.75 C 212.33 116.75 213.25 114.92 211.00 118.25 C 208.75 121.58 209.58 120.25 207.00 122.75 C 204.42 125.25 205.67 124.25 203.25 125.75 C 200.83 127.25 202.50 126.58 199.75 127.25 C 197.00 127.92 198.58 127.75 195.00 127.75 C 191.42 127.75 192.25 127.33 189.00 127.25 C 185.75 127.17 187.00 127.08 185.25 127.50 C 183.50 127.92 185.00 128.33 183.75 128.50 C 182.50 128.67 183.25 128.83 181.50 128.00 C 179.75 127.17 180.17 127.67 178.50 126.00 C 176.83 124.33 177.50 125.33 176.50 123.00 C 175.50 120.67 175.75 121.92 175.50 119.00 C 175.25 116.08 175.17 117.67 175.75 114.25 C 176.33 110.83 176.58 112.00 177.25 108.75 C 177.92 105.50 177.75 106.92 177.75 104.50 C 177.75 102.08 177.25 103.33 177.25 101.50 C 177.25 99.67 177.08 100.50 177.75 99.00 C 178.42 97.50 178.50 102.75 179.25 97.00 C 180.00 91.25 179.75 96.33 180.00 81.75 C 180.25 67.17 179.83 69.00 180.00 53.25 C 180.17 37.50 180.00 43.75 180.50 34.50 C 181.00 25.25 181.00 30.00 181.50 25.50 C 182.00 21.00 181.75 23.25 182.00 21.00" class="hole" fill="#e2f2ec" fill-rule="evenodd" />
  </g>
</svg>