<?xml version='1.0' encoding='utf-8'?>
<svg xmlns="http://www.w3.org/2000/svg" version="1.1" width="287" height="146" viewBox="0 0 287 146" style="background: transparent;">
  <defs>
    <style>
        .handwriting {
            fill: none;
            stroke: #e3f2ed;
            stroke-width: 2.00;
            stroke-linecap: round;
            stroke-linejoin: round;
            stroke-opacity: 0.95;
        }
        .hole {
            fill: #e3f2ed;
            stroke: none;
            opacity: 0.95;
        }
    </style>
  </defs>
  <g class="handwriting">
    <path d="M 112.00 89.00 C 112.38 89.25 112.00 89.00 112.75 89.50 C 113.50 90.00 113.67 89.75 114.25 90.50 C 114.83 91.25 114.75 90.83 114.50 91.75 C 114.25 92.67 114.33 92.75 113.50 93.25 C 112.67 93.75 113.17 93.75 112.00 93.25 C 110.83 92.75 110.83 92.67 110.00 91.75 C 109.17 90.83 109.33 91.25 109.50 90.50 C 109.67 89.75 110.00 90.00 110.50 89.50 C 111.00 89.00 110.75 89.25 111.00 89.00" class="hole" fill="#e3f2ed" fill-rule="evenodd" />
    <path d="M 239.00 75.00 C 240.25 75.00 239.00 75.00 241.50 75.00 C 244.00 75.00 243.67 74.75 246.50 75.00 C 249.33 75.25 248.17 75.00 250.00 75.75 C 251.83 76.50 251.00 76.17 252.00 77.25 C 253.00 78.33 252.67 77.75 253.00 79.00 C 253.33 80.25 253.50 79.58 253.00 81.00 C 252.50 82.42 253.00 81.67 251.50 83.25 C 250.00 84.83 249.33 84.00 248.50 85.75 C 247.67 87.50 247.50 86.58 249.00 88.50 C 250.50 90.42 251.00 88.83 253.00 91.50 C 255.00 94.17 254.33 92.50 255.00 96.50 C 255.67 100.50 256.33 99.08 255.00 103.50 C 253.67 107.92 255.00 105.83 251.00 109.75 C 247.00 113.67 247.83 112.50 243.00 115.25 C 238.17 118.00 240.33 117.08 236.50 118.00 C 232.67 118.92 234.33 118.25 231.50 118.00 C 228.67 117.75 229.83 118.00 228.00 117.25 C 226.17 116.50 226.75 117.00 226.00 115.75 C 225.25 114.50 225.33 115.25 225.75 113.50 C 226.17 111.75 225.75 111.92 227.25 110.50 C 228.75 109.08 227.75 109.50 230.25 109.25 C 232.75 109.00 231.83 109.92 234.75 109.75 C 237.67 109.58 236.25 109.92 239.00 108.75 C 241.75 107.58 240.83 107.83 243.00 106.25 C 245.17 104.67 244.33 105.42 245.50 104.00 C 246.67 102.58 246.08 103.42 246.50 102.00 C 246.92 100.58 246.83 101.33 246.75 99.75 C 246.67 98.17 247.42 99.25 246.25 97.25 C 245.08 95.25 246.08 96.42 243.25 93.75 C 240.42 91.08 240.58 91.92 237.75 89.25 C 234.92 86.58 235.92 87.75 234.75 85.75 C 233.58 83.75 234.25 84.92 234.25 83.25 C 234.25 81.58 234.08 82.42 234.75 80.75 C 235.42 79.08 235.50 79.50 236.25 78.25 C 237.00 77.00 236.62 77.62 237.00 77.00" class="hole" fill="#e3f2ed" fill-rule="evenodd" />
    <path d="M 115.00 71.00 C 115.75 71.12 115.00 71.00 116.50 71.25 C 118.00 71.50 118.00 71.00 119.50 71.75 C 121.00 72.50 120.50 71.92 121.00 73.50 C 121.50 75.08 122.25 74.17 121.00 76.50 C 119.75 78.83 121.00 77.50 117.25 80.50 C 113.50 83.50 113.67 82.58 109.75 85.50 C 105.83 88.42 107.25 87.17 105.50 89.25 C 103.75 91.33 104.83 90.17 104.50 91.75 C 104.17 93.33 104.17 92.58 104.50 94.00 C 104.83 95.42 104.25 94.92 105.50 96.00 C 106.75 97.08 105.83 96.67 108.25 97.25 C 110.67 97.83 110.08 97.67 112.75 97.75 C 115.42 97.83 114.25 97.92 116.25 97.50 C 118.25 97.08 117.58 97.83 118.75 96.50 C 119.92 95.17 119.58 96.17 119.75 93.50 C 119.92 90.83 119.00 91.50 119.25 88.50 C 119.50 85.50 119.08 86.83 120.50 84.50 C 121.92 82.17 120.75 83.42 123.50 81.50 C 126.25 79.58 124.50 80.50 128.75 78.75 C 133.00 77.00 132.00 77.50 136.25 76.25 C 140.50 75.00 138.75 75.42 141.50 75.00 C 144.25 74.58 142.33 74.42 144.50 75.00 C 146.67 75.58 145.50 75.00 148.00 76.75 C 150.50 78.50 150.25 77.25 152.00 80.25 C 153.75 83.25 153.33 81.42 153.25 85.75 C 153.17 90.08 153.08 88.92 151.75 93.25 C 150.42 97.58 151.25 95.75 149.25 98.75 C 147.25 101.75 148.08 100.25 145.75 102.25 C 143.42 104.25 144.58 103.42 142.25 104.75 C 139.92 106.08 141.33 105.67 138.75 106.25 C 136.17 106.83 137.58 106.75 134.50 106.50 C 131.42 106.25 132.25 106.25 129.50 105.50 C 126.75 104.75 127.83 105.17 126.25 104.25 C 124.67 103.33 126.67 103.08 124.75 102.75 C 122.83 102.42 124.25 102.25 120.50 103.25 C 116.75 104.25 117.67 104.67 113.50 105.75 C 109.33 106.83 111.17 106.58 108.00 106.50 C 104.83 106.42 106.33 106.42 104.00 105.50 C 101.67 104.58 102.67 105.17 101.00 103.75 C 99.33 102.33 100.17 103.17 99.00 101.25 C 97.83 99.33 98.33 100.42 97.50 98.00 C 96.67 95.58 96.83 96.67 96.50 94.00 C 96.17 91.33 96.17 92.67 96.50 90.00 C 96.83 87.33 95.83 88.83 97.50 86.00 C 99.17 83.17 97.83 84.67 101.50 81.50 C 105.17 78.33 105.00 79.00 108.50 76.50 C 112.00 74.00 110.25 75.25 112.00 74.00" class="hole" fill="#e3f2ed" fill-rule="evenodd" />
    <path d="M 82.00 65.00 C 83.38 65.00 82.00 65.00 84.75 65.00 C 87.50 65.00 87.25 64.33 90.25 65.00 C 93.25 65.67 92.08 65.00 93.75 67.00 C 95.42 69.00 96.00 67.92 95.25 71.00 C 94.50 74.08 95.75 72.33 91.50 76.25 C 87.25 80.17 87.92 79.33 82.50 82.75 C 77.08 86.17 79.50 84.92 75.25 86.50 C 71.00 88.08 72.83 87.25 69.75 87.50 C 66.67 87.75 67.92 87.83 66.00 87.25 C 64.08 86.67 65.00 86.25 64.00 85.75 C 63.00 85.25 63.33 85.25 63.00 85.75 C 62.67 86.25 62.25 85.92 63.00 87.25 C 63.75 88.58 63.00 87.75 65.25 89.75 C 67.50 91.75 66.58 91.58 69.75 93.25 C 72.92 94.92 71.25 94.42 74.75 94.75 C 78.25 95.08 76.83 94.83 80.25 94.25 C 83.67 93.67 82.08 94.08 85.00 93.00 C 87.92 91.92 86.67 91.83 89.00 91.00 C 91.33 90.17 90.33 90.33 92.00 90.50 C 93.67 90.67 93.00 90.75 94.00 91.50 C 95.00 92.25 94.67 91.83 95.00 92.75 C 95.33 93.67 95.42 93.17 95.00 94.25 C 94.58 95.33 95.00 94.75 93.75 96.00 C 92.50 97.25 93.92 96.58 91.25 98.00 C 88.58 99.42 90.42 98.67 85.75 100.25 C 81.08 101.83 82.08 101.58 77.25 102.75 C 72.42 103.92 74.42 103.58 71.25 103.75 C 68.08 103.92 70.25 104.17 67.75 103.25 C 65.25 102.33 66.58 103.08 63.75 101.00 C 60.92 98.92 61.58 100.08 59.25 97.00 C 56.92 93.92 57.75 95.67 56.75 91.75 C 55.75 87.83 55.75 89.42 56.25 85.25 C 56.75 81.08 56.08 83.08 58.25 79.25 C 60.42 75.42 59.33 77.00 62.75 73.75 C 66.17 70.50 64.25 71.92 68.50 69.50 C 72.75 67.08 72.00 68.00 75.50 66.50 C 79.00 65.00 77.25 65.75 79.00 65.00" class="hole" fill="#e3f2ed" fill-rule="evenodd" />
    <path d="M 54.00 53.00 C 54.25 52.88 54.00 53.00 54.50 52.75 C 55.00 52.50 54.75 52.25 55.50 52.25 C 56.25 52.25 55.83 52.08 56.75 52.75 C 57.67 53.42 57.67 53.08 58.25 54.25 C 58.83 55.42 58.75 54.75 58.50 56.25 C 58.25 57.75 60.00 56.75 57.50 58.75 C 55.00 60.75 57.17 59.58 51.00 62.25 C 44.83 64.92 44.17 64.33 39.00 66.75 C 33.83 69.17 35.00 68.25 35.50 69.50 C 36.00 70.75 37.25 69.42 40.50 70.50 C 43.75 71.58 42.17 70.83 45.25 72.75 C 48.33 74.67 47.33 74.00 49.75 76.25 C 52.17 78.50 51.25 77.42 52.50 79.50 C 53.75 81.58 53.08 80.25 53.50 82.50 C 53.92 84.75 53.83 83.50 53.75 86.25 C 53.67 89.00 54.08 87.92 53.25 90.75 C 52.42 93.58 53.08 92.25 51.25 94.75 C 49.42 97.25 50.67 96.08 47.75 98.25 C 44.83 100.42 46.58 99.42 42.50 101.25 C 38.42 103.08 39.33 102.50 35.50 103.75 C 31.67 105.00 33.17 104.58 31.00 105.00 C 28.83 105.42 30.33 105.33 29.00 105.00 C 27.67 104.67 28.33 105.00 27.00 104.00 C 25.67 103.00 25.92 103.25 25.00 102.00 C 24.08 100.75 24.33 101.33 24.25 100.25 C 24.17 99.17 24.00 99.92 24.75 98.75 C 25.50 97.58 24.92 98.25 26.50 96.75 C 28.08 95.25 26.92 95.67 29.50 94.25 C 32.08 92.83 30.50 93.42 34.25 92.50 C 38.00 91.58 37.25 92.42 40.75 91.50 C 44.25 90.58 42.92 91.17 44.75 89.75 C 46.58 88.33 46.08 89.00 46.25 87.25 C 46.42 85.50 46.75 86.42 45.25 84.50 C 43.75 82.58 44.92 83.42 41.75 81.50 C 38.58 79.58 40.58 80.50 35.75 78.75 C 30.92 77.00 31.67 78.00 27.25 76.25 C 22.83 74.50 24.42 75.42 22.50 73.50 C 20.58 71.58 21.75 72.33 21.50 70.50 C 21.25 68.67 21.17 69.50 21.75 68.00 C 22.33 66.50 20.08 68.00 23.25 66.00 C 26.42 64.00 23.75 65.33 31.25 62.00 C 38.75 58.67 38.50 59.00 45.75 56.00 C 53.00 53.00 49.38 54.50 53.00 53.00" class="hole" fill="#e3f2ed" fill-rule="evenodd" />
  </g>
</svg>