<?xml version='1.0' encoding='utf-8'?>
<svg xmlns="http://www.w3.org/2000/svg" version="1.1" width="202" height="171" viewBox="0 0 202 171" style="background: transparent;">
  <defs>
    <style>
        .handwriting {
            fill: none;
            stroke: #e8f4f0;
            stroke-width: 2.00;
            stroke-linecap: round;
            stroke-linejoin: round;
            stroke-opacity: 0.95;
        }
        .hole {
            fill: #e8f4f0;
            stroke: none;
            opacity: 0.95;
        }
    </style>
  </defs>
  <g class="handwriting">
    <path d="M 51.00 88.00 C 51.62 87.88 51.00 88.00 52.25 87.75 C 53.50 87.50 53.25 87.17 54.75 87.25 C 56.25 87.33 55.58 87.08 56.75 88.00 C 57.92 88.92 57.83 88.50 58.25 90.00 C 58.67 91.50 58.75 90.67 58.00 92.50 C 57.25 94.33 58.08 93.92 56.00 95.50 C 53.92 97.08 55.33 96.50 51.75 97.25 C 48.17 98.00 49.67 97.08 45.25 97.75 C 40.83 98.42 43.08 97.92 38.50 99.25 C 33.92 100.58 33.67 100.42 31.50 101.75 C 29.33 103.08 29.17 102.58 32.00 103.25 C 34.83 103.92 35.17 103.08 40.00 103.75 C 44.83 104.42 42.67 103.92 46.50 105.25 C 50.33 106.58 48.58 106.00 51.50 107.75 C 54.42 109.50 53.17 108.58 55.25 110.50 C 57.33 112.42 56.50 111.33 57.75 113.50 C 59.00 115.67 58.58 114.50 59.00 117.00 C 59.42 119.50 60.17 117.83 59.00 121.00 C 57.83 124.17 59.00 122.33 55.50 126.50 C 52.00 130.67 53.33 129.58 48.50 133.50 C 43.67 137.42 46.17 135.83 41.00 138.25 C 35.83 140.67 37.33 139.75 33.00 140.75 C 28.67 141.75 30.33 141.58 28.00 141.25 C 25.67 140.92 27.00 140.83 26.00 139.75 C 25.00 138.67 25.33 139.25 25.00 138.00 C 24.67 136.75 23.92 138.50 25.00 136.00 C 26.08 133.50 25.00 135.33 28.25 130.50 C 31.50 125.67 31.08 126.08 34.75 121.50 C 38.42 116.92 36.92 118.50 39.25 116.75 C 41.58 115.00 40.42 116.08 41.75 116.25 C 43.08 116.42 42.58 116.08 43.25 117.25 C 43.92 118.42 44.25 117.50 43.75 119.75 C 43.25 122.00 43.92 120.58 41.75 124.00 C 39.58 127.42 38.58 127.50 37.25 130.00 C 35.92 132.50 35.75 132.00 37.75 131.50 C 39.75 131.00 40.08 130.42 43.25 128.50 C 46.42 126.58 45.08 127.50 47.25 125.75 C 49.42 124.00 48.50 124.83 49.75 123.25 C 51.00 121.67 50.58 122.42 51.00 121.00 C 51.42 119.58 51.33 120.33 51.00 119.00 C 50.67 117.67 51.00 118.33 50.00 117.00 C 49.00 115.67 49.83 116.25 48.00 115.00 C 46.17 113.75 47.33 114.33 44.50 113.25 C 41.67 112.17 43.25 112.50 39.50 111.75 C 35.75 111.00 37.83 111.25 33.25 111.00 C 28.67 110.75 30.00 111.33 25.75 111.00 C 21.50 110.67 23.25 111.00 20.50 110.00 C 17.75 109.00 19.08 109.33 17.50 108.00 C 15.92 106.67 16.50 107.33 15.75 106.00 C 15.00 104.67 15.25 105.33 15.25 104.00 C 15.25 102.67 15.08 103.33 15.75 102.00 C 16.42 100.67 14.17 101.92 17.25 100.00 C 20.33 98.08 17.75 99.33 25.00 96.25 C 32.25 93.17 32.00 93.50 39.00 90.75 C 46.00 88.00 42.50 89.38 46.00 88.00" class="hole" fill="#e8f4f0" fill-rule="evenodd" />
    <path d="M 84.00 23.00 C 84.62 23.25 84.00 23.00 85.25 23.50 C 86.50 24.00 86.50 23.67 87.75 24.50 C 89.00 25.33 88.58 24.83 89.00 26.00 C 89.42 27.17 89.50 25.83 89.00 28.00 C 88.50 30.17 89.00 28.67 87.50 32.50 C 86.00 36.33 86.33 33.67 84.50 39.50 C 82.67 45.33 83.50 41.83 82.00 50.00 C 80.50 58.17 81.08 52.75 80.00 64.00 C 78.92 75.25 79.33 68.67 78.75 83.75 C 78.17 98.83 78.25 96.58 78.25 109.25 C 78.25 121.92 78.08 117.75 78.75 121.75 C 79.42 125.75 79.33 122.42 80.25 121.25 C 81.17 120.08 80.75 121.08 81.50 118.25 C 82.25 115.42 81.42 116.17 82.50 112.75 C 83.58 109.33 82.83 110.92 84.75 108.00 C 86.67 105.08 85.42 106.25 88.25 104.00 C 91.08 101.75 89.42 102.67 93.25 101.25 C 97.08 99.83 95.92 100.25 99.75 99.75 C 103.58 99.25 101.92 99.25 104.75 99.75 C 107.58 100.25 106.08 99.58 108.25 101.25 C 110.42 102.92 109.42 101.75 111.25 104.75 C 113.08 107.75 112.17 108.33 113.75 110.25 C 115.33 112.17 114.58 112.08 116.00 110.50 C 117.42 108.92 116.58 107.83 118.00 105.50 C 119.42 103.17 118.67 103.83 120.25 103.50 C 121.83 103.17 121.67 103.08 122.75 104.50 C 123.83 105.92 123.58 104.83 123.50 107.75 C 123.42 110.67 122.58 109.67 122.50 113.25 C 122.42 116.83 122.17 115.08 123.25 118.50 C 124.33 121.92 124.00 121.08 125.75 123.50 C 127.50 125.92 126.58 125.17 128.50 125.75 C 130.42 126.33 130.58 126.33 131.50 125.25 C 132.42 124.17 132.50 125.08 131.25 122.50 C 130.00 119.92 129.42 120.42 127.75 117.50 C 126.08 114.58 126.58 115.83 126.25 113.75 C 125.92 111.67 126.17 112.75 126.75 111.25 C 127.33 109.75 126.92 110.42 128.00 109.25 C 129.08 108.08 128.67 108.25 130.00 107.75 C 131.33 107.25 130.67 107.25 132.00 107.75 C 133.33 108.25 132.67 107.75 134.00 109.25 C 135.33 110.75 134.67 109.75 136.00 112.25 C 137.33 114.75 136.83 114.67 138.00 116.75 C 139.17 118.83 138.67 118.25 139.50 118.50 C 140.33 118.75 140.17 118.58 140.50 117.50 C 140.83 116.42 140.83 117.17 140.50 115.25 C 140.17 113.33 139.83 113.75 139.50 111.75 C 139.17 109.75 139.17 110.58 139.50 109.25 C 139.83 107.92 139.58 108.50 140.50 107.75 C 141.42 107.00 140.83 107.25 142.25 107.00 C 143.67 106.75 143.17 106.75 144.75 107.00 C 146.33 107.25 145.58 107.00 147.00 107.75 C 148.42 108.50 147.92 108.25 149.00 109.25 C 150.08 110.25 149.67 109.75 150.25 110.75 C 150.83 111.75 151.00 110.75 150.75 112.25 C 150.50 113.75 150.92 112.75 149.50 115.25 C 148.08 117.75 147.92 117.25 146.50 119.75 C 145.08 122.25 145.50 121.25 145.25 122.75 C 145.00 124.25 145.00 123.83 145.75 124.25 C 146.50 124.67 145.92 124.75 147.50 124.00 C 149.08 123.25 148.50 124.00 150.50 122.00 C 152.50 120.00 151.50 121.33 153.50 118.00 C 155.50 114.67 154.58 115.33 156.50 112.00 C 158.42 108.67 157.50 110.00 159.25 108.00 C 161.00 106.00 159.67 106.58 161.75 106.00 C 163.83 105.42 162.58 105.33 165.50 106.25 C 168.42 107.17 168.17 107.00 170.50 108.75 C 172.83 110.50 172.17 109.58 172.50 111.50 C 172.83 113.42 172.58 113.00 171.50 114.50 C 170.42 116.00 171.17 115.50 169.25 116.00 C 167.33 116.50 167.92 115.25 165.75 116.00 C 163.58 116.75 164.58 116.00 162.75 118.25 C 160.92 120.50 162.42 119.67 160.25 122.75 C 158.08 125.83 159.42 124.25 156.25 127.50 C 153.08 130.75 154.17 130.42 150.75 132.50 C 147.33 134.58 148.92 134.17 146.00 133.75 C 143.08 133.33 144.83 132.00 142.00 131.25 C 139.17 130.50 140.67 130.42 137.50 131.50 C 134.33 132.58 135.50 133.08 132.50 134.50 C 129.50 135.92 130.83 135.50 128.50 135.75 C 126.17 136.00 127.67 136.33 125.50 135.25 C 123.33 134.17 124.50 135.08 122.00 132.50 C 119.50 129.92 120.08 130.75 118.00 127.50 C 115.92 124.25 116.67 125.83 115.75 122.75 C 114.83 119.67 115.75 119.75 115.25 118.25 C 114.75 116.75 115.08 116.75 114.25 118.25 C 113.42 119.75 114.17 119.92 112.75 122.75 C 111.33 125.58 112.25 124.25 110.00 126.75 C 107.75 129.25 108.83 128.33 106.00 130.25 C 103.17 132.17 104.67 131.42 101.50 132.50 C 98.33 133.58 99.83 133.67 96.50 133.50 C 93.17 133.33 94.83 133.83 91.50 132.00 C 88.17 130.17 89.50 129.25 86.50 128.00 C 83.50 126.75 84.83 126.67 82.50 128.25 C 80.17 129.83 81.33 130.50 79.50 132.75 C 77.67 135.00 78.50 134.25 77.00 135.00 C 75.50 135.75 76.25 135.25 75.00 135.00 C 73.75 134.75 74.33 135.00 73.25 134.25 C 72.17 133.50 72.58 134.00 71.75 132.75 C 70.92 131.50 71.25 132.25 70.75 130.50 C 70.25 128.75 70.50 132.67 70.25 127.50 C 70.00 122.33 70.08 126.50 70.00 115.00 C 69.92 103.50 69.58 107.58 70.00 93.00 C 70.42 78.42 70.00 85.67 71.25 71.25 C 72.50 56.83 72.17 61.42 73.75 49.75 C 75.33 38.08 74.58 42.58 76.00 36.25 C 77.42 29.92 77.00 33.50 78.00 30.75 C 79.00 28.00 78.50 29.38 79.00 28.00" class="hole" fill="#e8f4f0" fill-rule="evenodd" />
  </g>
</svg>